<svg width="40" height="40" viewBox="0 0 40 40" fill="none" xmlns="http://www.w3.org/2000/svg">
<path d="M35.2831 3.43337C34.0885 3.2276 32.8787 3.12167 31.6665 3.11671C27.5304 3.11332 23.4806 4.29933 19.9998 6.53337C16.5101 4.32866 12.4609 3.17176 8.33315 3.20004C7.12089 3.20501 5.91116 3.31093 4.71648 3.51671C4.32516 3.58417 3.97078 3.78914 3.71717 4.09469C3.46356 4.40025 3.32738 4.78632 3.33315 5.18337V25.1834C3.32958 25.4283 3.38003 25.6709 3.4809 25.8941C3.58177 26.1173 3.73059 26.3155 3.91677 26.4746C4.10295 26.6337 4.32191 26.7499 4.55808 26.8148C4.79424 26.8797 5.0418 26.8917 5.28315 26.85C7.67151 26.4365 10.1185 26.5051 12.4799 27.0518C14.8414 27.5985 17.0695 28.6123 19.0332 30.0334L19.2331 30.15H19.4165C19.6013 30.2271 19.7996 30.2667 19.9998 30.2667C20.2001 30.2667 20.3983 30.2271 20.5832 30.15H20.7665L20.9665 30.0334C22.9164 28.5805 25.1382 27.5339 27.5001 26.9556C29.862 26.3773 32.3159 26.2791 34.7165 26.6667C34.9578 26.7084 35.2054 26.6963 35.4416 26.6314C35.6777 26.5665 35.8967 26.4504 36.0829 26.2913C36.269 26.1322 36.4179 25.934 36.5187 25.7108C36.6196 25.4876 36.6701 25.2449 36.6665 25V5.00004C36.6491 4.6203 36.5025 4.25789 36.2509 3.97294C35.9993 3.68798 35.6578 3.4976 35.2831 3.43337ZM18.3331 25.5834C15.2496 23.9612 11.8173 23.1146 8.33315 23.1167C7.78315 23.1167 7.23315 23.1167 6.66648 23.1167V6.45004C7.22158 6.41805 7.77805 6.41805 8.33315 6.45004C11.8888 6.44611 15.3668 7.48952 18.3331 9.45004V25.5834ZM33.3331 23.1834C32.7665 23.1834 32.2165 23.1834 31.6665 23.1834C28.1823 23.1812 24.75 24.0279 21.6665 25.65V9.45004C24.6328 7.48952 28.1108 6.44611 31.6665 6.45004C32.2216 6.41805 32.7781 6.41805 33.3331 6.45004V23.1834ZM35.2831 30.1C34.0885 29.8943 32.8787 29.7883 31.6665 29.7834C27.5304 29.78 23.4806 30.966 19.9998 33.2C16.519 30.966 12.4692 29.78 8.33315 29.7834C7.12089 29.7883 5.91116 29.8943 4.71648 30.1C4.49953 30.1345 4.29152 30.2114 4.10442 30.3265C3.91732 30.4416 3.75482 30.5926 3.62626 30.7707C3.4977 30.9488 3.40562 31.1506 3.35532 31.3645C3.30502 31.5783 3.29748 31.7999 3.33315 32.0167C3.41785 32.4495 3.67063 32.8311 4.03613 33.0779C4.40163 33.3247 4.85005 33.4166 5.28315 33.3334C7.67151 32.9198 10.1185 32.9885 12.4799 33.5352C14.8414 34.0819 17.0695 35.0956 19.0332 36.5167C19.3154 36.7177 19.6533 36.8257 19.9998 36.8257C20.3463 36.8257 20.6842 36.7177 20.9665 36.5167C22.9301 35.0956 25.1583 34.0819 27.5197 33.5352C29.8811 32.9885 32.3281 32.9198 34.7165 33.3334C35.1496 33.4166 35.598 33.3247 35.9635 33.0779C36.329 32.8311 36.5818 32.4495 36.6665 32.0167C36.7021 31.7999 36.6946 31.5783 36.6443 31.3645C36.594 31.1506 36.5019 30.9488 36.3734 30.7707C36.2448 30.5926 36.0823 30.4416 35.8952 30.3265C35.7081 30.2114 35.5001 30.1345 35.2831 30.1V30.1Z" fill="#0A0A0B"/>
</svg>
