<svg width="40" height="40" viewBox="0 0 40 40" fill="none" xmlns="http://www.w3.org/2000/svg">
<path d="M23.3335 13.3334H25.0002C25.4422 13.3334 25.8661 13.1578 26.1787 12.8452C26.4912 12.5327 26.6668 12.1087 26.6668 11.6667C26.6668 11.2247 26.4912 10.8008 26.1787 10.4882C25.8661 10.1756 25.4422 10 25.0002 10H23.3335C22.8915 10 22.4675 10.1756 22.155 10.4882C21.8424 10.8008 21.6668 11.2247 21.6668 11.6667C21.6668 12.1087 21.8424 12.5327 22.155 12.8452C22.4675 13.1578 22.8915 13.3334 23.3335 13.3334V13.3334ZM23.3335 20H25.0002C25.4422 20 25.8661 19.8244 26.1787 19.5119C26.4912 19.1993 26.6668 18.7754 26.6668 18.3334C26.6668 17.8913 26.4912 17.4674 26.1787 17.1549C25.8661 16.8423 25.4422 16.6667 25.0002 16.6667H23.3335C22.8915 16.6667 22.4675 16.8423 22.155 17.1549C21.8424 17.4674 21.6668 17.8913 21.6668 18.3334C21.6668 18.7754 21.8424 19.1993 22.155 19.5119C22.4675 19.8244 22.8915 20 23.3335 20V20ZM15.0002 13.3334H16.6668C17.1089 13.3334 17.5328 13.1578 17.8453 12.8452C18.1579 12.5327 18.3335 12.1087 18.3335 11.6667C18.3335 11.2247 18.1579 10.8008 17.8453 10.4882C17.5328 10.1756 17.1089 10 16.6668 10H15.0002C14.5581 10 14.1342 10.1756 13.8217 10.4882C13.5091 10.8008 13.3335 11.2247 13.3335 11.6667C13.3335 12.1087 13.5091 12.5327 13.8217 12.8452C14.1342 13.1578 14.5581 13.3334 15.0002 13.3334V13.3334ZM15.0002 20H16.6668C17.1089 20 17.5328 19.8244 17.8453 19.5119C18.1579 19.1993 18.3335 18.7754 18.3335 18.3334C18.3335 17.8913 18.1579 17.4674 17.8453 17.1549C17.5328 16.8423 17.1089 16.6667 16.6668 16.6667H15.0002C14.5581 16.6667 14.1342 16.8423 13.8217 17.1549C13.5091 17.4674 13.3335 17.8913 13.3335 18.3334C13.3335 18.7754 13.5091 19.1993 13.8217 19.5119C14.1342 19.8244 14.5581 20 15.0002 20V20ZM35.0002 33.3334H33.3335V5.00004C33.3335 4.55801 33.1579 4.13409 32.8453 3.82153C32.5328 3.50897 32.1089 3.33337 31.6668 3.33337H8.3335C7.89147 3.33337 7.46755 3.50897 7.15499 3.82153C6.84242 4.13409 6.66683 4.55801 6.66683 5.00004V33.3334H5.00016C4.55814 33.3334 4.13421 33.509 3.82165 33.8215C3.50909 34.1341 3.3335 34.558 3.3335 35C3.3335 35.4421 3.50909 35.866 3.82165 36.1786C4.13421 36.4911 4.55814 36.6667 5.00016 36.6667H35.0002C35.4422 36.6667 35.8661 36.4911 36.1787 36.1786C36.4912 35.866 36.6668 35.4421 36.6668 35C36.6668 34.558 36.4912 34.1341 36.1787 33.8215C35.8661 33.509 35.4422 33.3334 35.0002 33.3334ZM21.6668 33.3334H18.3335V26.6667H21.6668V33.3334ZM30.0002 33.3334H25.0002V25C25.0002 24.558 24.8246 24.1341 24.512 23.8215C24.1994 23.509 23.7755 23.3334 23.3335 23.3334H16.6668C16.2248 23.3334 15.8009 23.509 15.4883 23.8215C15.1758 24.1341 15.0002 24.558 15.0002 25V33.3334H10.0002V6.66671H30.0002V33.3334Z" fill="#0A0A0B"/>
</svg>
