<svg width="40" height="40" viewBox="0 0 40 40" fill="none" xmlns="http://www.w3.org/2000/svg">
<path d="M36.5003 12.65L34.8337 6.20004C34.6639 5.5595 34.3685 4.9591 33.9647 4.43373C33.5608 3.90836 33.0566 3.46851 32.4812 3.13974C31.9059 2.81097 31.2709 2.59985 30.6133 2.51864C29.9556 2.43744 29.2884 2.48777 28.6503 2.66671L25.4337 3.53338C25.2209 3.58945 25.0213 3.6871 24.8464 3.82071C24.6716 3.95432 24.5249 4.12124 24.4149 4.31183C24.3049 4.50241 24.2337 4.7129 24.2055 4.93114C24.1772 5.14939 24.1925 5.37106 24.2503 5.58338L24.6837 7.25004L6.98368 11.9334C6.55758 12.0468 6.1938 12.3245 5.97201 12.7056C5.75022 13.0867 5.68849 13.5402 5.80035 13.9667L6.23368 15.6334L4.56701 16.0667C4.12499 16.122 3.72301 16.3505 3.44952 16.7022C3.17603 17.0538 3.05343 17.4997 3.10868 17.9417C3.16393 18.3837 3.39252 18.7857 3.74415 19.0592C4.09578 19.3327 4.54165 19.4553 4.98368 19.4C5.12761 19.4173 5.27309 19.4173 5.41701 19.4L7.08368 18.95L7.51701 20.6167C7.63186 21.0375 7.90711 21.3965 8.28368 21.6167C8.53607 21.7665 8.82354 21.847 9.11701 21.85C9.26036 21.8753 9.407 21.8753 9.55035 21.85L15.0003 20.1334V20.8334C15.0015 21.5734 15.1726 22.3033 15.5003 22.9667L7.16701 31.3C6.85317 31.6117 6.67598 32.0352 6.67442 32.4775C6.67286 32.9198 6.84705 33.3445 7.15868 33.6584C7.47031 33.9722 7.89385 34.1494 8.33612 34.151C8.77839 34.1525 9.20317 33.9783 9.51701 33.6667L17.8503 25.3334L18.317 25.5167V35.8334C18.317 36.2754 18.4926 36.6993 18.8052 37.0119C19.1177 37.3244 19.5417 37.5 19.9837 37.5C20.4257 37.5 20.8496 37.3244 21.1622 37.0119C21.4748 36.6993 21.6503 36.2754 21.6503 35.8334V25.5334C21.8155 25.4768 21.9769 25.41 22.1337 25.3334L30.467 33.6667C30.7809 33.9783 31.2056 34.1525 31.6479 34.151C32.0902 34.1494 32.5137 33.9722 32.8253 33.6584C33.137 33.3445 33.3112 32.9198 33.3096 32.4775C33.308 32.0352 33.1309 31.6117 32.817 31.3L24.4837 22.9667C24.8072 22.301 24.9834 21.5734 25.0003 20.8334V17.5L27.2503 16.9L27.667 18.5667C27.7647 18.9303 27.9826 19.2501 28.2852 19.4741C28.5879 19.698 28.9574 19.8129 29.3337 19.8H29.767L32.9837 18.9334C33.6338 18.7627 34.2429 18.4628 34.7745 18.0514C35.306 17.64 35.7492 17.1257 36.0775 16.5391C36.4057 15.9526 36.6124 15.3059 36.685 14.6377C36.7577 13.9694 36.6949 13.2934 36.5003 12.65V12.65ZM21.667 20.8334C21.6653 21.2625 21.4981 21.6744 21.2003 21.9834V21.9834C20.8914 22.2812 20.4795 22.4483 20.0503 22.45C19.6131 22.4482 19.1941 22.2746 18.8837 21.9667C18.5758 21.6563 18.4022 21.2373 18.4003 20.8V19.1334L21.667 18.3334V20.8334ZM10.317 17.9334L9.45035 14.7167L25.5503 10.4L25.9837 12.0667L26.417 13.7334L10.317 17.9334ZM33.117 14.7667C33.0077 14.958 32.8616 15.1257 32.6871 15.2602C32.5126 15.3946 32.3132 15.4931 32.1003 15.55L30.4337 15.9834L29.1337 11.15L28.3337 7.93338L27.9003 6.26671L29.567 5.83338C29.7793 5.7755 30.001 5.76024 30.2192 5.78848C30.4375 5.81672 30.648 5.88791 30.8386 5.99792C31.0292 6.10793 31.1961 6.2546 31.3297 6.42946C31.4633 6.60432 31.5609 6.80391 31.617 7.01671L33.2837 13.4667C33.3452 13.6834 33.3621 13.9103 33.3335 14.1338C33.3049 14.3572 33.2312 14.5725 33.117 14.7667Z" fill="#0A0A0B"/>
</svg>
