<svg width="338" height="56" viewBox="0 0 338 56" fill="none" xmlns="http://www.w3.org/2000/svg">
  <path d="M94.8237 51.7103V14.3539H101.655L119.212 40.6635V14.3539H126.043V51.7103H119.212L101.655 25.4541V51.7103H94.8237Z" fill="black"/>
  <path d="M143.051 52.3507C139.742 52.3507 137.181 51.3189 135.366 49.2554C133.587 47.192 132.698 44.1679 132.698 40.1832V25.2407H139.475V39.5428C139.475 41.8198 139.938 43.5631 140.863 44.7727C141.788 45.9823 143.247 46.5871 145.239 46.5871C147.125 46.5871 148.672 45.9112 149.882 44.5592C151.127 43.2073 151.75 41.3217 151.75 38.9024V25.2407H158.581V51.7103H152.55L152.016 47.2275C151.198 48.7929 150.006 50.0382 148.441 50.9632C146.911 51.8882 145.114 52.3507 143.051 52.3507Z" fill="black"/>
  <path d="M163.085 51.7103L172.69 38.4755L163.085 25.2407H170.396L177.12 34.6331L183.791 25.2407H191.155L181.496 38.4755L191.155 51.7103H183.791L177.12 42.3178L170.396 51.7103H163.085Z" fill="black"/>
  <path d="M207.301 51.7103C204.526 51.7103 202.302 51.0343 200.63 49.6824C198.958 48.3304 198.122 45.929 198.122 42.4779V30.9508H193.586V25.2407H198.122L198.922 18.1429H204.953V25.2407H212.104V30.9508H204.953V42.5313C204.953 43.8121 205.22 44.7015 205.753 45.1996C206.323 45.6621 207.283 45.8934 208.635 45.8934H211.944V51.7103H207.301Z" fill="black"/>
  <path d="M218.129 51.7103V14.3539H224.96V46.3737H241.503V51.7103H218.129Z" fill="black"/>
  <path d="M256.488 52.3507C254.211 52.3507 252.343 51.9949 250.884 51.2834C249.425 50.5362 248.34 49.5579 247.629 48.3482C246.917 47.1386 246.561 45.8044 246.561 44.3458C246.561 41.8909 247.522 39.8986 249.443 38.3687C251.364 36.8389 254.246 36.074 258.089 36.074H264.813V35.4336C264.813 33.6191 264.297 32.285 263.265 31.4311C262.233 30.5773 260.952 30.1503 259.423 30.1503C258.035 30.1503 256.826 30.4883 255.794 31.1643C254.762 31.8047 254.122 32.7653 253.873 34.0461H247.202C247.38 32.1249 248.02 30.4528 249.123 29.0297C250.261 27.6066 251.72 26.5214 253.499 25.7743C255.278 24.9916 257.27 24.6003 259.476 24.6003C263.247 24.6003 266.218 25.5431 268.388 27.4287C270.558 29.3143 271.644 31.9826 271.644 35.4336V51.7103H265.827L265.186 47.441C264.404 48.8641 263.301 50.0382 261.878 50.9632C260.49 51.8882 258.693 52.3507 256.488 52.3507ZM258.035 47.0141C259.992 47.0141 261.504 46.3737 262.571 45.0929C263.674 43.8121 264.368 42.2289 264.653 40.3433H258.836C257.021 40.3433 255.723 40.6813 254.94 41.3573C254.157 41.9976 253.766 42.7981 253.766 43.7587C253.766 44.7905 254.157 45.591 254.94 46.1602C255.723 46.7295 256.754 47.0141 258.035 47.0141Z" fill="black"/>
  <path d="M293.852 52.3507C291.859 52.3507 290.116 51.9771 288.622 51.23C287.128 50.4829 285.918 49.4333 284.993 48.0814L284.246 51.7103H278.162V13.2866H284.993V29.0297C285.847 27.8556 286.968 26.8239 288.355 25.9344C289.778 25.045 291.61 24.6003 293.852 24.6003C296.342 24.6003 298.566 25.2051 300.523 26.4147C302.479 27.6243 304.027 29.2787 305.165 31.3778C306.304 33.4768 306.873 35.8605 306.873 38.5288C306.873 41.1972 306.304 43.5808 305.165 45.6799C304.027 47.7434 302.479 49.38 300.523 50.5896C298.566 51.7637 296.342 52.3507 293.852 52.3507ZM292.411 46.3737C294.581 46.3737 296.378 45.6443 297.801 44.1857C299.224 42.727 299.936 40.8414 299.936 38.5288C299.936 36.2163 299.224 34.3129 297.801 32.8187C296.378 31.3244 294.581 30.5773 292.411 30.5773C290.205 30.5773 288.391 31.3244 286.968 32.8187C285.58 34.2773 284.886 36.1629 284.886 38.4755C284.886 40.788 285.58 42.6914 286.968 44.1857C288.391 45.6443 290.205 46.3737 292.411 46.3737Z" fill="black"/>
  <path d="M323.915 52.3507C321.567 52.3507 319.504 51.9771 317.725 51.23C315.946 50.4473 314.523 49.38 313.456 48.028C312.388 46.6761 311.748 45.1107 311.534 43.3318H318.419C318.632 44.3635 319.201 45.253 320.126 46.0001C321.087 46.7117 322.314 47.0674 323.809 47.0674C325.303 47.0674 326.388 46.765 327.064 46.1602C327.775 45.5554 328.131 44.8616 328.131 44.0789C328.131 42.9404 327.633 42.1755 326.637 41.7842C325.641 41.3572 324.253 40.9481 322.474 40.5568C321.336 40.3077 320.18 40.0053 319.006 39.6495C317.832 39.2938 316.746 38.849 315.75 38.3154C314.79 37.7461 314.007 37.0346 313.402 36.1807C312.797 35.2913 312.495 34.2062 312.495 32.9254C312.495 30.5773 313.42 28.6027 315.27 27.0017C317.156 25.4008 319.788 24.6003 323.168 24.6003C326.299 24.6003 328.789 25.3296 330.639 26.7883C332.525 28.2469 333.646 30.2571 334.002 32.8187H327.544C327.153 30.8619 325.676 29.8835 323.115 29.8835C321.834 29.8835 320.838 30.1326 320.126 30.6306C319.45 31.1287 319.112 31.7513 319.112 32.4985C319.112 33.2812 319.628 33.9038 320.66 34.3663C321.692 34.8288 323.061 35.2557 324.769 35.6471C326.619 36.074 328.309 36.5543 329.839 37.088C331.404 37.586 332.65 38.351 333.575 39.3827C334.5 40.3789 334.962 41.8198 334.962 43.7054C334.998 45.3419 334.571 46.8184 333.681 48.1348C332.792 49.4511 331.511 50.4829 329.839 51.23C328.167 51.9771 326.192 52.3507 323.915 52.3507Z" fill="black"/>
  <path d="M46.0292 52.6907H73.879C74.7636 52.6908 75.6326 52.4613 76.3986 52.0251C77.1647 51.5889 77.8007 50.9616 78.2428 50.2061C78.6849 49.4506 78.9175 48.5936 78.9171 47.7214C78.9167 46.8492 78.6834 45.9924 78.2406 45.2373L59.5375 13.2933C59.0954 12.538 58.4594 11.9108 57.6936 11.4747C56.9277 11.0386 56.0589 10.809 55.1745 10.809C54.2901 10.809 53.4213 11.0386 52.6554 11.4747C51.8895 11.9108 51.2536 12.538 50.8115 13.2933L46.0292 21.4667L36.6789 5.48395C36.2365 4.7287 35.6003 4.10157 34.8342 3.66555C34.0681 3.22954 33.1991 3 32.3146 3C31.43 3 30.5611 3.22954 29.795 3.66555C29.0289 4.10157 28.3927 4.7287 27.9502 5.48395L4.67646 45.2373C4.23369 45.9924 4.00039 46.8492 4 47.7214C3.99962 48.5936 4.23217 49.4506 4.67427 50.2061C5.11637 50.9616 5.75242 51.5889 6.51846 52.0251C7.2845 52.4613 8.15351 52.6908 9.03809 52.6907H26.5199C33.4464 52.6907 38.5544 49.6906 42.0692 43.8376L50.6025 29.2653L55.1731 21.4667L68.8904 44.8921H50.6025L46.0292 52.6907ZM26.2349 44.884L14.0348 44.8814L32.3227 13.6493L41.4477 29.2653L35.3381 39.7028C33.004 43.5004 30.3523 44.884 26.2349 44.884Z" fill="black"/>
</svg>
