<svg width="321" height="321" viewBox="0 0 321 321" fill="none" xmlns="http://www.w3.org/2000/svg">
<path fill-rule="evenodd" clip-rule="evenodd" d="M0 160.5C0 71.8583 71.8583 0 160.5 0C249.142 0 321 71.8583 321 160.5C321 249.142 249.142 321 160.5 321H0V160.5ZM143.15 125.801C162.316 125.801 177.853 141.337 177.853 160.503C177.853 179.669 162.316 195.206 143.15 195.206C123.984 195.206 108.447 179.669 108.447 160.503C108.447 141.337 123.984 125.801 143.15 125.801ZM281.958 160.503C281.958 141.337 266.421 125.801 247.256 125.801C228.09 125.801 212.553 141.337 212.553 160.503C212.553 179.669 228.09 195.206 247.256 195.206C266.421 195.206 281.958 179.669 281.958 160.503Z" fill="white"/>
</svg>
