<svg width="302" height="605" viewBox="0 0 302 605" fill="none" xmlns="http://www.w3.org/2000/svg">
<g clip-path="url(#clip0)">
<path d="M57.9949 204.653C36.2589 204.653 18.6384 222.274 18.6384 244.01C18.6384 265.746 36.2589 283.366 57.9949 283.366C79.7308 283.366 97.3513 265.746 97.3513 244.01L97.3513 204.653L57.9949 204.653Z" fill="white"/>
<path d="M57.9949 308.292C79.7308 308.292 97.3513 325.912 97.3513 347.648L97.3513 387.005L18.6385 387.005L18.6384 347.648C18.6384 325.912 36.2589 308.292 57.9949 308.292Z" fill="white"/>
<path d="M159.01 204.653C180.746 204.653 198.366 222.274 198.366 244.01C198.366 265.746 180.746 283.366 159.01 283.366L119.653 283.366L119.653 204.653L159.01 204.653Z" fill="white"/>
<path d="M159.01 387.005C180.746 387.005 198.366 369.384 198.366 347.648C198.366 325.912 180.746 308.292 159.01 308.292C137.274 308.292 119.653 325.912 119.653 347.648L119.653 387.005L159.01 387.005Z" fill="white"/>
<path d="M262.648 204.653C284.384 204.653 302.005 222.274 302.005 244.01C302.005 265.746 284.384 283.366 262.648 283.366C240.912 283.366 223.292 265.746 223.292 244.01L223.292 204.653L262.648 204.653Z" fill="white"/>
<path d="M262.648 308.292C284.384 308.292 302.005 325.912 302.005 347.648C302.005 369.384 284.384 387.005 262.648 387.005C240.912 387.005 223.292 369.384 223.292 347.648C223.292 325.912 240.912 308.292 262.648 308.292Z" fill="white"/>
<path d="M-85.0002 411.931L-85.0002 502.45C-85.0002 552.443 -44.4731 592.97 5.51958 592.97C55.5123 592.97 96.0394 552.443 96.0394 502.45L96.0394 411.931L-85.0002 411.931Z" fill="white"/>
<path d="M159.666 512.945C181.039 512.945 198.366 530.272 198.366 551.646C198.366 573.019 181.039 590.346 159.666 590.346L158.354 590.346C136.98 590.346 119.653 573.02 119.653 551.646C119.653 530.272 136.98 512.945 158.354 512.945L159.666 512.945Z" fill="white"/>
<path d="M159.01 409.307C137.274 409.307 119.653 426.927 119.653 448.663C119.653 470.399 137.274 488.02 159.01 488.02C180.746 488.02 198.366 470.399 198.366 448.663L198.366 409.307L159.01 409.307Z" fill="white"/>
<path d="M223.292 409.307L223.292 488.02L227.2 488.02C268.513 488.02 302.005 454.528 302.005 413.214L302.005 409.307L223.292 409.307Z" fill="white"/>
<path d="M263.304 512.945C284.678 512.945 302.005 530.272 302.005 551.646C302.005 573.019 284.353 590.346 262.979 590.346C241.243 590.346 223.292 572.726 223.292 550.99L223.292 512.945L263.304 512.945Z" fill="white"/>
<path d="M57.9949 80.0249C36.2589 80.0249 18.6384 62.4044 18.6384 40.6685C18.6384 18.9325 36.2589 1.31204 57.9949 1.31204C79.7308 1.31203 97.3513 18.9325 97.3513 40.6685L97.3513 80.0249L57.9949 80.0249Z" fill="white"/>
<path d="M97.3513 102.327L97.3513 107.546C97.3513 148.86 63.8599 182.351 22.5461 182.351L18.6385 182.351L18.6384 102.327L97.3513 102.327Z" fill="white"/>
<path d="M210.829 182.352C160.474 182.352 119.653 141.531 119.653 91.1758C119.653 40.8208 160.474 8.61997e-05 210.829 7.95965e-05C261.184 7.29932e-05 302.005 40.8208 302.005 91.1758C302.005 141.531 261.184 182.352 210.829 182.352Z" fill="white"/>
</g>
<defs>
<clipPath id="clip0">
<rect width="302" height="605" fill="white"/>
</clipPath>
</defs>
</svg>
