<svg width="20" height="16" viewBox="0 0 20 16" fill="none" xmlns="http://www.w3.org/2000/svg">
  <path fill-rule="evenodd" clip-rule="evenodd" d="M20 1.89691C19.25 2.2268 18.5 2.47423 17.6667 2.5567C18.5 2.06186 19.1667 1.23711 19.5 0.329897C18.6667 0.824742 17.8333 1.15464 16.9167 1.31959C16.1667 0.494845 15.0833 0 13.9167 0C11.6667 0 9.83333 1.81443 9.83333 4.04124C9.83333 4.37113 9.83333 4.70103 9.91667 4.94845C6.41667 4.7835 3.41667 3.13402 1.41667 0.659794C1 1.31959 0.833333 1.97938 0.833333 2.72165C0.833333 4.12371 1.58333 5.36082 2.66667 6.10309C2 6.10309 1.33333 5.93814 0.833333 5.60825C0.833333 5.60825 0.833333 5.60825 0.833333 5.69072C0.833333 7.6701 2.25 9.31959 4.08333 9.64948C3.75 9.73196 3.41667 9.81443 3 9.81443C2.75 9.81443 2.5 9.81443 2.25 9.73196C2.75 11.3814 4.25 12.5361 6.08333 12.5361C4.66667 13.6082 2.91667 14.268 1 14.268C0.666667 14.268 0.333333 14.268 0 14.1856C1.83333 15.3402 4 16 6.25 16C13.8333 16 17.9167 9.81443 17.9167 4.45361C17.9167 4.28866 17.9167 4.12371 17.9167 3.95876C18.75 3.38144 19.4167 2.63918 20 1.89691Z" fill="#0A0A0B"/>
</svg>
