<svg width="1440" height="532" fill="none" xmlns="http://www.w3.org/2000/svg">
<g clip-path="url(#a)"><path d="M27.5 495h-38v44h1481v-74.5l-69.5-27-13.5-10.5-34.5-17.5-55 3-22.5 6.5-43.5 18.5-7-10.5-97 49.5-127-8-28 6-30 16-24-6-13 2.5-44.5-39.5L830 440l-11.5 3.5-41.5 21-28-4.5h-28.5l-24-16.5h-6l-26 10L648 440H541.5l-51-10-12 3.5-16 14h-23l-16.25-7.5h-8.75l-39 20-39-16.5-14 4-60.5 29-37.5 8L209 495l-5.5-10.5-47.5-8-26 8L65 495H27.5Z" fill="#0A0A0B"/><path d="M1017.82 496.168 992 539.5l511-4.483-48.07-26.895-12.47-55.286L1471 242l-79.5 14.5-28 16.5-35 71.5-79.22 66H1138.5l-38.5 42.336-26.99 6.973-55.19 36.359Z" fill="#0A0A0B"/><path d="M1133 427h-59m-43 0h14m0 0 33.5 35m-33.5-35h29m0 0 33.5 32" stroke="#0A0A0B" stroke-width="3" stroke-linecap="round" stroke-linejoin="round"/><path d="M1197.89 281.5h122.71v-3h-122.71v3Zm122.71 98h-122.71v3h122.71v-3Zm-1.14-98.879a197.868 197.868 0 0 1 0 99.758l2.91.756a201.072 201.072 0 0 0 0-101.27l-2.91.756Zm-120.53 99.743a269.255 269.255 0 0 1 0-99.728l-2.95-.555a272.214 272.214 0 0 0 0 100.838l2.95-.555Zm-1.04-.864c.51 0 .94.363 1.04.864l-2.95.555c.17.917.97 1.581 1.91 1.581v-3Zm122.71 3c.83 0 1.56-.561 1.77-1.365l-2.91-.756c.14-.518.6-.879 1.14-.879v3Zm0-101c-.54 0-1-.361-1.14-.879l2.91-.756a1.83 1.83 0 0 0-1.77-1.365v3Zm-122.71-3c-.94 0-1.74.664-1.91 1.581l2.95.555c-.1.501-.53.864-1.04.864v-3Z" fill="#0A0A0B"/><path d="M1213 371h-26.81c-.1 0-.19.086-.19.193 0 3.077 1.23 6.028 3.4 8.2l1.53 1.525c.06.053.13.082.2.082H1213m0-10v10m0-10h26.5m-26.5 10h26.5m0-10v10m0-10h39m-39 10h39m0-10v10m0-10h28.25m-28.25 10h28.25m0-10h28.19c.03 0 .06.026.06.058a12.34 12.34 0 0 1-4.7 9.695l-.3.234a.056.056 0 0 1-.04.013h-23.21m0-10v10" stroke="986598" stroke-width="3" stroke-linejoin="round"/><rect x="1204" y="291" width="12" height="14" rx="2" stroke="#0A0A0B" stroke-width="3"/><rect x="1204" y="315" width="12" height="14" rx="2" stroke="#0A0A0B" stroke-width="3"/><rect x="1204" y="339" width="12" height="14" rx="2" stroke="#0A0A0B" stroke-width="3"/><rect x="1227" y="291" width="12" height="14" rx="2" stroke="#0A0A0B" stroke-width="3"/><rect x="1227" y="315" width="12" height="14" rx="2" stroke="#0A0A0B" stroke-width="3"/><rect x="1250" y="291" width="12" height="14" rx="2" stroke="#0A0A0B" stroke-width="3"/><rect x="1250" y="315" width="12" height="14" rx="2" stroke="#0A0A0B" stroke-width="3"/><rect x="1250" y="339" width="12" height="14" rx="2" stroke="#0A0A0B" stroke-width="3"/><rect width="17" height="28" rx="2" transform="matrix(-1 0 0 1 1243 352)" stroke="#0A0A0B" stroke-width="3"/><rect x="1273" y="291" width="12" height="14" rx="2" stroke="#0A0A0B" stroke-width="3"/><rect x="1273" y="339" width="12" height="14" rx="2" stroke="#0A0A0B" stroke-width="3"/><rect x="1296" y="291" width="12" height="14" rx="2" stroke="#0A0A0B" stroke-width="3"/><rect x="1296" y="315" width="12" height="14" rx="2" stroke="#0A0A0B" stroke-width="3"/><rect x="1296" y="339" width="12" height="14" rx="2" stroke="#0A0A0B" stroke-width="3"/><path d="M1197.5 280.5a67.79 67.79 0 0 1 34.61-9.5h52.42c12.77 0 25.32 3.271 36.47 9.5" stroke="#0A0A0B" stroke-width="3"/><path d="M1122.23 354.882h-87.02v-3h87.02v3Zm-87.02 68.618h87.02v3h-87.02v-3Zm1.23-69.568a139.932 139.932 0 0 0 0 70.518l-2.9.756a142.911 142.911 0 0 1 0-72.03l2.9.756Zm84.62 70.536a190.631 190.631 0 0 0 0-70.554l2.95-.556a193.601 193.601 0 0 1 0 71.666l-2.95-.556Zm1.17-.968c-.58 0-1.07.407-1.17.968l2.95.556a1.811 1.811 0 0 1-1.78 1.476v-3Zm-87.02 3c-.79 0-1.48-.532-1.67-1.294l2.9-.756c-.15-.559-.65-.95-1.23-.95v3Zm0-71.618c.58 0 1.08-.391 1.23-.95l-2.9-.756c.19-.762.88-1.294 1.67-1.294v3Zm87.02-3c.87 0 1.62.62 1.78 1.476l-2.95.556c.1.561.59.968 1.17.968v-3Z" fill="#0A0A0B"/><path d="M1111.51 417.909h19.01c.07 0 .13.061.13.137 0 2.182-.86 4.274-2.41 5.815l-1.08 1.081a.208.208 0 0 1-.14.058h-15.51m0-7.091V425m0-7.091h-18.79m18.79 7.091h-18.79m0-7.091V425m0-7.091h-27.66m27.66 7.091h-27.66m0-7.091V425m0-7.091h-20.03m20.03 7.091h-20.03m0-7.091h-19.99c-.02 0-.04.018-.04.041a8.746 8.746 0 0 0 3.34 6.875l.21.166c0 .006.01.009.02.009h16.46m0-7.091V425" stroke="#0A0A0B" stroke-width="3" stroke-linejoin="round"/><rect width="8.509" height="9.927" rx="2" transform="matrix(-1 0 0 1 1117.89 375)" stroke="#0A0A0B" stroke-width="3"/><rect width="8.509" height="9.927" rx="2" transform="matrix(-1 0 0 1 1085.51 375)" stroke="#0A0A0B" stroke-width="3"/><rect width="8.509" height="9.927" rx="2" transform="matrix(-1 0 0 1 1101.58 375)" stroke="#0A0A0B" stroke-width="3"/><rect width="8.509" height="9.927" rx="2" transform="matrix(-1 0 0 1 1085.27 392.018)" stroke="#0A0A0B" stroke-width="3"/><rect width="14" height="23" rx="2" transform="matrix(-1 0 0 1 1112 402)" stroke="#0A0A0B" stroke-width="3"/><rect width="8.509" height="9.927" rx="2" transform="matrix(-1 0 0 1 1068.96 392.018)" stroke="#0A0A0B" stroke-width="3"/><rect width="8.509" height="9.927" rx="2" transform="matrix(-1 0 0 1 1052.65 375)" stroke="#0A0A0B" stroke-width="3"/><rect width="8.509" height="9.927" rx="2" transform="matrix(-1 0 0 1 1052.65 392.018)" stroke="#0A0A0B" stroke-width="3"/><path d="M1122.5 353.5a49.106 49.106 0 0 0-24.42-6.5h-37.62c-8.86 0-17.61 2.064-25.53 6.027" stroke="#0A0A0B" stroke-width="3"/><rect x="1341" y="237" width="12" height="10" rx="2" stroke="#0A0A0B" stroke-width="3"/><rect x="1361" y="237" width="12" height="10" rx="2" stroke="#0A0A0B" stroke-width="3"/><path d="m1210.5 274.5 7.5-7.5m0 0h9m-9 0v-14h9v14m0 0 4 4M1113 349.5l-4.11-3m0 0h-6.15m6.15 0V335h-6.15v11.5m0 0-2.74.793" stroke="#0A0A0B" stroke-width="3"/><path d="M1240.5 381.5v31m0-31-33.84 29.552c-.65.565-1.66.106-1.66-.753v-26.598c0-.859 1.01-1.318 1.66-.753l33.84 29.552m0-31 29.29 29.293c.63.63 1.71.184 1.71-.707V381.5m-31 31 31-31m0 0 31 31M1321 280v-23.178c0-.552.45-1 1-1h70.2M1402 280v-23.178c0-.552-.45-1-1-1h-8.8m-60.75 0V230c0-.552.45-1 1-1h58.75c.55 0 1 .448 1 1v25.822" stroke="#0A0A0B" stroke-width="3" stroke-linejoin="round"/><path d="m1341.45 182.46-16.06 27.812c11.33-.044 36.47-4.413 46.36-21.534 9.88-17.12 1.19-41.241-4.39-51.162l-15.67 27.147m-10.24 17.737-7.64-13.072 2.59-4.497 15.29-.168m-10.24 17.737 10.24-17.737M1347 228.5l4.5-23m29.5 23-8-42" stroke="#0A0A0B" stroke-width="3"/><path d="M1335 194c9.33 1.333 29.8 2.2 37-5m0 0c5.6-13.6-5-31.667-11-39m11 39-23-17.5" stroke="#000" stroke-width="3"/><path d="M915.745 492v-15.389a1 1 0 0 1 1-1h47.264M970.651 492v-15.389a1 1 0 0 0-1-1h-5.642m-41.179 0v-17.182a1 1 0 0 1 1-1h39.179a1 1 0 0 1 1 1v17.182" stroke="#0A0A0B" stroke-width="3" stroke-linejoin="round"/><path d="m929.606 425.882-10.885 18.853c7.682-.03 24.722-2.992 31.422-14.597 6.7-11.605.811-27.956-2.972-34.68l-10.624 18.401m-6.941 12.023-5.179-8.861 1.759-3.048 10.361-.114m-6.941 12.023 6.941-12.023M933.369 457.091l3.05-15.591m19.997 15.591-5.423-28.47" stroke="#0A0A0B" stroke-width="3"/><path d="M925.235 433.705c6.327.903 20.2 1.491 25.08-3.39m0 0c3.796-9.218-3.389-21.465-7.456-26.436m7.456 26.436-15.59-11.862" stroke="#000" stroke-width="3"/><circle transform="matrix(1 0 0 -1 1134.5 234.5)" fill="#303036" r="3.5"/><circle r="3.5" transform="matrix(1 0 0 -1 882.5 162.5)" fill="#303036"/><circle r="3" transform="matrix(-1 0 0 1 1125 156)" fill="#303036"/><circle r="3.5" transform="matrix(1 0 0 -1 1239.5 197.5)" fill="#303036"/><circle transform="matrix(1 0 0 -1 1028.5 174.5)" fill="#303036" r="4.5"/><circle transform="matrix(1 0 0 -1 862.5 255.5)" fill="#303036" r="5.5"/><circle cx="1174.44" cy="76.4" r="10.5" transform="rotate(13.265 1174.44 76.4)" fill="#0A0A0B"/><path d="m1197.22 74.244 78.46 18.496m-81.92-2.241 28.9 6.814" stroke="#0A0A0B" stroke-width="3" stroke-linecap="round" stroke-linejoin="round"/><circle cx="1056.5" cy="81.5" transform="rotate(180 1056.5 81.5)" fill="#303036" r="3.5"/><circle cx="1308.5" cy="9.5" r="3.5" transform="rotate(180 1308.5 9.5)" fill="#303036"/><circle cx="1066" cy="3" r="3" fill="#303036"/><circle cx="951.5" cy="44.5" r="3.5" transform="rotate(180 951.5 44.5)" fill="#303036"/><circle cx="1162.5" cy="21.5" transform="rotate(180 1162.5 21.5)" fill="#303036" r="4.5"/><circle cx="1328.5" cy="102.5" transform="rotate(180 1328.5 102.5)" fill="#303036" r="5.5"/></g><defs><clipPath id="a"><path fill="#fff" d="M0 0h1440v532H0z"/></clipPath></defs></svg>
