<svg width="769" height="496" fill="none" xmlns="http://www.w3.org/2000/svg"><g clip-path="url(#a)"><path d="M-463.979 463.784h-33.915v39.27H823.888v-66.491l-62.028-24.097-12.049-9.371-30.791-15.619-49.087 2.678-20.081 5.801-38.823 16.511-6.248-9.371-86.572 44.178-113.346-7.14-24.99 5.355-26.775 14.28-21.42-5.355-11.602 2.231-39.716-35.253-28.114-6.694-10.263 3.124-37.039 18.742-24.99-4.016h-25.436l-21.419-14.726h-5.355l-23.205 8.925-14.726-12.049h-95.05l-45.518-8.925-10.71 3.124-14.28 12.495h-20.527l-14.503-6.694h-7.81l-34.807 17.85-34.807-14.726-12.495 3.57-53.996 25.882-33.468 7.14-13.834 9.371-4.909-9.371-42.393-7.14-23.205 7.14-58.012 9.371h-33.468Z" fill="#0A0A0B"/><path d="M419.872 464.827 396.83 503.5l456.064-4.001-42.905-24.004-11.123-49.342 25.468-188.17-70.953 12.942-24.99 14.726-31.237 63.813-70.703 58.904H527.58l-34.361 37.785-24.086 6.223-49.261 32.451Z" fill="#0A0A0B"/><path d="M522.672 403.094h-52.657m-38.378 0h12.495m0 0 29.899 31.238m-29.899-31.238h25.883m0 0 29.898 28.56" stroke="#0A0A0B" stroke-width="2.677" stroke-linecap="round" stroke-linejoin="round"/><path d="M580.582 273.237h109.522v-2.678H580.582v2.678Zm109.522 87.464H580.582v2.678h109.522v-2.678Zm-1.016-88.249a176.666 176.666 0 0 1 0 89.034l2.591.675a179.35 179.35 0 0 0 0-90.384l-2.591.675Zm-107.576 89.02a240.194 240.194 0 0 1 0-89.006l-2.631-.496a242.862 242.862 0 0 0 0 89.998l2.631-.496Zm-.93-.771c.455 0 .846.324.93.771l-2.631.496a1.732 1.732 0 0 0 1.701 1.411v-2.678Zm109.522 2.678c.741 0 1.388-.501 1.575-1.218l-2.591-.675a1.05 1.05 0 0 1 1.016-.785v2.678Zm0-90.142a1.05 1.05 0 0 1-1.016-.785l2.591-.675a1.628 1.628 0 0 0-1.575-1.218v2.678Zm-109.522-2.678c-.832 0-1.547.593-1.701 1.411l2.631.496a.946.946 0 0 1-.93.771v-2.678Z" fill="#0A0A0B"/><path d="M594.071 353.115h-23.925a.172.172 0 0 0-.172.172c0 2.747 1.093 5.38 3.038 7.319l1.366 1.361c.047.047.11.073.176.073h19.517m0-8.925v8.925m0-8.925h23.651m-23.651 8.925h23.651m0-8.925v8.925m0-8.925h34.807m-34.807 8.925h34.807m0-8.925v8.925m0-8.925h25.213m-25.213 8.925h25.213m0-8.925h25.162c.028 0 .051.023.051.051 0 3.376-1.547 6.565-4.198 8.654l-.264.208a.054.054 0 0 1-.034.012h-20.717m0-8.925v8.925" stroke="#0A0A0B" stroke-width="2.677" stroke-linejoin="round"/><rect x="586.039" y="281.715" width="10.71" height="12.495" rx="1.785" stroke="#0A0A0B" stroke-width="2.677"/><rect x="586.039" y="303.135" width="10.71" height="12.495" rx="1.785" stroke="#0A0A0B" stroke-width="2.677"/><rect x="586.039" y="324.555" width="10.71" height="12.495" rx="1.785" stroke="#0A0A0B" stroke-width="2.677"/><rect x="606.566" y="281.715" width="10.71" height="12.495" rx="1.785" stroke="#0A0A0B" stroke-width="2.677"/><rect x="606.566" y="303.135" width="10.71" height="12.495" rx="1.785" stroke="#0A0A0B" stroke-width="2.677"/><rect x="627.093" y="281.715" width="10.71" height="12.495" rx="1.785" stroke="#0A0A0B" stroke-width="2.677"/><rect x="627.093" y="303.135" width="10.71" height="12.495" rx="1.785" stroke="#0A0A0B" stroke-width="2.677"/><rect x="627.093" y="324.555" width="10.71" height="12.495" rx="1.785" stroke="#0A0A0B" stroke-width="2.677"/><rect width="15.172" height="24.99" rx="1.785" transform="matrix(-1 0 0 1 620.846 336.158)" stroke="#0A0A0B" stroke-width="2.677"/><rect x="647.621" y="281.715" width="10.71" height="12.495" rx="1.785" stroke="#0A0A0B" stroke-width="2.677"/><rect x="647.621" y="324.555" width="10.71" height="12.495" rx="1.785" stroke="#0A0A0B" stroke-width="2.677"/><rect x="668.148" y="281.715" width="10.71" height="12.495" rx="1.785" stroke="#0A0A0B" stroke-width="2.677"/><rect x="668.148" y="303.135" width="10.71" height="12.495" rx="1.785" stroke="#0A0A0B" stroke-width="2.677"/><rect x="668.148" y="324.555" width="10.71" height="12.495" rx="1.785" stroke="#0A0A0B" stroke-width="2.677"/><path d="M580.237 272.344a60.508 60.508 0 0 1 30.888-8.478h46.782a66.739 66.739 0 0 1 32.553 8.478" stroke="#0A0A0B" stroke-width="2.677"/><path d="M513.056 338.729h-77.661v-2.677h77.661v2.677Zm-77.661 61.242h77.661v2.677h-77.661v-2.677Zm1.097-62.09a124.884 124.884 0 0 0 0 62.937l-2.591.675a127.565 127.565 0 0 1 0-64.286l2.591.674Zm75.522 62.953a169.92 169.92 0 0 0 0-62.968l2.631-.497a172.6 172.6 0 0 1 0 63.962l-2.631-.497Zm1.042-.863c-.51 0-.948.362-1.042.863l2.631.497a1.617 1.617 0 0 1-1.589 1.317v-2.677Zm-77.661 2.677a1.545 1.545 0 0 1-1.494-1.155l2.591-.675a1.133 1.133 0 0 0-1.097-.847v2.677Zm0-63.919c.516 0 .967-.348 1.097-.848l-2.591-.674a1.545 1.545 0 0 1 1.494-1.155v2.677Zm77.661-2.677c.777 0 1.445.553 1.589 1.317l-2.631.497a1.06 1.06 0 0 0 1.042.863v-2.677Z" fill="#0A0A0B"/><path d="M503.491 394.981h16.965c.068 0 .122.054.122.122a7.33 7.33 0 0 1-2.154 5.19l-.969.965a.176.176 0 0 1-.125.051h-13.839m0-6.328v6.328m0-6.328H486.72m16.771 6.328H486.72m0-6.328v6.328m0-6.328h-24.681m24.681 6.328h-24.681m0-6.328v6.328m0-6.328h-17.878m17.878 6.328h-17.878m0-6.328h-17.842a.037.037 0 0 0-.037.036 7.81 7.81 0 0 0 2.977 6.136l.188.148a.04.04 0 0 0 .024.008h14.69m0-6.328v6.328" stroke="#0A0A0B" stroke-width="2.677" stroke-linejoin="round"/><rect width="7.594" height="8.86" rx="1.785" transform="matrix(-1 0 0 1 509.187 356.685)" stroke="#0A0A0B" stroke-width="2.677"/><rect width="7.594" height="8.86" rx="1.785" transform="matrix(-1 0 0 1 480.286 356.685)" stroke="#0A0A0B" stroke-width="2.677"/><rect width="7.594" height="8.86" rx="1.785" transform="matrix(-1 0 0 1 494.631 356.685)" stroke="#0A0A0B" stroke-width="2.677"/><rect width="7.594" height="8.86" rx="1.785" transform="matrix(-1 0 0 1 480.075 371.873)" stroke="#0A0A0B" stroke-width="2.677"/><rect width="12.495" height="20.527" rx="1.785" transform="matrix(-1 0 0 1 503.929 380.782)" stroke="#0A0A0B" stroke-width="2.677"/><rect width="7.594" height="8.86" rx="1.785" transform="matrix(-1 0 0 1 465.52 371.873)" stroke="#0A0A0B" stroke-width="2.677"/><rect width="7.594" height="8.86" rx="1.785" transform="matrix(-1 0 0 1 450.964 356.685)" stroke="#0A0A0B" stroke-width="2.677"/><rect width="7.594" height="8.86" rx="1.785" transform="matrix(-1 0 0 1 450.964 371.873)" stroke="#0A0A0B" stroke-width="2.677"/><path d="M513.3 337.496a43.842 43.842 0 0 0-21.795-5.801H457.93a50.965 50.965 0 0 0-22.788 5.379" stroke="#0A0A0B" stroke-width="2.677"/><rect x="708.31" y="233.521" width="10.71" height="8.925" rx="1.785" stroke="#0A0A0B" stroke-width="2.677"/><rect x="726.16" y="233.521" width="10.71" height="8.925" rx="1.785" stroke="#0A0A0B" stroke-width="2.677"/><path d="m591.84 266.989 6.694-6.693m0 0h8.032m-8.032 0v-12.495h8.032v12.495m0 0 3.57 3.57M504.822 333.926l-3.664-2.677m0 0h-5.496m5.496 0v-10.264h-5.496v10.264m0 0-2.443.707" stroke="#0A0A0B" stroke-width="2.677"/><path d="M618.615 362.486v27.668m0-27.668-30.204 26.376a.893.893 0 0 1-1.48-.673v-23.738a.893.893 0 0 1 1.48-.673l30.204 26.376m0-27.668 26.143 26.144c.563.562 1.524.164 1.524-.631v-25.513m-27.667 27.668 27.667-27.668m0 0 27.667 27.668M690.46 271.898v-20.686c0-.493.4-.892.893-.892h62.654m8.745 21.578v-20.686a.892.892 0 0 0-.892-.892h-7.853m-54.219 0v-23.047c0-.493.4-.892.893-.892h52.434c.493 0 .892.399.892.892v23.047" stroke="#0A0A0B" stroke-width="2.677" stroke-linejoin="round"/><path d="m708.71 184.844-14.331 24.822c10.115-.039 32.55-3.939 41.372-19.219 8.822-15.28 1.067-36.807-3.913-45.661l-13.988 24.228m-9.14 15.83-6.819-11.667 2.317-4.013 13.642-.15m-9.14 15.83 9.14-15.83M713.665 225.934l4.016-20.527m26.329 20.527-7.14-37.484" stroke="#0A0A0B" stroke-width="2.677"/><path d="M702.955 195.144c8.33 1.19 26.597 1.963 33.023-4.463m0 0c4.997-12.138-4.463-28.262-9.818-34.807m9.818 34.807-20.528-15.618" stroke="#000" stroke-width="2.677"/><path d="M328.773 461.106v-13.734c0-.493.4-.893.893-.893h42.183m5.927 14.627v-13.734a.892.892 0 0 0-.892-.893h-5.035m-36.753 0v-15.334c0-.493.4-.893.893-.893h34.967c.493 0 .893.4.893.893v15.334" stroke="#0A0A0B" stroke-width="2.677" stroke-linejoin="round"/><path d="m341.144 402.096-9.715 16.826c6.857-.026 22.064-2.67 28.044-13.027 5.98-10.358.724-24.95-2.652-30.952l-9.482 16.423m-6.195 10.73-4.623-7.908 1.571-2.72 9.247-.102m-6.195 10.73 6.195-10.73M344.503 429.95l2.722-13.914m17.847 13.914-4.84-25.409" stroke="#0A0A0B" stroke-width="2.677"/><path d="M337.243 409.078c5.646.807 18.028 1.331 22.384-3.025m0 0c3.388-8.227-3.025-19.157-6.655-23.594m6.655 23.594-13.915-10.587" stroke="#000" stroke-width="2.677"/><circle transform="matrix(1 0 0 -1 524.01 231.29)" fill="#313136" r="3.124"/><circle r="3.124" transform="matrix(1 0 0 -1 299.102 167.03)" fill="#313136"/><circle r="2.677" transform="matrix(-1 0 0 1 515.532 161.229)" fill="#313136"/><circle r="3.124" transform="matrix(1 0 0 -1 617.722 198.267)" fill="#313136"/><circle transform="matrix(1 0 0 -1 429.406 177.74)" fill="#313136" r="4.016"/><circle transform="matrix(1 0 0 -1 281.252 250.032)" fill="#313136" r="4.909"/><circle cx="559.656" cy="90.187" r="9.371" transform="rotate(13.265 559.656 90.187)" fill="#0A0A0B"/><path d="m579.992 88.263 70.024 16.507m-73.12-2 25.798 6.081" stroke="#0A0A0B" stroke-width="2.677" stroke-linecap="round" stroke-linejoin="round"/><circle cx="454.396" cy="94.739" transform="rotate(180 454.396 94.739)" fill="#313136" r="3.124"/><circle cx="679.304" cy="30.479" r="3.124" transform="rotate(180 679.304 30.479)" fill="#313136"/><circle cx="462.875" cy="24.677" r="2.677" fill="#313136"/><circle cx="360.684" cy="61.716" r="3.124" transform="rotate(180 360.684 61.716)" fill="#313136"/><circle cx="549" cy="41.189" transform="rotate(180 549 41.189)" fill="#313136" r="4.016"/><circle cx="697.154" cy="113.48" transform="rotate(180 697.154 113.48)" fill="#313136" r="4.909"/></g><defs><clipPath id="a"><path fill="#fff" d="M0 0h769v496H0z"/></clipPath></defs></svg>
