<svg width="44" height="44" fill="none" xmlns="http://www.w3.org/2000/svg"><path d="M36.667 44H7.333A7.333 7.333 0 0 1 0 36.667V7.333A7.333 7.333 0 0 1 7.333 0h29.334A7.333 7.333 0 0 1 44 7.333v29.334A7.333 7.333 0 0 1 36.667 44ZM7.333 4.889A2.444 2.444 0 0 0 4.89 7.333v29.334a2.445 2.445 0 0 0 2.444 2.444h29.334a2.445 2.445 0 0 0 2.444-2.444V7.333a2.444 2.444 0 0 0-2.444-2.444H7.333Z" fill="#fff"/><path d="M14.667 19.555a2.42 2.42 0 0 1-2.445-2.444c.004-.648.258-1.27.71-1.736a2.454 2.454 0 0 1 3.47 3.472 2.525 2.525 0 0 1-1.735.708ZM29.333 19.555h-4.889a2.444 2.444 0 1 1 0-4.888h4.89a2.445 2.445 0 0 1 0 4.888ZM14.667 29.333a2.566 2.566 0 0 1-1.736-.709 2.513 2.513 0 0 1-.709-1.735 2.445 2.445 0 0 1 4.18-1.736 2.478 2.478 0 0 1 0 3.471l-.367.294a1.897 1.897 0 0 1-.44.22c-.138.07-.286.12-.44.146a3.353 3.353 0 0 1-.488.05ZM29.333 29.333h-4.889a2.444 2.444 0 1 1 0-4.888h4.89a2.444 2.444 0 1 1 0 4.888Z" fill="#fff"/></svg>
