<svg width="44" height="44" fill="none" xmlns="http://www.w3.org/2000/svg"><path d="M36.667 44H7.333A7.333 7.333 0 0 1 0 36.667V7.333A7.333 7.333 0 0 1 7.333 0h29.334A7.333 7.333 0 0 1 44 7.333v29.334A7.333 7.333 0 0 1 36.667 44ZM7.333 4.889A2.444 2.444 0 0 0 4.89 7.333v29.334a2.445 2.445 0 0 0 2.444 2.444h29.334a2.445 2.445 0 0 0 2.444-2.444V7.333a2.444 2.444 0 0 0-2.444-2.444H7.333Z" fill="#fff"/><path d="M30.278 24.889H14.445a2.445 2.445 0 0 1 0-4.889h15.833a2.444 2.444 0 1 1 0 4.889ZM20.333 34.889h-4.889a2.444 2.444 0 0 1 0-4.889h4.89a2.444 2.444 0 1 1 0 4.889ZM29.333 14.889h-4.889a2.444 2.444 0 0 1 0-4.889h4.89a2.444 2.444 0 1 1 0 4.889Z" fill="#fff"/></svg>
