<svg width="70" height="70" viewBox="0 0 70 70" fill="none" xmlns="http://www.w3.org/2000/svg">
<path d="M38.8901 55.3H61.6449C62.3676 55.3 63.0777 55.1125 63.7036 54.7561C64.3295 54.3997 64.8492 53.8871 65.2104 53.2699C65.5716 52.6526 65.7616 51.9524 65.7613 51.2397C65.761 50.5271 65.5704 49.8271 65.2086 49.2101L49.9271 23.1101C49.5659 22.493 49.0463 21.9805 48.4205 21.6242C47.7948 21.2679 47.0849 21.0803 46.3623 21.0803C45.6397 21.0803 44.9298 21.2679 44.3041 21.6242C43.6783 21.9805 43.1587 22.493 42.7975 23.1101L38.8901 29.7882L31.2504 16.7295C30.8889 16.1124 30.3691 15.6 29.7432 15.2437C29.1172 14.8875 28.4073 14.7 27.6845 14.7C26.9618 14.7 26.2518 14.8875 25.6259 15.2437C25 15.6 24.4801 16.1124 24.1186 16.7295L5.10269 49.2101C4.74093 49.8271 4.5503 50.5271 4.54999 51.2397C4.54967 51.9524 4.73968 52.6526 5.1009 53.2699C5.46212 53.8871 5.98181 54.3997 6.60771 54.7561C7.2336 55.1125 7.94363 55.3 8.66638 55.3H22.95C28.6093 55.3 32.7828 52.8487 35.6546 48.0665L42.6267 36.1601L46.3612 29.7882L57.569 48.928H42.6267L38.8901 55.3ZM22.7171 48.9215L12.749 48.9193L27.6912 23.401L35.1468 36.1601L30.1549 44.6881C28.2478 47.791 26.0812 48.9215 22.7171 48.9215Z" fill="black"/>
</svg>
