<svg width="302" height="50" viewBox="0 0 302 50" fill="none" xmlns="http://www.w3.org/2000/svg">
<path d="M84.6641 46.1699V12.816H90.7631L106.439 36.3067V12.816H112.538V46.1699H106.439L90.7631 22.7269V46.1699H84.6641Z" fill="white"/>
<path d="M127.724 46.7417C124.77 46.7417 122.483 45.8205 120.863 43.9781C119.274 42.1357 118.48 39.4356 118.48 35.8778V22.5363H124.532V35.3061C124.532 37.3391 124.945 38.8956 125.77 39.9756C126.596 41.0556 127.899 41.5956 129.678 41.5956C131.361 41.5956 132.743 40.9921 133.823 39.785C134.935 38.5779 135.491 36.8943 135.491 34.7343V22.5363H141.59V46.1699H136.205L135.729 42.1674C134.998 43.5651 133.934 44.6769 132.537 45.5028C131.171 46.3287 129.566 46.7417 127.724 46.7417Z" fill="white"/>
<path d="M145.611 46.1699L154.188 34.3531L145.611 22.5363H152.139L158.143 30.9224L164.099 22.5363H170.674L162.05 34.3531L170.674 46.1699H164.099L158.143 37.7838L152.139 46.1699H145.611Z" fill="white"/>
<path d="M185.09 46.1699C182.612 46.1699 180.627 45.5663 179.134 44.3592C177.641 43.1522 176.895 41.008 176.895 37.9267V27.6347H172.845V22.5363H176.895L177.609 16.199H182.994V22.5363H189.379V27.6347H182.994V37.9744C182.994 39.1179 183.232 39.9121 183.708 40.3568C184.217 40.7697 185.074 40.9762 186.281 40.9762H189.236V46.1699H185.09Z" fill="white"/>
<path d="M194.758 46.1699V12.816H200.857V41.405H215.628V46.1699H194.758Z" fill="white"/>
<path d="M229.007 46.7417C226.974 46.7417 225.306 46.424 224.004 45.7887C222.701 45.1216 221.732 44.2481 221.097 43.168C220.462 42.088 220.144 40.8968 220.144 39.5944C220.144 37.4026 221.002 35.6237 222.717 34.2578C224.432 32.8919 227.005 32.2089 230.436 32.2089H236.44V31.6371C236.44 30.0171 235.979 28.8259 235.058 28.0635C234.137 27.3011 232.993 26.9199 231.627 26.9199C230.389 26.9199 229.309 27.2217 228.387 27.8253C227.466 28.397 226.894 29.2547 226.672 30.3983H220.716C220.875 28.6829 221.447 27.1899 222.431 25.9193C223.448 24.6487 224.75 23.6798 226.338 23.0128C227.927 22.3139 229.706 21.9645 231.675 21.9645C235.042 21.9645 237.695 22.8063 239.632 24.4899C241.57 26.1734 242.539 28.5559 242.539 31.6371V46.1699H237.345L236.773 42.358C236.075 43.6286 235.09 44.6769 233.819 45.5028C232.58 46.3287 230.976 46.7417 229.007 46.7417ZM230.389 41.9768C232.136 41.9768 233.486 41.405 234.439 40.2615C235.423 39.1179 236.043 37.7044 236.297 36.0208H231.103C229.483 36.0208 228.324 36.3226 227.625 36.9261C226.926 37.4979 226.577 38.2126 226.577 39.0703C226.577 39.9915 226.926 40.7062 227.625 41.2145C228.324 41.7227 229.245 41.9768 230.389 41.9768Z" fill="white"/>
<path d="M262.368 46.7417C260.589 46.7417 259.032 46.4081 257.698 45.7411C256.364 45.074 255.284 44.1369 254.458 42.9298L253.791 46.1699H248.359V11.863H254.458V25.9193C255.22 24.8711 256.221 23.9498 257.46 23.1557C258.731 22.3616 260.366 21.9645 262.368 21.9645C264.591 21.9645 266.577 22.5045 268.324 23.5845C270.071 24.6646 271.453 26.1417 272.469 28.0158C273.486 29.89 273.994 32.0183 273.994 34.4007C273.994 36.7832 273.486 38.9114 272.469 40.7856C271.453 42.628 270.071 44.0892 268.324 45.1693C266.577 46.2175 264.591 46.7417 262.368 46.7417ZM261.081 41.405C263.019 41.405 264.623 40.7539 265.894 39.4515C267.164 38.1491 267.8 36.4655 267.8 34.4007C267.8 32.336 267.164 30.6365 265.894 29.3024C264.623 27.9682 263.019 27.3011 261.081 27.3011C259.112 27.3011 257.492 27.9682 256.221 29.3024C254.982 30.6047 254.363 32.2883 254.363 34.3531C254.363 36.4178 254.982 38.1173 256.221 39.4515C257.492 40.7539 259.112 41.405 261.081 41.405Z" fill="white"/>
<path d="M289.21 46.7417C287.114 46.7417 285.271 46.4081 283.683 45.7411C282.095 45.0422 280.824 44.0892 279.871 42.8821C278.918 41.6751 278.346 40.2774 278.156 38.6891H284.302C284.493 39.6103 285.001 40.4044 285.827 41.0715C286.685 41.7068 287.781 42.0245 289.115 42.0245C290.449 42.0245 291.418 41.7545 292.021 41.2145C292.657 40.6744 292.974 40.055 292.974 39.3562C292.974 38.3397 292.53 37.6567 291.64 37.3073C290.751 36.9261 289.512 36.5608 287.924 36.2114C286.907 35.989 285.875 35.719 284.826 35.4013C283.778 35.0837 282.809 34.6866 281.92 34.2101C281.062 33.7019 280.363 33.0666 279.823 32.3042C279.283 31.5101 279.013 30.5412 279.013 29.3976C279.013 27.3011 279.839 25.5381 281.491 24.1087C283.175 22.6792 285.525 21.9645 288.543 21.9645C291.338 21.9645 293.562 22.6157 295.214 23.9181C296.897 25.2205 297.898 27.0152 298.216 29.3024H292.45C292.101 27.5552 290.783 26.6817 288.495 26.6817C287.352 26.6817 286.462 26.9041 285.827 27.3488C285.224 27.7935 284.922 28.3494 284.922 29.0165C284.922 29.7153 285.382 30.2712 286.304 30.6842C287.225 31.0971 288.448 31.4783 289.972 31.8277C291.624 32.2089 293.133 32.6377 294.499 33.1142C295.897 33.5589 297.009 34.2419 297.834 35.1631C298.66 36.0525 299.073 37.3391 299.073 39.0226C299.105 40.4838 298.724 41.8021 297.93 42.9774C297.136 44.1528 295.992 45.074 294.499 45.7411C293.006 46.4081 291.243 46.7417 289.21 46.7417Z" fill="white"/>
<path d="M41.0975 47.0453H65.9634C66.7532 47.0454 67.5291 46.8404 68.213 46.451C68.897 46.0616 69.4649 45.5014 69.8596 44.8269C70.2544 44.1523 70.462 43.3872 70.4617 42.6084C70.4613 41.8296 70.253 41.0647 69.8577 40.3905L53.1584 11.869C52.7637 11.1947 52.1959 10.6346 51.5121 10.2453C50.8283 9.85591 50.0525 9.65092 49.2629 9.65092C48.4733 9.65092 47.6975 9.85591 47.0137 10.2453C46.3299 10.6346 45.7621 11.1947 45.3674 11.869L41.0975 19.1667L32.749 4.8964C32.354 4.22207 31.7859 3.66213 31.1019 3.27283C30.4179 2.88353 29.6421 2.67859 28.8523 2.67859C28.0625 2.67859 27.2867 2.88353 26.6027 3.27283C25.9187 3.66213 25.3506 4.22207 24.9556 4.8964L4.17539 40.3905C3.78007 41.0647 3.57176 41.8296 3.57141 42.6084C3.57107 43.3872 3.7787 44.1523 4.17343 44.8269C4.56817 45.5014 5.13607 46.0616 5.82004 46.451C6.504 46.8404 7.2799 47.0454 8.0697 47.0453H23.6785C29.8628 47.0453 34.4236 44.3666 37.5618 39.1407L45.1808 26.1298L49.2617 19.1667L61.5093 40.0822H45.1808L41.0975 47.0453ZM23.424 40.0751L12.5311 40.0727L28.8596 12.1869L37.0068 26.1298L31.5519 35.4489C29.4678 38.8397 27.1002 40.0751 23.424 40.0751Z" fill="white"/>
</svg>
