<svg width="70" height="70" viewBox="0 0 70 70" fill="none" xmlns="http://www.w3.org/2000/svg">
<path d="M38.9118 55.3H61.681C62.4042 55.3 63.1147 55.1125 63.741 54.7561C64.3673 54.3997 64.8873 53.8871 65.2487 53.2699C65.6102 52.6526 65.8003 51.9524 65.8 51.2397C65.7997 50.5271 65.6089 49.8271 65.2469 49.2101L49.9558 23.1101C49.5944 22.493 49.0744 21.9805 48.4483 21.6242C47.8221 21.2679 47.1118 21.0803 46.3887 21.0803C45.6657 21.0803 44.9554 21.2679 44.3292 21.6242C43.703 21.9805 43.1831 22.493 42.8217 23.1101L38.9118 29.7882L31.2673 16.7295C30.9056 16.1124 30.3854 15.6 29.7591 15.2437C29.1328 14.8875 28.4223 14.7 27.6992 14.7C26.976 14.7 26.2655 14.8875 25.6392 15.2437C25.0129 15.6 24.4927 16.1124 24.131 16.7295L5.10304 49.2101C4.74105 49.8271 4.5503 50.5271 4.54999 51.2397C4.54967 51.9524 4.7398 52.6526 5.10125 53.2699C5.46269 53.8871 5.98272 54.3997 6.60901 54.7561C7.2353 55.1125 7.94578 55.3 8.66898 55.3H22.9616C28.6245 55.3 32.8007 52.8487 35.6743 48.0665L42.6508 36.1601L46.3876 29.7882L57.6025 48.928H42.6508L38.9118 55.3ZM22.7286 48.9215L12.7542 48.9193L27.7058 23.401L35.1661 36.1601L30.1711 44.6881C28.2628 47.791 26.0948 48.9215 22.7286 48.9215Z" fill="white"/>
</svg>
