<svg width="160" height="160" fill="none" xmlns="http://www.w3.org/2000/svg"><path d="M81.352 131.498s-9.864 9.199-18.22-1.272c-5.368-6.728-11.093-5.598-14.132-5.598M135.489 89.483c-2.95-1.953-7.819-7.628-3.696-14.705 4.123-7.078 1.619-12.777-.149-14.742M22 54.105c5.35 1.031 16.822.037 19.915-12.19 3.092-12.228 11.99-15.797 16.052-16.053" stroke="#BFBFC5" stroke-width="3" stroke-linecap="round"/><rect x="17.399" y="82" width="17.536" height="17.536" rx="8.768" transform="rotate(45 17.4 82)" stroke="#BFBFC5" stroke-width="3"/><rect x="124.824" y="102" width="37.934" height="37.934" rx="18.967" transform="rotate(45 124.824 102)" stroke="#BFBFC5" stroke-width="3"/><circle cx="80" cy="80" r="34" fill="#EDEDEE"/><path d="m95.817 76.983-1.667-.917-15-8.333h-.184a1.764 1.764 0 0 0-.316-.1h-.617a1.946 1.946 0 0 0-.333.1h-.184l-15 8.333a1.667 1.667 0 0 0 0 2.9l4.15 2.3v7.9a5 5 0 0 0 5 5H85a5 5 0 0 0 5-5v-7.9l3.333-1.866v4.766a1.667 1.667 0 0 0 3.334 0v-5.733a1.666 1.666 0 0 0-.85-1.45Zm-9.15 12.183A1.667 1.667 0 0 1 85 90.833H71.666A1.667 1.667 0 0 1 70 89.166v-6.05l7.516 4.167.25.1h.15c.139.017.279.017.417 0 .139.017.279.017.417 0h.15a.785.785 0 0 0 .25-.1l7.516-4.167v6.05Zm-8.334-5.233L66.766 77.5l11.567-6.434L89.9 77.5l-11.567 6.433Z" fill="#0A0A0B"/><rect x="120.525" y="2" width="33.269" height="33.269" rx="16.634" transform="rotate(45 120.525 2)" stroke="#BFBFC5" stroke-width="3"/></svg>
