<svg width="146" height="40" fill="none" xmlns="http://www.w3.org/2000/svg"><g clip-path="url(#a)"><path d="M28.006 16.83H15.787a.572.572 0 0 0-.57.572v5.974c0 .316.255.572.57.572h4.767v7.422s-1.07.365-4.03.365c-3.49 0-8.367-1.275-8.367-12 0-10.726 5.078-12.137 9.846-12.137 4.127 0 5.904.727 7.036 1.077.355.109.684-.245.684-.56l1.363-5.773a.533.533 0 0 0-.218-.446C26.408 1.568 23.606 0 16.525 0 8.367 0 0 3.47 0 20.154s9.58 19.17 17.653 19.17c6.684 0 10.739-2.856 10.739-2.856.167-.093.185-.326.185-.434V17.402a.571.571 0 0 0-.57-.571Zm62.94-14.742a.569.569 0 0 0-.568-.574h-6.88a.572.572 0 0 0-.57.574l.002 13.296H72.206V2.088a.57.57 0 0 0-.568-.574h-6.88a.571.571 0 0 0-.568.574V38.09c0 .318.255.576.568.576h6.88a.572.572 0 0 0 .568-.576v-15.4H82.93l-.019 15.4c0 .318.256.576.57.576h6.897a.572.572 0 0 0 .567-.576V2.088ZM40.967 6.902c0-2.478-1.987-4.48-4.437-4.48-2.448 0-4.436 2.002-4.436 4.48 0 2.474 1.988 4.482 4.436 4.482 2.45 0 4.437-2.008 4.437-4.482Zm-.546 23.613v-16.62a.572.572 0 0 0-.57-.572h-6.858c-.315 0-.596.324-.596.64v23.809c0 .7.436.908 1 .908h6.18c.677 0 .844-.333.844-.92v-7.245Zm76.819-17.192h-6.827a.573.573 0 0 0-.569.575v17.653s-1.734 1.269-4.196 1.269c-2.461 0-3.115-1.117-3.115-3.527V13.898a.572.572 0 0 0-.568-.575h-6.929a.573.573 0 0 0-.569.575v16.56c0 7.16 3.99 8.911 9.48 8.911 4.503 0 8.134-2.488 8.134-2.488s.173 1.312.251 1.467a.604.604 0 0 0 .503.312l4.408-.02a.574.574 0 0 0 .569-.574l-.002-24.168a.573.573 0 0 0-.57-.575Zm15.73 19.51c-2.368-.072-3.974-1.146-3.974-1.146V20.286s1.585-.972 3.529-1.145c2.459-.22 4.828.522 4.828 6.387 0 6.185-1.069 7.405-4.383 7.306Zm2.693-20.284c-3.877 0-6.515 1.73-6.515 1.73V2.09a.57.57 0 0 0-.568-.575h-6.899a.571.571 0 0 0-.569.574V38.09c0 .318.255.576.57.576h4.787c.215 0 .379-.11.499-.305.119-.194.291-1.66.291-1.66s2.821 2.673 8.162 2.673c6.27 0 9.866-3.18 9.866-14.278 0-11.097-5.743-12.547-9.624-12.547Zm-75.44.712h-5.162l-.008-6.818c0-.258-.133-.387-.43-.387H47.59c-.273 0-.42.12-.42.383v7.045s-3.524.851-3.763.92a.571.571 0 0 0-.412.549v4.427c0 .319.255.576.57.576h3.605v10.65c0 7.912 5.55 8.69 9.294 8.69 1.711 0 3.758-.55 4.096-.675.204-.075.323-.287.323-.516l.006-4.87a.58.58 0 0 0-.57-.575c-.301 0-1.07.122-1.863.122-2.535 0-3.394-1.179-3.394-2.704V19.956h5.161c.315 0 .57-.257.57-.576v-5.545a.57.57 0 0 0-.57-.574Z" fill="#0A0A0B"/></g><defs><clipPath id="a"><path fill="#fff" d="M0 0h145.288v39.443H0z"/></clipPath></defs></svg>
