<svg width="215" height="60" fill="none" xmlns="http://www.w3.org/2000/svg"><g clip-path="url(#a)"><path d="M4.692 13.61v22.706h13.251l11.64-20.164h26.36C51.035 6.554 41.079 0 29.583 0 19.125 0 9.957 5.408 4.692 13.61Z" fill="#0A0A0B"/><path d="M4.692 13.61v22.706h13.251l11.64-20.164h26.36C51.035 6.554 41.079 0 29.583 0 19.125 0 9.957 5.408 4.692 13.61Z" fill="#0A0A0B"/><path d="m4.692 13.61 13.287 22.742.287-.18-13.36-22.92c-.071.143-.143.25-.214.357Z" fill="#fff"/><path d="m28.186 59.13 13.037-13.037v-9.777h-23.28L4.692 13.609C1.719 18.194 0 23.71 0 29.583c0 15.866 12.5 28.83 28.186 29.547Z" fill="#0A0A0B"/><path d="m28.186 59.13 13.037-13.037v-9.777h-23.28L4.692 13.609C1.719 18.194 0 23.71 0 29.583c0 15.866 12.5 28.83 28.186 29.547Z" fill="#0A0A0B"/><path d="M27.828 59.13c.107 0 .25 0 .358.036l12.786-22.384-.287-.18L27.828 59.13Z" fill="#fff"/><path d="m28.186 59.13 13.037-13.037v-9.777L28.186 59.13Z" fill="#0A0A0B"/><path d="m28.186 59.13 13.037-13.037v-9.777L28.186 59.13Z" fill="#0A0A0B"/><path d="m29.583 16.152 11.64 20.164L28.186 59.13c.466.035.931.035 1.397.035 16.331 0 29.583-13.251 29.583-29.582 0-4.835-1.182-9.42-3.224-13.43h-26.36Z" fill="#0A0A0B"/><path d="m29.583 16.152 11.64 20.164L28.186 59.13c.466.035.931.035 1.397.035 16.331 0 29.583-13.251 29.583-29.582 0-4.835-1.182-9.42-3.224-13.43h-26.36Z" fill="#0A0A0B"/><path d="M55.943 16.152h-26.36v7.02l26.36-7.02ZM4.692 13.61l13.251 22.706 6.017-3.474L4.692 13.609ZM41.223 36.316l-5.981-3.474-7.056 26.288 13.037-22.814Z" fill="#fff"/><path d="M29.583 43.013c7.417 0 13.43-6.013 13.43-13.43 0-7.418-6.013-13.43-13.43-13.43-7.418 0-13.43 6.012-13.43 13.43 0 7.417 6.012 13.43 13.43 13.43Z" fill="#F1F1F1"/><path d="M29.583 40.327c5.934 0 10.744-4.81 10.744-10.744s-4.81-10.744-10.744-10.744-10.744 4.81-10.744 10.744 4.81 10.744 10.744 10.744Z" fill="#0A0A0B"/><path d="M55.763 15.794h-26.18c-7.414 0-13.43 6.017-13.43 13.43v.323c0-7.413 6.016-13.43 13.43-13.43h26.324a1.274 1.274 0 0 0-.144-.323Z" fill="#fff"/><path d="M29.798 43.013h-.215c-4.978 0-9.312-2.722-11.64-6.733L4.692 13.61c-.036.035-.072.107-.108.143l13.36 22.885c2.327 4.011 6.66 6.733 11.639 6.733 3.724 0 7.127-1.54 9.562-4.01a13.44 13.44 0 0 1-9.204 3.652c-.072.036-.107 0-.143 0Z" fill="#fff" fill-opacity=".1"/><path d="M34.275 42.19c.071-.036.143-.072.214-.072-.071 0-.143.036-.214.071ZM34.955 41.903c.215-.072.394-.179.609-.286-.215.107-.394.215-.609.286ZM33.63 42.405c.036 0 .072-.036.107-.036-.035 0-.071.036-.107.036ZM35.815 41.51c.179-.072.322-.18.501-.287-.18.107-.358.179-.501.286Z" fill="#fff" fill-opacity=".1"/><path opacity=".1" d="M42.977 30.657v-.215c.036.036.036.108 0 .215ZM39.145 39.36l.86-.86.143-.25c-.322.394-.645.752-1.003 1.11Z" fill="#0A0A0B"/><path opacity=".1" d="M42.655 26.36c.323 1.181.502 2.4.502 3.688 0 2.042-.466 3.94-1.29 5.695.931-1.827 1.505-3.94 1.505-6.16 0-7.414-6.017-13.43-13.431-13.43h-.179c6.232.071 11.46 4.405 12.893 10.207Z" fill="#0A0A0B"/><path opacity=".1" d="M42.906 31.445c0-.072 0-.108.036-.18-.036.072-.036.144-.036.18ZM33.737 42.368c.18-.071.358-.107.502-.179-.143.072-.323.108-.502.18ZM34.49 42.118c.143-.072.322-.108.465-.18a2.495 2.495 0 0 0-.465.18ZM36.28 41.222c.072-.035.108-.071.18-.107a.783.783 0 0 1-.18.107ZM35.564 41.616ZM29.762 43.013h.036a15.03 15.03 0 0 0 3.832-.608 12.494 12.494 0 0 1-3.868.608Z" fill="#0A0A0B"/><path d="M41.223 36.316a13.687 13.687 0 0 1-4.764 4.835c-.071.036-.107.071-.179.107-.179.108-.322.18-.501.287a2.046 2.046 0 0 0-.25.143c-.18.108-.395.18-.61.287a2.478 2.478 0 0 1-.465.179.509.509 0 0 1-.215.071c-.18.072-.323.108-.502.18-.035 0-.071.035-.107.035a12.437 12.437 0 0 1-3.832.61h.107c3.582 0 6.805-1.398 9.204-3.654.359-.358.681-.752 1.003-1.146l1.11-1.934Z" fill="#fff" fill-opacity=".1"/><path opacity=".1" d="M41.223 36.316a13.687 13.687 0 0 1-4.764 4.835c-.071.036-.107.071-.179.107-.179.108-.322.18-.501.287a2.046 2.046 0 0 0-.25.143c-.18.108-.395.18-.61.287a2.478 2.478 0 0 1-.465.179.509.509 0 0 1-.215.071c-.18.072-.323.108-.502.18-.035 0-.071.035-.107.035a12.437 12.437 0 0 1-3.832.61h.107c3.582 0 6.805-1.398 9.204-3.654.359-.358.681-.752 1.003-1.146l1.11-1.934Z" fill="#0A0A0B"/><path d="M42.655 26.36c-.036-.144-.072-.251-.107-.394.25.86.394 1.719.465 2.65v.072c.036.286.036.609.036.895 0 .287 0 .537-.036.824v.215c0 .215-.035.43-.071.644 0 .072 0 .108-.036.18a13.18 13.18 0 0 1-1.683 4.834l-1.11 1.934-.144.251-11.783 20.63h.394L41.366 36.71c.179-.322.358-.68.537-1.038a13.152 13.152 0 0 0 1.29-5.695 15.496 15.496 0 0 0-.538-3.617Z" fill="#fff" fill-opacity=".2"/><path d="M29.583.322c16.296 0 29.475 13.144 29.583 29.404v-.179C59.166 13.251 45.914 0 29.583 0 13.25 0 0 13.251 0 29.583v.179C.107 13.502 13.287.322 29.583.322Z" fill="#fff" fill-opacity=".2"/><path d="M29.583 58.843c16.296 0 29.475-13.144 29.583-29.403v.179c0 16.331-13.252 29.583-29.583 29.583C13.25 59.202 0 45.914 0 29.582v-.178c.107 16.26 13.287 29.44 29.583 29.44Z" fill="#fff"/><path d="M29.583 59.166c16.338 0 29.583-13.245 29.583-29.583S45.92 0 29.583 0 0 13.245 0 29.583s13.245 29.583 29.583 29.583Z" fill="url(#b)"/><path d="M75.282 30.335c0-6.375 4.477-11.246 10.852-11.246 5.05 0 7.88 3.009 9.169 5.981l-3.546 1.683c-.931-2.435-3.008-3.94-5.802-3.94-3.367 0-6.554 3.01-6.554 7.665 0 4.477 3.188 7.664 6.554 7.664 3.008 0 5.05-1.504 6.196-3.94l3.546 1.505c-1.325 3.009-4.298 5.981-9.348 5.981-6.59-.107-11.067-4.978-11.067-11.353Zm27.148-10.494-.179 3.009h.179c1.11-1.863 3.76-3.546 6.733-3.546 5.444 0 8.058 3.546 8.058 8.81v12.93h-3.939V28.652c0-4.298-2.257-5.802-5.229-5.802-3.367 0-5.623 3.187-5.623 6.554v11.604h-3.94V10.315h3.94v9.526Zm18.91 21.167V19.84h3.761v3.367h.179c.931-2.436 3.939-3.94 6.196-3.94 1.325 0 2.077.18 3.008.573l-1.504 3.76c-.573-.178-1.325-.357-2.078-.357-2.614 0-5.443 2.256-5.443 6.196v11.604h-4.119v-.036Zm34.848-10.673c0 6.375-4.477 11.246-10.852 11.246s-10.852-4.871-10.852-11.246 4.477-11.246 10.852-11.246 10.852 4.87 10.852 11.246Zm-3.94 0c0-4.87-3.367-7.664-6.912-7.664-3.546 0-6.912 2.793-6.912 7.664 0 4.87 3.366 7.664 6.912 7.664 3.545 0 6.912-2.793 6.912-7.664Zm7.091-10.494h3.761v3.009h.179c1.11-2.078 3.94-3.546 6.554-3.546 3.367 0 5.623 1.504 6.733 4.119 1.504-2.436 4.119-4.119 7.306-4.119 5.05 0 7.486 3.546 7.486 8.81v12.93h-4.119V28.652c0-4.298-1.683-5.802-4.692-5.802-3.187 0-5.444 3.187-5.444 6.554v11.604h-3.939V28.652c0-4.298-1.684-5.802-4.692-5.802-3.187 0-5.444 3.187-5.444 6.554v11.604h-3.939V19.84h.25Zm34.848 10.494c0-5.981 4.119-11.246 10.315-11.246 6.195 0 10.314 4.477 10.314 11.246v.752h-16.654c.179 4.477 3.367 6.912 6.734 6.912 2.256 0 4.691-.93 5.801-3.545l3.546 1.504c-1.325 3.008-4.298 5.802-9.168 5.802-6.59-.18-10.888-5.05-10.888-11.425Zm10.279-7.485c-3.009 0-5.229 2.077-5.981 5.05h12.177c-.179-1.863-1.684-5.05-6.196-5.05Z" fill="#0A0A0B"/></g><defs><radialGradient id="b" cx="0" cy="0" r="1" gradientUnits="userSpaceOnUse" gradientTransform="translate(8.838 8.074) scale(59.425)"><stop stop-color="#fff" stop-opacity=".1"/><stop offset="1" stop-color="#fff" stop-opacity="0"/></radialGradient><clipPath id="a"><path fill="#fff" d="M0 0h214.78v59.166H0z"/></clipPath></defs></svg>
