<svg width="162" height="44" fill="none" xmlns="http://www.w3.org/2000/svg"><g clip-path="url(#a)" fill="#0A0A0B"><path fill-rule="evenodd" clip-rule="evenodd" d="m58.707 14.276.135 2.418c1.544-1.87 3.57-2.805 6.078-2.805 4.346 0 6.558 2.494 6.635 7.484v13.825h-4.686V21.644c0-1.328-.286-2.31-.858-2.95-.572-.637-1.508-.956-2.807-.956-1.891 0-3.3.858-4.224 2.571v14.889h-4.688V14.276h4.417-.002Zm26.816 21.309c-2.97 0-5.38-.937-7.224-2.813-1.846-1.875-2.769-4.373-2.769-7.493v-.58c0-2.087.402-3.954 1.206-5.598.803-1.643 1.933-2.922 3.386-3.838 1.453-.915 3.073-1.372 4.862-1.372 2.841 0 5.038.908 6.587 2.726 1.55 1.818 2.325 4.389 2.325 7.715v1.895h-13.64c.143 1.727.717 3.093 1.727 4.099 1.01 1.005 2.28 1.508 3.81 1.508 2.147 0 3.896-.869 5.247-2.61l2.527 2.418c-.836 1.25-1.951 2.22-3.346 2.909-1.396.69-2.961 1.034-4.697 1.034h-.001Zm-.56-17.923c-1.286 0-2.323.45-3.114 1.353-.792.902-1.296 2.159-1.515 3.77h8.932v-.348c-.103-1.573-.521-2.761-1.254-3.568-.734-.805-1.749-1.207-3.048-1.207Zm18.442-8.47v5.085h3.685v3.48h-3.685v11.679c0 .799.159 1.375.473 1.73.315.354.878.532 1.689.532a7.201 7.201 0 0 0 1.639-.194v3.635a11.495 11.495 0 0 1-3.087.445c-3.6 0-5.4-1.991-5.4-5.974V17.756h-3.437v-3.48h3.434V9.19h4.689Zm12.251 26.007h-4.688v-29.7h4.688v29.7Zm10.089 0h-4.688V14.277h4.688v20.922Zm-4.977-26.356c0-.72.228-1.32.684-1.797.458-.477 1.11-.715 1.958-.715.849 0 1.505.238 1.969.715.462.477.693 1.076.693 1.798 0 .708-.231 1.298-.693 1.769-.464.47-1.12.706-1.969.706-.848 0-1.5-.235-1.958-.706-.456-.47-.684-1.06-.684-1.769v-.001Zm11.729 26.356V17.756h-3.183v-3.48h3.183v-1.914c0-2.321.643-4.112 1.928-5.376 1.287-1.263 3.087-1.894 5.401-1.894.824 0 1.699.115 2.625.348l-.116 3.674a9.205 9.205 0 0 0-1.794-.154c-2.238 0-3.357 1.152-3.357 3.46v1.856h4.244v3.48h-4.244v17.442h-4.687Zm19.657-6.729 4.244-14.193h4.996L153.1 38.37c-1.274 3.52-3.434 5.28-6.482 5.28-.682 0-1.435-.117-2.257-.35v-3.635l.887.058c1.183 0 2.074-.215 2.672-.648.598-.43 1.07-1.156 1.418-2.174l.674-1.799-7.33-20.825h5.055l4.417 14.193Z"/><path d="m30.676 15.549-.016-.007a.065.065 0 0 1-.025-.014.122.122 0 0 1-.03-.103l.85-5.198 3.987 3.988-4.147 1.765a.09.09 0 0 1-.036.006h-.017a.114.114 0 0 1-.022-.018 1.888 1.888 0 0 0-.544-.42Zm5.783-.317 4.264 4.263c.886.887 1.329 1.33 1.49 1.842.025.076.044.151.06.23l-10.19-4.316a1.417 1.417 0 0 0-.016-.006c-.04-.017-.088-.036-.088-.077 0-.042.049-.062.09-.078l.012-.006 4.378-1.852Zm5.64 7.703c-.22.414-.649.843-1.375 1.57l-4.807 4.806-6.217-1.295-.033-.007c-.055-.009-.113-.018-.113-.068a1.876 1.876 0 0 0-.72-1.312c-.026-.026-.02-.065-.012-.101 0-.006 0-.011.002-.016l1.17-7.178.004-.025c.007-.055.017-.118.066-.118a1.902 1.902 0 0 0 1.276-.732c.01-.01.017-.023.03-.03.035-.016.077 0 .113.016l10.615 4.49h.001Zm-7.287 7.481-7.905 7.905 1.353-8.316.002-.011a.15.15 0 0 1 .007-.032c.01-.027.04-.038.067-.049l.013-.005c.296-.127.558-.321.765-.569.026-.03.058-.06.099-.066a.1.1 0 0 1 .031 0l5.566 1.144h.002Zm-9.578 9.578-.891.89-9.85-14.235a.395.395 0 0 0-.012-.016c-.015-.02-.031-.042-.028-.066 0-.017.012-.033.024-.046l.011-.014c.03-.044.055-.088.082-.136l.022-.038.004-.003c.015-.027.03-.052.056-.066.023-.011.055-.007.08-.002l10.913 2.251c.03.005.06.017.084.036.014.015.018.03.02.048a1.933 1.933 0 0 0 1.132 1.292c.03.016.017.05.003.086a.269.269 0 0 0-.017.05c-.137.835-1.316 8.027-1.633 9.969Zm-1.861 1.86c-.657.65-1.044.994-1.482 1.133a2.2 2.2 0 0 1-1.327 0c-.512-.163-.956-.605-1.841-1.492l-9.892-9.892 2.584-4.007a.165.165 0 0 1 .044-.052c.027-.02.067-.011.1 0 .593.179 1.23.147 1.802-.091.03-.011.059-.019.082.002a.21.21 0 0 1 .03.035l9.9 14.365v-.001ZM7.877 30.649l-2.27-2.269 4.482-1.912a.093.093 0 0 1 .036-.008c.038 0 .06.038.08.072.045.07.092.137.143.202l.014.018c.013.019.004.037-.009.055l-2.475 3.842h-.001Zm-3.274-3.273-2.87-2.871c-.489-.489-.843-.843-1.09-1.148l8.73 1.811a.74.74 0 0 0 .033.006c.054.008.113.018.113.069 0 .055-.065.08-.12.101l-.025.011-4.77 2.02ZM.142 21.88a2.2 2.2 0 0 1 .099-.544c.163-.513.605-.955 1.491-1.842l3.674-3.674c1.692 2.455 3.388 4.907 5.089 7.356.03.04.063.084.029.117-.161.177-.322.37-.435.58a.175.175 0 0 1-.055.069c-.014.008-.03.005-.046.002h-.002L.142 21.88v.001Zm6.248-7.043 4.938-4.94c.465.203 2.156.917 3.666 1.555 1.144.484 2.187.924 2.515 1.067.033.013.062.027.077.06.008.02.004.045 0 .066a2.204 2.204 0 0 0 .575 2.01c.033.033 0 .08-.029.121l-.015.024L13.1 22.57a.152.152 0 0 1-.047.055c-.027.016-.064.009-.095 0a2.503 2.503 0 0 0-.597-.08c-.18 0-.377.032-.575.069-.023.003-.042.008-.06-.006a.23.23 0 0 1-.05-.056L6.39 14.838ZM12.328 8.9l6.395-6.395c.886-.886 1.329-1.33 1.841-1.49a2.2 2.2 0 0 1 1.327 0c.513.16.956.604 1.841 1.49l1.386 1.386-4.548 7.044a.17.17 0 0 1-.045.053c-.028.019-.066.01-.1 0a2.307 2.307 0 0 0-2.111.407c-.03.03-.074.013-.111-.003-.594-.259-5.214-2.211-5.875-2.492Zm13.756-4.043 4.2 4.2-1.012 6.267v.017a.146.146 0 0 1-.009.041c-.01.022-.033.027-.055.033a2.017 2.017 0 0 0-.625.32c-.012.013-.024.025-.044.027a.125.125 0 0 1-.047-.008l-6.4-2.719-.012-.005c-.04-.017-.089-.037-.089-.079a2.417 2.417 0 0 0-.34-1.006c-.032-.05-.066-.104-.04-.155l4.473-6.933Zm-4.325 9.466 6 2.541c.032.015.069.03.083.064a.115.115 0 0 1 0 .063 1.491 1.491 0 0 0-.033.289v.168c0 .042-.043.06-.082.076l-.013.005c-.95.405-13.343 5.69-13.361 5.69-.019 0-.039 0-.057-.019-.034-.033 0-.08.03-.12a.575.575 0 0 0 .015-.023l4.93-7.634.009-.013c.028-.046.061-.098.114-.098l.05.008c.112.015.21.03.31.03.749 0 1.442-.365 1.86-.987a.177.177 0 0 1 .037-.044c.03-.022.074-.011.108.004Zm-6.87 10.104 13.507-5.761s.02 0 .039.019c.074.073.136.123.197.169l.03.019c.027.015.055.033.057.061 0 .011 0 .018-.003.028L27.56 26.07l-.004.029c-.008.055-.015.117-.067.117a1.903 1.903 0 0 0-1.51.932l-.006.009c-.015.025-.03.05-.055.063-.023.01-.053.006-.077 0L15.068 25c-.011-.003-.168-.571-.18-.572Z"/></g><defs><clipPath id="a"><path fill="#fff" d="M0 0h161.7v44H0z"/></clipPath></defs></svg>
