<svg width="169" height="28" fill="none" xmlns="http://www.w3.org/2000/svg"><path d="M47.377 25.855V7.177h3.413l8.772 13.155V7.177h3.413v18.678h-3.413L50.79 12.727v13.128h-3.413ZM71.473 26.175c-1.653 0-2.933-.515-3.84-1.547-.889-1.032-1.333-2.544-1.333-4.536V12.62h3.386v7.151c0 1.139.231 2.01.693 2.615.463.605 1.191.908 2.187.908.942 0 1.715-.338 2.32-1.014.622-.676.933-1.62.933-2.829v-6.83h3.413v13.234h-3.013l-.267-2.241a4.627 4.627 0 0 1-1.786 1.868c-.765.462-1.662.693-2.693.693ZM81.482 25.855l4.8-6.617-4.8-6.618h3.653l3.36 4.697 3.332-4.697h3.68l-4.826 6.618 4.826 6.617h-3.68l-3.332-4.696-3.36 4.696h-3.653ZM103.574 25.855c-1.387 0-2.498-.338-3.333-1.014-.835-.676-1.253-1.877-1.253-3.602v-5.764h-2.266V12.62h2.266l.4-3.549h3.013v3.55h3.573v2.854h-3.573v5.79c0 .641.133 1.086.4 1.335.284.231.764.347 1.44.347h1.653v2.908h-2.32ZM108.984 25.855V7.177h3.413v16.01h8.265v2.668h-11.678ZM128.149 26.175c-1.138 0-2.071-.178-2.8-.533-.728-.374-1.271-.863-1.626-1.468a3.872 3.872 0 0 1-.533-2.001c0-1.227.48-2.224 1.439-2.989.96-.765 2.4-1.147 4.32-1.147h3.36v-.32c0-.907-.258-1.575-.774-2.001-.515-.427-1.155-.64-1.919-.64-.694 0-1.298.168-1.814.506-.515.32-.835.8-.959 1.441h-3.333c.089-.96.408-1.797.96-2.508.568-.712 1.297-1.254 2.186-1.628.889-.391 1.884-.587 2.986-.587 1.884 0 3.369.471 4.453 1.414s1.626 2.277 1.626 4.003v8.138h-2.906l-.32-2.134a4.892 4.892 0 0 1-1.653 1.76c-.693.463-1.591.694-2.693.694Zm.773-2.668c.978 0 1.733-.32 2.267-.96.551-.641.897-1.433 1.04-2.375h-2.907c-.906 0-1.555.169-1.946.507-.391.32-.587.72-.587 1.2 0 .516.196.916.587 1.201.391.285.906.427 1.546.427ZM146.817 26.175c-.995 0-1.866-.186-2.613-.56a4.714 4.714 0 0 1-1.813-1.574l-.373 1.814h-3.04V6.643h3.413v7.872c.427-.587.987-1.103 1.68-1.548.711-.444 1.627-.667 2.746-.667 1.245 0 2.356.302 3.333.907a6.497 6.497 0 0 1 2.32 2.482c.569 1.05.853 2.241.853 3.575 0 1.335-.284 2.526-.853 3.576a6.55 6.55 0 0 1-2.32 2.455c-.977.587-2.088.88-3.333.88Zm-.72-2.988c1.085 0 1.982-.365 2.693-1.094.711-.73 1.067-1.672 1.067-2.829 0-1.156-.356-2.107-1.067-2.855-.711-.747-1.608-1.12-2.693-1.12-1.102 0-2.008.373-2.719 1.12-.693.73-1.04 1.672-1.04 2.829 0 1.156.347 2.108 1.04 2.855.711.73 1.617 1.094 2.719 1.094ZM161.838 26.175c-1.173 0-2.204-.186-3.093-.56-.889-.391-1.6-.925-2.133-1.601a4.604 4.604 0 0 1-.96-2.348h3.44c.106.516.391.96.853 1.334.48.356 1.093.534 1.84.534.746 0 1.288-.151 1.626-.454.356-.302.533-.65.533-1.04 0-.57-.248-.952-.746-1.148-.498-.213-1.191-.418-2.08-.614a22.715 22.715 0 0 1-1.733-.453 8.863 8.863 0 0 1-1.626-.667 3.781 3.781 0 0 1-1.174-1.068c-.302-.444-.453-.987-.453-1.627 0-1.174.462-2.162 1.387-2.962.942-.8 2.257-1.2 3.946-1.2 1.564 0 2.808.364 3.733 1.093.942.73 1.502 1.735 1.679 3.015h-3.226c-.195-.978-.933-1.467-2.213-1.467-.64 0-1.138.124-1.493.373-.338.25-.507.56-.507.934 0 .392.258.703.774.934.515.231 1.199.445 2.053.64.924.214 1.768.454 2.533.721.782.249 1.404.631 1.866 1.147.462.498.693 1.219.693 2.162a3.712 3.712 0 0 1-.64 2.214c-.444.659-1.084 1.174-1.919 1.548-.836.374-1.822.56-2.96.56ZM22.998 26.345h13.914c.442 0 .876-.114 1.26-.332a2.5 2.5 0 0 0 .92-.91 2.458 2.458 0 0 0 0-2.484L29.746 6.647a2.5 2.5 0 0 0-.921-.91 2.543 2.543 0 0 0-2.518 0 2.5 2.5 0 0 0-.921.91l-2.39 4.086-4.671-7.991a2.501 2.501 0 0 0-.922-.91 2.544 2.544 0 0 0-2.518 0c-.382.219-.7.532-.921.91L2.337 22.619a2.458 2.458 0 0 0-.002 2.484 2.5 2.5 0 0 0 .922.91c.383.218.817.332 1.259.332h8.734c3.46 0 6.013-1.5 7.77-4.426l4.262-7.286 2.284-3.9 6.854 11.713h-9.138l-2.284 3.9Zm-9.89-3.903-6.096-.001L16.15 6.825l4.56 7.808-3.053 5.218c-1.166 1.9-2.491 2.591-4.548 2.591Z" fill="#0A0A0B"/></svg>
