<svg width="450" height="237" fill="none" xmlns="http://www.w3.org/2000/svg"><g clip-path="url(#a)"><path d="M358.902 125.246V88.254c-.893-8.735.685-25.635 23.945-25.635 21.041 0 22.537 15.001 22.537 25.635v20.84l1.09 19.539a.893.893 0 0 1-.959.941l-45.786-3.437a.894.894 0 0 1-.827-.891Z" fill="#fff"/><path d="M358.902 88.254v36.992c0 .467.361.856.827.891l45.786 3.437c.539.04.99-.402.959-.941l-1.09-19.539v-20.84m-46.482 0h46.482m-46.482 0c-.893-8.735.685-25.635 23.945-25.635 21.041 0 22.537 15.001 22.537 25.635" stroke="#0A0A0B" stroke-width="2.681"/><path d="m361.349 74.761-6.56-10.28a.894.894 0 0 1 .161-1.15l9.37-8.294a.894.894 0 0 1 1.084-.077l11.633 7.659" stroke="#0A0A0B" stroke-width="2.681"/><path d="M297.941 110.435v11.711a.88.88 0 0 0 .797.877l45.608 4.386a.922.922 0 0 0 .139.002l13.404-.838a.881.881 0 0 0 .827-.879v-16.612a.882.882 0 0 0-.882-.882H332.293a.88.88 0 0 1-.652-.288l-8.413-9.255a.881.881 0 0 0-.652-.288h-23.754a.88.88 0 0 0-.881.881v11.185Z" fill="#fff" stroke="#0A0A0B" stroke-width="2.681"/><path d="m548.637 181.487-25.525-12.762a.893.893 0 0 0-.789-.005l-13.328 6.449a.89.89 0 0 1-.272.081l-19.967 2.662-22.344 3.575-20.019 4.788a.896.896 0 0 1-.892-.295l-8.952-10.657a.875.875 0 0 1-.127-.201l-7.994-17.319-14.073-27.267a.893.893 0 0 0-.719-.481l-20.511-1.746-16.981-1.787h-16.469a.826.826 0 0 1-.131-.01l-11.935-1.768a.963.963 0 0 0-.131-.01h-16.916l-17.428-1.787H291.508a.895.895 0 0 0-.496.15l-10.362 6.908a.898.898 0 0 0-.233.227l-30.025 42.388a.894.894 0 0 1-.729.377h-9.633a.887.887 0 0 0-.352.072l-9.139 3.917a.882.882 0 0 1-.158.051l-19.835 4.408a.885.885 0 0 0-.35.163l-13.249 10.158-7.921 6.6a.884.884 0 0 1-.273.156l-13.463 4.777a.895.895 0 0 0-.399.284l-6.777 8.472a.894.894 0 0 1-.551.323l-20.815 3.469a.9.9 0 0 1-.565-.091l-23.313-12.317a.905.905 0 0 1-.191-.135l-11.951-11.097a.895.895 0 0 0-1.042-.127l-11.407 6.338a.886.886 0 0 1-.192.079l-17.209 4.854a.903.903 0 0 1-.242.033H60.747a.886.886 0 0 1-.192-.021l-22.249-4.894-11.85-3.951a.892.892 0 0 0-.439-.032l-22.494 3.97a.882.882 0 0 0-.143.037l-21.235 7.521a.894.894 0 0 1-.299.052h-20.152a.895.895 0 0 0-.464.13l-9.85 5.995a.887.887 0 0 1-.465.131h-32.371l-34.302 3.564a.898.898 0 0 0-.21.047l-16.935 6.08a.894.894 0 0 1-.75-.068l-21.74-12.61a.896.896 0 0 0-.526-.117l-35.83 3.096a.877.877 0 0 1-.17-.001l-29.739-3.107a.908.908 0 0 0-.233.006l-19.216 3.057a.89.89 0 0 1-.614-.125l-13.429-8.392a.893.893 0 0 0-1.09.11l-8.729 8.315a.912.912 0 0 1-.354.207l-10.845 3.336a.893.893 0 0 1-.953-.286l-9.537-11.611a.894.894 0 0 0-.911-.299l-57.265 14.536a.895.895 0 0 1-.546-.034l-22.24-8.721a.9.9 0 0 1-.44-.372l-4.842-8.071a.894.894 0 0 0-1.037-.392l-8.812 2.804a.893.893 0 0 1-.671-.052l-12.892-6.446a.885.885 0 0 0-.4-.095h-37.119a.884.884 0 0 0-.394.092l-24.629 12.098a.893.893 0 0 1-1.102-.257l-3.379-4.392a.894.894 0 0 0-1.363-.063l-10.635 11.452a.894.894 0 0 1-.655.286h-11.875a.889.889 0 0 1-.46-.128l-10.446-6.268a.894.894 0 0 0-.993.05l-16.892 12.56a.916.916 0 0 1-.119.075l-10.216 5.33-12.512 4.468-19.945 5.319a.896.896 0 0 1-.334.024l-45.773-5.333a.883.883 0 0 1-.168-.036l-30.648-9.772a.91.91 0 0 0-.213-.04L-733 215.897M382.926 63.066s-16.087 6.256-14.747 24.578M384.188 63.96s16.087 6.256 14.746 24.578M383.294 63.96a163.337 163.337 0 0 0 0 24.13" stroke="#0A0A0B" stroke-width="2.681"/><path d="M305.537 123.841v-9.844c0-.487.395-.881.882-.881h4.493c.487 0 .882.394.882.881v9.844M362.738 104.637v-3.152c0-.487.394-.882.881-.882h4.94c.487 0 .882.395.882.882v3.152a.882.882 0 0 1-.882.882h-4.94a.881.881 0 0 1-.881-.882ZM362.738 117.15v-3.153a.88.88 0 0 1 .881-.881h4.94c.487 0 .882.394.882.881v3.153a.881.881 0 0 1-.882.881h-4.94a.88.88 0 0 1-.881-.881ZM339.5 118.49v-2.705c0-.487.395-.882.881-.882h8.963c.486 0 .881.395.881.882v2.705a.882.882 0 0 1-.881.882h-8.963a.882.882 0 0 1-.881-.882ZM305.537 106.872v-2.706c0-.487.395-.882.882-.882h8.962c.487 0 .881.395.881.882v2.706a.88.88 0 0 1-.881.881h-8.962a.881.881 0 0 1-.882-.881Z" stroke="#0A0A0B" stroke-width="2.681"/><path d="M301.963 94.335v3.152c0 .487.394.882.881.882h4.493a.882.882 0 0 0 .882-.882v-3.152a.882.882 0 0 0-.882-.882h-4.493a.881.881 0 0 0-.881.882Z" fill="#fff" stroke="#0A0A0B" stroke-width="2.681"/><path d="M263.97 156.462v-38.267c.893-8.735-.685-25.636-23.944-25.636-21.042 0-22.537 15.002-22.537 25.636v20.839l-1.538 25.418a.895.895 0 0 0 .893.948h46.233c.493 0 .893-.4.893-.894v-8.044Z" fill="#fff"/><path d="M263.97 118.195V164.506c0 .494-.4.894-.893.894h-46.233a.895.895 0 0 1-.893-.948l1.538-25.418v-20.839m46.481 0h-46.481m46.481 0c.893-8.735-.685-25.636-23.944-25.636-21.042 0-22.537 15.002-22.537 25.636" stroke="#0A0A0B" stroke-width="2.681"/><path d="M152.706 166.294c.362 0 12.46-.255 28.332-.592m88.75-1.643s-57.591.981-88.75 1.643m-16.088.592c1.073 1.43 13.556 25.323 19.663 37.09m-3.575-37.682 14.747 29.639m1.34-29.639 10.725 21.595m6.257-22.3 8.043 17.831m15.641-17.831 8.044 13.809M240.919 92.56s16.088 6.256 14.747 24.577M240.025 92.56s-16.087 6.256-14.746 24.577M240.919 93.453c.595 8.033.595 16.099 0 24.131M243.601 129.215v-3.152a.882.882 0 0 0-.882-.882h-4.94a.882.882 0 0 0-.882.882v3.152c0 .487.395.882.882.882h4.94a.882.882 0 0 0 .882-.882ZM243.601 141.728v-3.153a.881.881 0 0 0-.882-.881h-4.94a.881.881 0 0 0-.882.881v3.153c0 .487.395.881.882.881h4.94a.881.881 0 0 0 .882-.881Z" stroke="#0A0A0B" stroke-width="2.681"/><path d="m179.802 140.815 36.743-.429a.881.881 0 0 1 .89.944l-1.661 23.259a.883.883 0 0 1-.872.819l-46.045.426a.882.882 0 0 1-.805-1.257l10.963-23.256a.883.883 0 0 1 .787-.506Z" fill="#fff" stroke="#0A0A0B" stroke-width="2.681"/><path d="m508.995 175.169 13.363-6.466a.896.896 0 0 1 .731-.022l30.359 12.578a.893.893 0 0 1 .552.826v82.521c0 .494-.4.894-.894.894H-732.106a.894.894 0 0 1-.894-.894V216.85c0-.516.436-.925.952-.892l95.464 6.188a.91.91 0 0 1 .213.04l30.648 9.772c.055.017.111.03.168.036l45.773 5.333a.896.896 0 0 0 .334-.024l19.945-5.319 12.512-4.468 10.216-5.33a.916.916 0 0 0 .119-.075l16.891-12.56a.896.896 0 0 1 .994-.05l10.446 6.268a.889.889 0 0 0 .46.128h11.875a.894.894 0 0 0 .655-.286l10.635-11.452a.894.894 0 0 1 1.363.063l3.379 4.392a.893.893 0 0 0 1.102.257l24.629-12.098a.884.884 0 0 1 .394-.092h37.119c.139 0 .275.032.4.095l12.892 6.446a.893.893 0 0 0 .671.052l8.812-2.804a.894.894 0 0 1 1.037.392l4.842 8.071a.9.9 0 0 0 .44.372l22.24 8.721c.174.068.365.08.546.034l57.265-14.536a.894.894 0 0 1 .911.299l9.537 11.611c.23.28.607.393.953.286l10.845-3.336a.912.912 0 0 0 .354-.207l8.729-8.315a.893.893 0 0 1 1.09-.11l13.429 8.392a.89.89 0 0 0 .614.125l19.216-3.057a.908.908 0 0 1 .233-.006l29.739 3.107a.877.877 0 0 0 .17.001l35.83-3.096a.896.896 0 0 1 .526.117l21.74 12.61a.894.894 0 0 0 .75.068l16.935-6.08a.898.898 0 0 1 .21-.047l34.302-3.564h32.371a.887.887 0 0 0 .465-.131l9.85-5.995c.14-.085.3-.13.464-.13h20.152a.893.893 0 0 0 .299-.052l21.235-7.521a.882.882 0 0 1 .143-.037l22.495-3.97a.892.892 0 0 1 .438.032l11.85 3.951 22.25 4.894a.886.886 0 0 0 .191.021h19.889a.904.904 0 0 0 .242-.033l17.21-4.854a.886.886 0 0 0 .19-.079l11.408-6.338a.895.895 0 0 1 1.042.127l11.951 11.097a.905.905 0 0 0 .191.135l23.313 12.317c.173.091.372.123.565.091l20.815-3.469a.894.894 0 0 0 .551-.323l6.777-8.472a.895.895 0 0 1 .399-.284l13.463-4.777a.884.884 0 0 0 .273-.156l7.921-6.6 13.249-10.158a.885.885 0 0 1 .35-.163l19.835-4.408a.882.882 0 0 0 .158-.051l9.139-3.917a.89.89 0 0 1 .352-.072h9.633c.29 0 .562-.141.729-.377l30.025-42.388a.898.898 0 0 1 .233-.227l10.362-6.908a.895.895 0 0 1 .496-.15H313.134l17.428 1.787h16.916a.95.95 0 0 1 .131.01l11.935 1.768c.044.007.087.01.131.01h16.469l16.981 1.787 20.511 1.746a.893.893 0 0 1 .719.481l14.073 27.267 7.994 17.319c.033.073.076.14.127.201l8.952 10.657a.896.896 0 0 0 .892.295l20.019-4.788 22.344-3.575 19.968-2.662a.892.892 0 0 0 .271-.081Z" fill="#0A0A0B" stroke="#0A0A0B" stroke-width="2.681"/></g><defs><clipPath id="a"><path fill="#fff" d="M0 0h450v237H0z"/></clipPath></defs></svg>
