<svg
  width="1440"
  height="402"
  fill="none"
  xmlns="http://www.w3.org/2000/svg"
><g clip-path="url(#a)">
  <path d="m782.882 251.493-52.675 10.823-235.06 24.69-77.695 3.382-44.773 12.514H252.515l-120.164-2.367-40.164-10.147-33.58 7.441L2.64 315.078l-44.773 3.721-179.094-20.97-44.773 2.706v77.79h746.662l57.942-10.485 37.53 4.735 61.234-16.234h32.922l69.135 4.058 61.893 17.249H905.35l57.942-5.073h44.118l73.08-16.234 50.04 28.072h51.36l67.16 7.44h126.42l77.7 10.147 36.21-5.75 71.11 5.75 206.75-24.352h80.98l79.67-21.307 136.3 11.499L2186 349.576l-32.26-95.039h-79.02l-105.34-24.013-41.49 16.234h-105.34l-76.38-29.763-73.09-33.822-134.32 12.853-49.38 34.498-50.04-17.587-32.92-19.617-57.29-62.232-34.89-6.088-51.36 29.425-80.99 38.895-29.63-14.543-36.21 14.543-162.634 58.173-48.066-15.219h-7.901l-25.679 15.219h-88.888Z" fill="#EDEDEE"/><path d="M11.62 300-8 307.488V524h1495V380.397L1431.49 300h-23.93l-44.03 11.429-65.56 9.064-62.69 14.582-28.71 3.153-36.37-7.488-86.14-3.547h-68.43l-29.675-6.7-104.803 6.7-32.542 11.035-29.192-3.153-52.162-14.582h-75.611l-75.612 3.941-27.756 13.794h-34.934l-46.898-3.153-30.149-7.882h-47.377l-26.799 7.882-20.578 3.153-46.419-8.67-55.513-2.365-53.119-6.7h-69.869l-29.67 6.7-67.476-15.37L36.506 300H11.62Z" fill="#BFBFC5"/><path d="M12.5 349-8 350.772V402h1562v-33.977L1496 349h-25l-46 2.704-68.5 2.145-65.5 3.45-30 .746-38-1.772-90-.839h-71.5l-31-1.585-109.5 1.585-34 2.611-30.5-.746-54.5-3.45h-79l-79 .932-29 3.264h-36.5l-49-.746-31.5-1.865h-49.5l-28 1.865-21.5.746-48.5-2.051-58-.56-55.5-1.585h-73l-31 1.585-70.5-3.637-24-2.797h-26Z" fill="#0A0A0B"/></g><defs><clipPath id="a"><path fill="#fff" d="M0 0h1440v402H0z"/></clipPath></defs></svg>
