<svg width="394" height="238" fill="none" xmlns="http://www.w3.org/2000/svg"><rect x="44.5" y="1.5" width="348" height="196" rx="4.5" stroke="#fff" stroke-width="3"/><path fill-rule="evenodd" clip-rule="evenodd" d="M216.433 82.979c-1.065-1.832-3.728-1.832-4.794 0l-11.611 19.964c-1.065 1.832.267 4.122 2.397 4.122h9.064c-.91-.796-1.247-2.173-.558-3.354l8.793-15.073-3.291-5.66Z" fill="#fff"/><path d="M223.79 87.358c.882-1.499 3.086-1.499 3.968 0l9.609 16.334c.882 1.499-.22 3.373-1.984 3.373h-19.218c-1.763 0-2.865-1.874-1.984-3.373l9.609-16.334Z" fill="#fff"/><rect x="166" y="123" width="104" height="2" rx="1" fill="#fff"/><circle cx="43.5" cy="194.5" r="36.474" fill="#0A0A0B"/><path d="M82 194.5a38.502 38.502 0 0 0-58.128-33.121 38.5 38.5 0 1 0 49.857 56.964" stroke="#fff" stroke-width="9.118" stroke-linecap="round"/><path d="M29.916 200.316v-10.103l-2.098.492v-1.787l3.082-1.368h1.441v12.766h-2.425Zm10.134.219c-1.18 0-2.188-.274-3.027-.821-.839-.559-1.49-1.331-1.951-2.316-.45-.997-.675-2.152-.675-3.465 0-1.301.225-2.45.675-3.447.462-.997 1.112-1.769 1.95-2.316.84-.559 1.849-.839 3.028-.839 1.18 0 2.189.28 3.028.839.838.547 1.483 1.319 1.933 2.316.462.997.693 2.146.693 3.447 0 1.313-.231 2.468-.693 3.465-.45.985-1.095 1.757-1.934 2.316-.838.547-1.847.821-3.027.821Zm0-2.097c.96 0 1.745-.402 2.353-1.204.608-.803.912-1.903.912-3.301 0-1.398-.304-2.498-.912-3.301-.608-.802-1.392-1.203-2.353-1.203-.972 0-1.763.401-2.37 1.203-.596.803-.894 1.903-.894 3.301 0 1.398.298 2.498.893 3.301.608.802 1.399 1.204 2.371 1.204Zm12.948 2.097c-1.18 0-2.189-.274-3.028-.821-.838-.559-1.489-1.331-1.951-2.316-.45-.997-.675-2.152-.675-3.465 0-1.301.225-2.45.675-3.447.462-.997 1.113-1.769 1.951-2.316.84-.559 1.848-.839 3.028-.839 1.179 0 2.188.28 3.027.839.839.547 1.483 1.319 1.933 2.316.462.997.693 2.146.693 3.447 0 1.313-.23 2.468-.693 3.465-.45.985-1.094 1.757-1.933 2.316-.839.547-1.848.821-3.027.821Zm0-2.097c.96 0 1.744-.402 2.352-1.204.608-.803.912-1.903.912-3.301 0-1.398-.304-2.498-.912-3.301-.608-.802-1.392-1.203-2.352-1.203-.973 0-1.763.401-2.371 1.203-.596.803-.894 1.903-.894 3.301 0 1.398.298 2.498.894 3.301.608.802 1.398 1.204 2.37 1.204Z" fill="#fff"/></svg>
