<svg width="399" height="290" viewBox="0 0 399 290" fill="none" xmlns="http://www.w3.org/2000/svg">
<path d="M159 9.00002C159 5.22876 162.218 2.26008 165.977 2.56386L391.063 20.7539C394.417 21.0249 397 23.8256 397 27.1901V189.878C397 193.693 393.709 196.677 389.912 196.304L164.826 174.196C161.52 173.871 159 171.091 159 167.77V9.00002Z" fill="#0A0A0B" stroke="white" stroke-width="3.22857"/>
<path d="M80 40.0029C80 36.2306 83.22 33.2616 86.9799 33.567L312.066 51.8503C315.418 52.1226 318 54.9228 318 58.2862V221.874C318 225.691 314.707 228.675 310.908 228.3L85.8227 206.079C82.5183 205.752 80 202.973 80 199.653V40.0029Z" fill="#0A0A0B" stroke="white" stroke-width="3.22857"/>
<path d="M2 64C2 60.2288 5.21826 57.2601 8.97727 57.5639L234.063 75.7539C237.417 76.0249 240 78.8256 240 82.1901V244.878C240 248.693 236.709 251.677 232.912 251.304L7.82597 229.196C4.52015 228.871 2 226.091 2 222.77V64Z" fill="#0A0A0B" stroke="white" stroke-width="3.22857"/>
</svg>
