<svg width="91" height="91" viewBox="0 0 91 91" fill="none" xmlns="http://www.w3.org/2000/svg">
<circle cx="41.9698" cy="41.1854" r="33.3405" fill="#0A0A0B"/>
<path d="M89.7223 83.3284L72.8518 66.5816C79.4003 58.4103 82.5716 48.0386 81.7136 37.5992C80.8556 27.1598 76.0334 17.4461 68.2386 10.4556C60.4439 3.46497 50.269 -0.271177 39.8062 0.0153404C29.3434 0.301858 19.388 4.58926 11.9869 11.996C4.58578 19.4027 0.301628 29.3657 0.0153288 39.8365C-0.270971 50.3072 3.46234 60.4898 10.4476 68.2905C17.4329 76.0912 27.1392 80.917 37.5707 81.7757C48.0022 82.6344 58.366 79.4607 66.531 72.9071L83.2651 89.6539C83.6878 90.0804 84.1908 90.419 84.7449 90.65C85.299 90.8811 85.8934 91 86.4937 91C87.094 91 87.6883 90.8811 88.2425 90.65C88.7966 90.419 89.2995 90.0804 89.7223 89.6539C90.5419 88.8053 91 87.6713 91 86.4911C91 85.311 90.5419 84.1769 89.7223 83.3284ZM41.0207 72.9071C34.7251 72.9071 28.5709 71.0389 23.3363 67.5386C18.1017 64.0383 14.0218 59.0631 11.6126 53.2424C9.20341 47.4216 8.57305 41.0165 9.80126 34.8372C11.0295 28.6579 14.0611 22.9818 18.5127 18.5268C22.9644 14.0718 28.6362 11.0378 34.8108 9.80871C40.9854 8.57956 47.3856 9.2104 53.2019 11.6215C59.0183 14.0325 63.9896 18.1155 67.4873 23.354C70.9849 28.5926 72.8518 34.7515 72.8518 41.0519C72.8518 49.5004 69.4982 57.6029 63.5287 63.5769C57.5592 69.551 49.4628 72.9071 41.0207 72.9071Z" fill="white"/>
<path d="M35.0483 52.1361L39.0237 59.1364C39.9845 60.8281 42.3863 60.8281 43.3471 59.1364L58.1852 33.0082H45.911L35.0483 52.1361Z" fill="white"/>
<path d="M47.6638 29.9219H59.9379L60.0671 29.6944C61.0279 28.0026 59.8269 25.8879 57.9054 25.8879H49.9546L47.6638 29.9219Z" fill="white"/>
<path d="M46.4492 25.8879L44.1583 29.9219H22.4329L22.3037 29.6944C21.343 28.0026 22.5439 25.8879 24.4654 25.8879H46.4492Z" fill="white"/>
<path d="M42.4056 33.0082L33.2956 49.0499L24.1856 33.0082H42.4056Z" fill="white"/>
</svg>
