<svg width="75" height="75" viewBox="0 0 75 75" fill="none" xmlns="http://www.w3.org/2000/svg">
<path fill-rule="evenodd" clip-rule="evenodd" d="M9 37.5C9 21.7599 21.7599 9 37.5 9C53.2401 9 66 21.7599 66 37.5C66 53.2401 53.2401 66 37.5 66H9V37.5ZM34.419 31.3382C37.8222 31.3382 40.5811 34.0971 40.5811 37.5004C40.5811 40.9037 37.8222 43.6626 34.419 43.6626C31.0157 43.6626 28.2568 40.9037 28.2568 37.5004C28.2568 34.0971 31.0157 31.3382 34.419 31.3382ZM59.0674 37.5004C59.0674 34.0971 56.3085 31.3382 52.9053 31.3382C49.502 31.3382 46.7431 34.0971 46.7431 37.5004C46.7431 40.9037 49.502 43.6626 52.9053 43.6626C56.3085 43.6626 59.0674 40.9037 59.0674 37.5004Z" fill="white"/>
</svg>
