<svg width="1440" height="391" viewBox="0 0 1440 391" fill="none" xmlns="http://www.w3.org/2000/svg">
    <g clip-path="url(#clip0)">
        <path
            d="M1473.26 163.856L1465.84 161.584C1465.26 161.404 1464.64 161.337 1464.03 161.389C1462.01 161.557 1460.31 162.967 1459.77 164.92L1458.64 169.002C1458.07 171.067 1456.9 172.919 1455.28 174.325L1452.93 176.373C1451.17 177.909 1448.96 178.842 1446.63 179.037L1445.96 179.092C1444.52 179.212 1443.07 179.047 1441.7 178.607L1422.13 172.345C1421.41 172.113 1420.71 171.808 1420.05 171.432L1413.92 167.953C1411.73 166.708 1409 166.972 1407.09 168.612C1404.11 171.161 1399.53 170.209 1397.82 166.687L1391.02 152.672C1390.43 151.453 1390.06 150.134 1389.95 148.783L1389.15 139.152C1388.94 136.647 1387.88 134.289 1386.14 132.471L1361.61 106.784L1343.52 90.4809L1323.83 72.8716C1323.34 72.4334 1322.89 71.9523 1322.49 71.4339L1303.75 47.3778L1291.69 32.392C1289.78 30.0132 1286.96 28.5369 1283.91 28.3165L1261.85 26.719C1261.28 26.6777 1260.7 26.6809 1260.14 26.7284L1248.06 27.7372C1245.34 27.9642 1242.8 29.1929 1240.94 31.1847L1234.39 38.1901C1233.75 38.8712 1233.2 39.6304 1232.76 40.4496L1223.06 58.2848C1222.8 58.7666 1222.5 59.2283 1222.17 59.6657L1211.68 73.5358C1210.59 74.9695 1209.17 76.1157 1207.54 76.8738L1185.97 86.9098C1185.04 87.343 1184.17 87.9044 1183.39 88.5778L1164.98 104.57C1164.28 105.175 1163.51 105.69 1162.69 106.102L1146.02 114.441C1144.18 115.361 1142.63 116.78 1141.56 118.535L1130.06 137.319C1128.46 139.916 1125.73 141.601 1122.7 141.854C1119.67 142.107 1116.94 143.787 1115.34 146.379L1107.08 159.832C1106.36 161.002 1105.43 162.028 1104.34 162.855L1091.58 172.486C1088.54 174.777 1084.54 175.338 1080.99 173.97L1072.28 170.61C1069.72 169.62 1066.87 169.628 1064.31 170.632L1031.2 183.61C1029.14 184.417 1026.89 184.585 1024.74 184.093L1020.68 183.165C1017.66 182.475 1015.07 180.542 1013.55 177.842L1011.06 173.42C1009.71 171.032 1007.52 169.232 1004.92 168.373L968.298 156.297C965.878 155.499 963.257 155.566 960.881 156.486L960.507 156.63C957.442 157.817 954.006 157.571 951.142 155.959L927.608 142.72C924.276 140.845 920.21 140.835 916.869 142.693L908.324 147.445C906.96 148.204 905.45 148.664 903.894 148.793L897.585 149.32C894.255 149.599 891.232 151.375 889.369 154.149L874.365 176.489C873.538 177.721 872.47 178.772 871.226 179.581L847.181 195.203C846.044 195.942 844.782 196.463 843.456 196.743L815.754 202.58L797.659 206.582C796.653 206.805 795.622 206.885 794.594 206.82L780.42 205.931C778.629 205.818 776.837 206.146 775.202 206.884L761.566 213.044L710.436 236.973C709.889 237.229 709.323 237.439 708.742 237.602L655.767 252.453C655.096 252.641 654.408 252.765 653.713 252.823L574.636 259.428C573.379 259.533 572.114 259.421 570.895 259.097L545.844 252.441C543.251 251.752 540.497 252.035 538.098 253.235L517.807 263.385C516.555 264.011 515.196 264.393 513.801 264.509L434.963 271.094L388.877 274.943C386.434 275.147 383.993 274.53 381.942 273.188L362.121 260.228C358.7 257.991 354.32 257.836 350.749 259.825L338.851 266.451C336.315 267.864 333.324 268.217 330.53 267.433L308.61 261.289C307.348 260.935 306.032 260.81 304.726 260.919L296.151 261.635C294.281 261.792 292.402 261.467 290.693 260.692L271.242 251.871C269.877 251.252 268.4 250.919 266.901 250.891L246.474 250.516C244.016 250.471 241.614 251.25 239.652 252.73L223.107 265.198C220.69 267.02 217.628 267.765 214.644 267.258L182.55 261.803C181.514 261.627 180.508 261.303 179.564 260.842L149.857 246.326C149.226 246.018 148.567 245.771 147.89 245.588L131.843 241.264C129.998 240.767 128.055 240.759 126.206 241.241L92.6665 249.983C90.54 250.537 88.6282 251.715 87.1777 253.366L62.7834 281.128L37.9347 303.224C37.0855 303.979 36.1244 304.598 35.0857 305.059L-0.825378 320.989"
            stroke="white" stroke-width="7" />
        <g filter="url(#filter0_d)">
            <path
                d="M1465.84 161.584L1466.67 161.837C1470.59 163.037 1473.26 166.654 1473.26 170.751V521C1473.26 527.075 1468.34 532 1462.26 532H10.1745C4.09949 532 -0.825446 527.075 -0.825378 521L-0.82536 328.143C-0.825362 323.793 1.73792 319.852 5.71403 318.088L35.0857 305.059C36.1244 304.598 37.0855 303.979 37.9347 303.224L62.7834 281.128L87.1777 253.366C88.6283 251.715 90.54 250.537 92.6665 249.983L126.206 241.241C128.055 240.759 129.998 240.767 131.843 241.264L147.89 245.588C148.567 245.771 149.226 246.018 149.857 246.326L179.564 260.842C180.508 261.303 181.514 261.627 182.55 261.803L214.644 267.258C217.628 267.765 220.69 267.02 223.107 265.198L239.652 252.73C241.614 251.25 244.016 250.471 246.474 250.516L266.901 250.891C268.4 250.919 269.877 251.252 271.242 251.871L290.693 260.692C292.402 261.467 294.281 261.792 296.151 261.635L304.726 260.919C306.032 260.81 307.348 260.935 308.61 261.289L330.53 267.433C333.324 268.217 336.315 267.864 338.851 266.451L350.749 259.825C354.32 257.836 358.7 257.991 362.121 260.228L381.942 273.188C383.993 274.53 386.434 275.147 388.877 274.943L434.963 271.094L513.801 264.509C515.196 264.393 516.555 264.011 517.807 263.385L538.098 253.235C540.497 252.035 543.251 251.752 545.844 252.441L570.895 259.097C572.114 259.421 573.379 259.533 574.636 259.428L653.713 252.823C654.408 252.765 655.096 252.641 655.767 252.453L708.742 237.602C709.323 237.439 709.889 237.229 710.436 236.973L761.566 213.044L775.202 206.884C776.837 206.146 778.629 205.818 780.42 205.931L794.594 206.82C795.622 206.885 796.653 206.805 797.659 206.582L815.754 202.58L843.456 196.743C844.782 196.463 846.044 195.941 847.181 195.203L871.226 179.581C872.47 178.772 873.538 177.721 874.365 176.489L889.369 154.149C891.232 151.375 894.255 149.599 897.585 149.32L903.894 148.793C905.45 148.664 906.96 148.204 908.324 147.445L916.869 142.693C920.21 140.835 924.276 140.845 927.608 142.72L951.142 155.959C954.006 157.571 957.442 157.817 960.507 156.63L960.881 156.486C963.257 155.566 965.878 155.499 968.298 156.297L1004.92 168.373C1007.52 169.232 1009.71 171.032 1011.06 173.42L1013.55 177.842C1015.07 180.542 1017.66 182.475 1020.68 183.165L1024.74 184.093C1026.89 184.585 1029.14 184.417 1031.2 183.61L1064.31 170.632C1066.87 169.628 1069.72 169.62 1072.28 170.61L1080.99 173.97C1084.54 175.338 1088.54 174.777 1091.58 172.486L1104.34 162.855C1105.43 162.028 1106.36 161.002 1107.08 159.832L1115.34 146.379C1116.94 143.787 1119.67 142.107 1122.7 141.854C1125.73 141.601 1128.46 139.916 1130.06 137.319L1141.56 118.535C1142.63 116.78 1144.18 115.361 1146.02 114.441L1162.69 106.102C1163.51 105.69 1164.28 105.175 1164.98 104.57L1183.39 88.5778C1184.17 87.9044 1185.04 87.343 1185.97 86.9098L1207.54 76.8738C1209.17 76.1157 1210.59 74.9695 1211.68 73.5358L1222.17 59.6657C1222.5 59.2283 1222.8 58.7666 1223.06 58.2848L1232.76 40.4496C1233.2 39.6304 1233.75 38.8712 1234.39 38.1901L1240.94 31.1847C1242.8 29.1929 1245.34 27.9642 1248.06 27.7372L1260.14 26.7284C1260.7 26.6809 1261.28 26.6777 1261.85 26.719L1283.91 28.3165C1286.96 28.5369 1289.78 30.0132 1291.69 32.392L1303.75 47.3778L1322.49 71.4339C1322.89 71.9523 1323.34 72.4334 1323.83 72.8716L1343.52 90.4809L1361.61 106.784L1386.14 132.471C1387.88 134.289 1388.94 136.647 1389.15 139.152L1389.95 148.783C1390.06 150.134 1390.43 151.452 1391.02 152.672L1397.82 166.687C1399.53 170.209 1404.11 171.161 1407.09 168.612C1409 166.972 1411.73 166.708 1413.93 167.953L1420.05 171.432C1420.71 171.808 1421.41 172.113 1422.13 172.345L1441.7 178.607C1443.07 179.047 1444.52 179.212 1445.96 179.092L1446.63 179.037C1448.96 178.842 1451.17 177.909 1452.93 176.373L1455.28 174.325C1456.9 172.919 1458.07 171.067 1458.64 169.002L1459.77 164.92C1460.31 162.967 1462.01 161.557 1464.03 161.389C1464.64 161.337 1465.26 161.404 1465.84 161.584Z"
                fill="url(#paint0_linear)" shape-rendering="crispEdges" />
        </g>
        <path
            d="M1281.57 9.5L1279.5 4C1276.88 4.65453 1274.14 4.5907 1271.55 3.81523L1270.5 3.5L1266.5 2V9L1270.04 8.35633C1271.29 8.12913 1272.58 8.43312 1273.6 9.19516C1275.12 10.3344 1277.07 10.7114 1278.91 10.2175L1281.57 9.5Z"
            fill="white" />
        <path
            d="M1266.5 26.5V9V26.5ZM1266.5 9V2L1270.5 3.5L1271.55 3.81523C1274.14 4.5907 1276.88 4.65453 1279.5 4L1281.57 9.5L1278.91 10.2175C1277.07 10.7114 1275.12 10.3344 1273.6 9.19516C1272.58 8.43312 1271.29 8.12913 1270.04 8.35633L1266.5 9Z"
            stroke="white" stroke-width="1.77281" />
    </g>
    <defs>
        <filter id="filter0_d" x="-4.82538" y="26.6902" width="1482.09" height="513.31" filterUnits="userSpaceOnUse"
            color-interpolation-filters="sRGB">
            <feFlood flood-opacity="0" result="BackgroundImageFix" />
            <feColorMatrix in="SourceAlpha" type="matrix" values="0 0 0 0 0 0 0 0 0 0 0 0 0 0 0 0 0 0 127 0"
                result="hardAlpha" />
            <feOffset dy="4" />
            <feGaussianBlur stdDeviation="2" />
            <feComposite in2="hardAlpha" operator="out" />
            <feColorMatrix type="matrix" values="0 0 0 0 0 0 0 0 0 0 0 0 0 0 0 0 0 0 0.25 0" />
            <feBlend mode="normal" in2="BackgroundImageFix" result="effect1_dropShadow" />
            <feBlend mode="normal" in="SourceGraphic" in2="effect1_dropShadow" result="shape" />
        </filter>
        <linearGradient id="paint0_linear" x1="736.217" y1="279" x2="736.217" y2="392.5" gradientUnits="userSpaceOnUse">
            <stop stop-color="#0A0A0B" />
            <stop offset="1" stop-color="#0A0A0B" stop-opacity="0" />
        </linearGradient>
        <clipPath id="clip0">
            <rect width="1440" height="391" fill="white" />
        </clipPath>
    </defs>
</svg>