<svg width="460" height="391" viewBox="0 0 460 391" fill="none" xmlns="http://www.w3.org/2000/svg">
<g clip-path="url(#clip0)">
<path d="M493.26 163.856L485.84 161.584C485.26 161.404 484.64 161.337 484.03 161.389C482.01 161.557 480.31 162.967 479.77 164.92L478.64 169.002C478.07 171.067 476.9 172.919 475.28 174.325L472.93 176.373C471.17 177.909 468.96 178.842 466.63 179.037L465.96 179.092C464.52 179.212 463.07 179.047 461.7 178.607L442.13 172.345C441.41 172.113 440.71 171.808 440.05 171.432L433.92 167.953C431.73 166.708 429 166.972 427.09 168.612C424.11 171.161 419.53 170.209 417.82 166.687L411.02 152.672C410.43 151.453 410.06 150.134 409.95 148.783L409.15 139.152C408.94 136.647 407.88 134.289 406.14 132.471L381.61 106.784L363.52 90.4809L343.83 72.8716C343.34 72.4334 342.89 71.9523 342.49 71.4339L323.75 47.3778L311.69 32.392C309.78 30.0132 306.96 28.5369 303.91 28.3165L281.85 26.719C281.28 26.6777 280.7 26.6809 280.14 26.7284L268.06 27.7372C265.34 27.9642 262.8 29.1929 260.94 31.1847L254.39 38.1901C253.75 38.8712 253.2 39.6304 252.76 40.4496L243.06 58.2848C242.8 58.7666 242.5 59.2283 242.17 59.6657L231.68 73.5358C230.59 74.9695 229.17 76.1157 227.54 76.8738L205.97 86.9098C205.04 87.343 204.17 87.9044 203.39 88.5778L184.98 104.57C184.28 105.175 183.51 105.69 182.69 106.102L166.02 114.441C164.18 115.361 162.63 116.78 161.56 118.535L150.06 137.319C148.46 139.916 145.73 141.601 142.7 141.854C139.67 142.107 136.94 143.787 135.34 146.379L127.08 159.832C126.36 161.002 125.43 162.028 124.34 162.855L111.58 172.486C108.54 174.777 104.54 175.338 100.99 173.97L92.2799 170.61C89.7199 169.62 86.8699 169.628 84.3099 170.632L51.1998 183.61C49.1398 184.417 46.8899 184.585 44.7399 184.093L40.6799 183.165C37.6599 182.475 35.0699 180.542 33.5499 177.842L31.0599 173.42C29.7099 171.032 27.5199 169.232 24.9199 168.373L-11.7021 156.297C-14.1221 155.499 -16.7431 155.566 -19.1191 156.486L-19.493 156.63C-22.558 157.817 -25.994 157.571 -28.858 155.959L-52.3921 142.72C-55.7241 140.845 -59.79 140.835 -63.131 142.693L-71.6761 147.445C-73.0401 148.204 -74.5501 148.664 -76.1061 148.793L-82.415 149.32C-85.745 149.599 -88.768 151.375 -90.631 154.149L-105.635 176.489C-106.462 177.721 -107.53 178.772 -108.774 179.581L-132.819 195.203C-133.956 195.942 -135.218 196.463 -136.544 196.743L-164.246 202.58L-182.341 206.582C-183.347 206.805 -184.378 206.885 -185.406 206.82L-199.58 205.931C-201.371 205.818 -203.163 206.146 -204.798 206.884L-218.434 213.044L-269.564 236.973C-270.111 237.229 -270.677 237.439 -271.258 237.602L-324.233 252.453C-324.904 252.641 -325.592 252.765 -326.287 252.823L-405.364 259.428C-406.621 259.533 -407.886 259.421 -409.105 259.097L-434.156 252.441C-436.749 251.752 -439.503 252.035 -441.902 253.235L-462.193 263.385C-463.445 264.011 -464.804 264.393 -466.199 264.509L-545.037 271.094L-591.123 274.943C-593.566 275.147 -596.007 274.53 -598.058 273.188L-617.879 260.228C-621.3 257.991 -625.68 257.836 -629.251 259.825L-641.149 266.451C-643.685 267.864 -646.676 268.217 -649.47 267.433L-671.39 261.289C-672.652 260.935 -673.968 260.81 -675.274 260.919L-683.849 261.635C-685.719 261.792 -687.598 261.467 -689.307 260.692L-708.758 251.871C-710.123 251.252 -711.6 250.919 -713.099 250.891L-733.526 250.516C-735.984 250.471 -738.386 251.25 -740.348 252.73L-756.893 265.198C-759.31 267.02 -762.372 267.765 -765.356 267.258L-797.45 261.803C-798.486 261.627 -799.492 261.303 -800.436 260.842L-830.143 246.326C-830.774 246.018 -831.433 245.771 -832.11 245.588L-848.157 241.264C-850.002 240.767 -851.945 240.759 -853.794 241.241L-887.334 249.983C-889.46 250.537 -891.372 251.715 -892.822 253.366L-917.217 281.128L-942.065 303.224C-942.915 303.979 -943.876 304.598 -944.914 305.059L-980.825 320.989" stroke="white" stroke-width="7"/>
<g filter="url(#filter0_d)">
<path d="M485.84 161.584L486.67 161.837C490.59 163.037 493.26 166.654 493.26 170.751V521C493.26 527.075 488.34 532 482.26 532H-969.826C-975.901 532 -980.826 527.075 -980.825 521L-980.825 328.143C-980.825 323.793 -978.262 319.852 -974.286 318.088L-944.914 305.059C-943.876 304.598 -942.915 303.979 -942.065 303.224L-917.217 281.128L-892.822 253.366C-891.372 251.715 -889.46 250.537 -887.334 249.983L-853.794 241.241C-851.945 240.759 -850.002 240.767 -848.157 241.264L-832.11 245.588C-831.433 245.771 -830.774 246.018 -830.143 246.326L-800.436 260.842C-799.492 261.303 -798.486 261.627 -797.45 261.803L-765.356 267.258C-762.372 267.765 -759.31 267.02 -756.893 265.198L-740.348 252.73C-738.386 251.25 -735.984 250.471 -733.526 250.516L-713.099 250.891C-711.6 250.919 -710.123 251.252 -708.758 251.871L-689.307 260.692C-687.598 261.467 -685.719 261.792 -683.849 261.635L-675.274 260.919C-673.968 260.81 -672.652 260.935 -671.39 261.289L-649.47 267.433C-646.676 268.217 -643.685 267.864 -641.149 266.451L-629.251 259.825C-625.68 257.836 -621.3 257.991 -617.879 260.228L-598.058 273.188C-596.007 274.53 -593.566 275.147 -591.123 274.943L-545.037 271.094L-466.199 264.509C-464.804 264.393 -463.445 264.011 -462.193 263.385L-441.902 253.235C-439.503 252.035 -436.749 251.752 -434.156 252.441L-409.105 259.097C-407.886 259.421 -406.621 259.533 -405.364 259.428L-326.287 252.823C-325.592 252.765 -324.904 252.641 -324.233 252.453L-271.258 237.602C-270.677 237.439 -270.111 237.229 -269.564 236.973L-218.434 213.044L-204.798 206.884C-203.163 206.146 -201.371 205.818 -199.58 205.931L-185.406 206.82C-184.378 206.885 -183.347 206.805 -182.341 206.582L-164.246 202.58L-136.544 196.743C-135.218 196.463 -133.956 195.941 -132.819 195.203L-108.774 179.581C-107.53 178.772 -106.462 177.721 -105.635 176.489L-90.631 154.149C-88.768 151.375 -85.745 149.599 -82.415 149.32L-76.1061 148.793C-74.5501 148.664 -73.0401 148.204 -71.6761 147.445L-63.131 142.693C-59.79 140.835 -55.7241 140.845 -52.3921 142.72L-28.858 155.959C-25.994 157.571 -22.558 157.817 -19.493 156.63L-19.1191 156.486C-16.7431 155.566 -14.1221 155.499 -11.7021 156.297L24.9199 168.373C27.5199 169.232 29.7099 171.032 31.0599 173.42L33.5499 177.842C35.0699 180.542 37.6599 182.475 40.6799 183.165L44.7399 184.093C46.8899 184.585 49.1398 184.417 51.1998 183.61L84.3099 170.632C86.8699 169.628 89.7199 169.62 92.2799 170.61L100.99 173.97C104.54 175.338 108.54 174.777 111.58 172.486L124.34 162.855C125.43 162.028 126.36 161.002 127.08 159.832L135.34 146.379C136.94 143.787 139.67 142.107 142.7 141.854C145.73 141.601 148.46 139.916 150.06 137.319L161.56 118.535C162.63 116.78 164.18 115.361 166.02 114.441L182.69 106.102C183.51 105.69 184.28 105.175 184.98 104.57L203.39 88.5778C204.17 87.9044 205.04 87.343 205.97 86.9098L227.54 76.8738C229.17 76.1157 230.59 74.9695 231.68 73.5358L242.17 59.6657C242.5 59.2283 242.8 58.7666 243.06 58.2848L252.76 40.4496C253.2 39.6304 253.75 38.8712 254.39 38.1901L260.94 31.1847C262.8 29.1929 265.34 27.9642 268.06 27.7372L280.14 26.7284C280.7 26.6809 281.28 26.6777 281.85 26.719L303.91 28.3165C306.96 28.5369 309.78 30.0132 311.69 32.392L323.75 47.3778L342.49 71.4339C342.89 71.9523 343.34 72.4334 343.83 72.8716L363.52 90.4809L381.61 106.784L406.14 132.471C407.88 134.289 408.94 136.647 409.15 139.152L409.95 148.783C410.06 150.134 410.43 151.452 411.02 152.672L417.82 166.687C419.53 170.209 424.11 171.161 427.09 168.612C429 166.972 431.73 166.708 433.93 167.953L440.05 171.432C440.71 171.808 441.41 172.113 442.13 172.345L461.7 178.607C463.07 179.047 464.52 179.212 465.96 179.092L466.63 179.037C468.96 178.842 471.17 177.909 472.93 176.373L475.28 174.325C476.9 172.919 478.07 171.067 478.64 169.002L479.77 164.92C480.31 162.967 482.01 161.557 484.03 161.389C484.64 161.337 485.26 161.404 485.84 161.584Z" fill="url(#paint0_linear)" shape-rendering="crispEdges"/>
</g>
<path d="M301.57 9.5L299.5 4C296.88 4.65453 294.14 4.5907 291.55 3.81523L290.5 3.5L286.5 2V9L290.04 8.35633C291.29 8.12913 292.58 8.43312 293.6 9.19516C295.12 10.3344 297.07 10.7114 298.91 10.2175L301.57 9.5Z" fill="white"/>
<path d="M286.5 26.5V9V26.5ZM286.5 9V2L290.5 3.5L291.55 3.81523C294.14 4.5907 296.88 4.65453 299.5 4L301.57 9.5L298.91 10.2175C297.07 10.7114 295.12 10.3344 293.6 9.19516C292.58 8.43312 291.29 8.12913 290.04 8.35633L286.5 9Z" stroke="white" stroke-width="1.77281"/>
</g>
<defs>
<filter id="filter0_d" x="-984.825" y="26.6902" width="1482.09" height="513.31" filterUnits="userSpaceOnUse" color-interpolation-filters="sRGB">
<feFlood flood-opacity="0" result="BackgroundImageFix"/>
<feColorMatrix in="SourceAlpha" type="matrix" values="0 0 0 0 0 0 0 0 0 0 0 0 0 0 0 0 0 0 127 0" result="hardAlpha"/>
<feOffset dy="4"/>
<feGaussianBlur stdDeviation="2"/>
<feComposite in2="hardAlpha" operator="out"/>
<feColorMatrix type="matrix" values="0 0 0 0 0 0 0 0 0 0 0 0 0 0 0 0 0 0 0.25 0"/>
<feBlend mode="normal" in2="BackgroundImageFix" result="effect1_dropShadow"/>
<feBlend mode="normal" in="SourceGraphic" in2="effect1_dropShadow" result="shape"/>
</filter>
<linearGradient id="paint0_linear" x1="-243.783" y1="279" x2="-243.783" y2="392.5" gradientUnits="userSpaceOnUse">
<stop stop-color="#0A0A0B"/>
<stop offset="1" stop-color="#0A0A0B" stop-opacity="0"/>
</linearGradient>
<clipPath id="clip0">
<rect width="460" height="391" fill="white"/>
</clipPath>
</defs>
</svg>
