<svg width="990" height="391" viewBox="0 0 990 391" fill="none" xmlns="http://www.w3.org/2000/svg">
<g clip-path="url(#clip0)">
<path d="M1023.26 163.856L1015.84 161.584C1015.26 161.404 1014.64 161.337 1014.03 161.389C1012.01 161.557 1010.31 162.967 1009.77 164.92L1008.64 169.002C1008.07 171.067 1006.9 172.919 1005.28 174.325L1002.93 176.373C1001.17 177.909 998.96 178.842 996.63 179.037L995.96 179.092C994.52 179.212 993.07 179.047 991.7 178.607L972.13 172.345C971.41 172.113 970.71 171.808 970.05 171.432L963.92 167.953C961.73 166.708 959 166.972 957.09 168.612C954.11 171.161 949.53 170.209 947.82 166.687L941.02 152.672C940.43 151.453 940.06 150.134 939.95 148.783L939.15 139.152C938.94 136.647 937.88 134.289 936.14 132.471L911.61 106.784L893.52 90.4809L873.83 72.8716C873.34 72.4334 872.89 71.9523 872.49 71.4339L853.75 47.3778L841.69 32.392C839.78 30.0132 836.96 28.5369 833.91 28.3165L811.85 26.719C811.28 26.6777 810.7 26.6809 810.14 26.7284L798.06 27.7372C795.34 27.9642 792.8 29.1929 790.94 31.1847L784.39 38.1901C783.75 38.8712 783.2 39.6304 782.76 40.4496L773.06 58.2848C772.8 58.7666 772.5 59.2283 772.17 59.6657L761.68 73.5358C760.59 74.9695 759.17 76.1157 757.54 76.8738L735.97 86.9098C735.04 87.343 734.17 87.9044 733.39 88.5778L714.98 104.57C714.28 105.175 713.51 105.69 712.69 106.102L696.02 114.441C694.18 115.361 692.63 116.78 691.56 118.535L680.06 137.319C678.46 139.916 675.73 141.601 672.7 141.854C669.67 142.107 666.94 143.787 665.34 146.379L657.08 159.832C656.36 161.002 655.43 162.028 654.34 162.855L641.58 172.486C638.54 174.777 634.54 175.338 630.99 173.97L622.28 170.61C619.72 169.62 616.87 169.628 614.31 170.632L581.2 183.61C579.14 184.417 576.89 184.585 574.74 184.093L570.68 183.165C567.66 182.475 565.07 180.542 563.55 177.842L561.06 173.42C559.71 171.032 557.52 169.232 554.92 168.373L518.298 156.297C515.878 155.499 513.257 155.566 510.881 156.486L510.507 156.63C507.442 157.817 504.006 157.571 501.142 155.959L477.608 142.72C474.276 140.845 470.21 140.835 466.869 142.693L458.324 147.445C456.96 148.204 455.45 148.664 453.894 148.793L447.585 149.32C444.255 149.599 441.232 151.375 439.369 154.149L424.365 176.489C423.538 177.721 422.47 178.772 421.226 179.581L397.181 195.203C396.044 195.942 394.782 196.463 393.456 196.743L365.754 202.58L347.659 206.582C346.653 206.805 345.622 206.885 344.594 206.82L330.42 205.931C328.629 205.818 326.837 206.146 325.202 206.884L311.566 213.044L260.436 236.973C259.889 237.229 259.323 237.439 258.742 237.602L205.767 252.453C205.096 252.641 204.408 252.765 203.713 252.823L124.636 259.428C123.379 259.533 122.114 259.421 120.895 259.097L95.8439 252.441C93.2509 251.752 90.497 252.035 88.098 253.235L67.8069 263.385C66.5549 264.011 65.196 264.393 63.801 264.509L-15.037 271.094L-61.123 274.943C-63.566 275.147 -66.0071 274.53 -68.0581 273.188L-87.8791 260.228C-91.3001 257.991 -95.6801 257.836 -99.2511 259.825L-111.149 266.451C-113.685 267.864 -116.676 268.217 -119.47 267.433L-141.39 261.289C-142.652 260.935 -143.968 260.81 -145.274 260.919L-153.849 261.635C-155.719 261.792 -157.598 261.467 -159.307 260.692L-178.758 251.871C-180.123 251.252 -181.6 250.919 -183.099 250.891L-203.526 250.516C-205.984 250.471 -208.386 251.25 -210.348 252.73L-226.893 265.198C-229.31 267.02 -232.372 267.765 -235.356 267.258L-267.45 261.803C-268.486 261.627 -269.492 261.303 -270.436 260.842L-300.143 246.326C-300.774 246.018 -301.433 245.771 -302.11 245.588L-318.157 241.264C-320.002 240.767 -321.945 240.759 -323.794 241.241L-357.334 249.983C-359.46 250.537 -361.372 251.715 -362.822 253.366L-387.217 281.128L-412.065 303.224C-412.915 303.979 -413.876 304.598 -414.914 305.059L-450.825 320.989" stroke="white" stroke-width="7"/>
<g filter="url(#filter0_d)">
<path d="M1015.84 161.584L1016.67 161.837C1020.59 163.037 1023.26 166.654 1023.26 170.751V521C1023.26 527.075 1018.34 532 1012.26 532H-439.826C-445.901 532 -450.826 527.075 -450.825 521L-450.825 328.143C-450.825 323.793 -448.262 319.852 -444.286 318.088L-414.914 305.059C-413.876 304.598 -412.915 303.979 -412.065 303.224L-387.217 281.128L-362.822 253.366C-361.372 251.715 -359.46 250.537 -357.334 249.983L-323.794 241.241C-321.945 240.759 -320.002 240.767 -318.157 241.264L-302.11 245.588C-301.433 245.771 -300.774 246.018 -300.143 246.326L-270.436 260.842C-269.492 261.303 -268.486 261.627 -267.45 261.803L-235.356 267.258C-232.372 267.765 -229.31 267.02 -226.893 265.198L-210.348 252.73C-208.386 251.25 -205.984 250.471 -203.526 250.516L-183.099 250.891C-181.6 250.919 -180.123 251.252 -178.758 251.871L-159.307 260.692C-157.598 261.467 -155.719 261.792 -153.849 261.635L-145.274 260.919C-143.968 260.81 -142.652 260.935 -141.39 261.289L-119.47 267.433C-116.676 268.217 -113.685 267.864 -111.149 266.451L-99.2511 259.825C-95.6801 257.836 -91.3001 257.991 -87.8791 260.228L-68.0581 273.188C-66.0071 274.53 -63.566 275.147 -61.123 274.943L-15.037 271.094L63.801 264.509C65.196 264.393 66.5549 264.011 67.8069 263.385L88.098 253.235C90.497 252.035 93.2509 251.752 95.8439 252.441L120.895 259.097C122.114 259.421 123.379 259.533 124.636 259.428L203.713 252.823C204.408 252.765 205.096 252.641 205.767 252.453L258.742 237.602C259.323 237.439 259.889 237.229 260.436 236.973L311.566 213.044L325.202 206.884C326.837 206.146 328.629 205.818 330.42 205.931L344.594 206.82C345.622 206.885 346.653 206.805 347.659 206.582L365.754 202.58L393.456 196.743C394.782 196.463 396.044 195.941 397.181 195.203L421.226 179.581C422.47 178.772 423.538 177.721 424.365 176.489L439.369 154.149C441.232 151.375 444.255 149.599 447.585 149.32L453.894 148.793C455.45 148.664 456.96 148.204 458.324 147.445L466.869 142.693C470.21 140.835 474.276 140.845 477.608 142.72L501.142 155.959C504.006 157.571 507.442 157.817 510.507 156.63L510.881 156.486C513.257 155.566 515.878 155.499 518.298 156.297L554.92 168.373C557.52 169.232 559.71 171.032 561.06 173.42L563.55 177.842C565.07 180.542 567.66 182.475 570.68 183.165L574.74 184.093C576.89 184.585 579.14 184.417 581.2 183.61L614.31 170.632C616.87 169.628 619.72 169.62 622.28 170.61L630.99 173.97C634.54 175.338 638.54 174.777 641.58 172.486L654.34 162.855C655.43 162.028 656.36 161.002 657.08 159.832L665.34 146.379C666.94 143.787 669.67 142.107 672.7 141.854C675.73 141.601 678.46 139.916 680.06 137.319L691.56 118.535C692.63 116.78 694.18 115.361 696.02 114.441L712.69 106.102C713.51 105.69 714.28 105.175 714.98 104.57L733.39 88.5778C734.17 87.9044 735.04 87.343 735.97 86.9098L757.54 76.8738C759.17 76.1157 760.59 74.9695 761.68 73.5358L772.17 59.6657C772.5 59.2283 772.8 58.7666 773.06 58.2848L782.76 40.4496C783.2 39.6304 783.75 38.8712 784.39 38.1901L790.94 31.1847C792.8 29.1929 795.34 27.9642 798.06 27.7372L810.14 26.7284C810.7 26.6809 811.28 26.6777 811.85 26.719L833.91 28.3165C836.96 28.5369 839.78 30.0132 841.69 32.392L853.75 47.3778L872.49 71.4339C872.89 71.9523 873.34 72.4334 873.83 72.8716L893.52 90.4809L911.61 106.784L936.14 132.471C937.88 134.289 938.94 136.647 939.15 139.152L939.95 148.783C940.06 150.134 940.43 151.452 941.02 152.672L947.82 166.687C949.53 170.209 954.11 171.161 957.09 168.612C959 166.972 961.73 166.708 963.93 167.953L970.05 171.432C970.71 171.808 971.41 172.113 972.13 172.345L991.7 178.607C993.07 179.047 994.52 179.212 995.96 179.092L996.63 179.037C998.96 178.842 1001.17 177.909 1002.93 176.373L1005.28 174.325C1006.9 172.919 1008.07 171.067 1008.64 169.002L1009.77 164.92C1010.31 162.967 1012.01 161.557 1014.03 161.389C1014.64 161.337 1015.26 161.404 1015.84 161.584Z" fill="url(#paint0_linear)" shape-rendering="crispEdges"/>
</g>
<path d="M831.57 9.5L829.5 4C826.88 4.65453 824.14 4.5907 821.55 3.81523L820.5 3.5L816.5 2V9L820.04 8.35633C821.29 8.12913 822.58 8.43312 823.6 9.19516C825.12 10.3344 827.07 10.7114 828.91 10.2175L831.57 9.5Z" fill="white"/>
<path d="M816.5 26.5V9V26.5ZM816.5 9V2L820.5 3.5L821.55 3.81523C824.14 4.5907 826.88 4.65453 829.5 4L831.57 9.5L828.91 10.2175C827.07 10.7114 825.12 10.3344 823.6 9.19516C822.58 8.43312 821.29 8.12913 820.04 8.35633L816.5 9Z" stroke="white" stroke-width="1.77281"/>
</g>
<defs>
<filter id="filter0_d" x="-454.825" y="26.6902" width="1482.09" height="513.31" filterUnits="userSpaceOnUse" color-interpolation-filters="sRGB">
<feFlood flood-opacity="0" result="BackgroundImageFix"/>
<feColorMatrix in="SourceAlpha" type="matrix" values="0 0 0 0 0 0 0 0 0 0 0 0 0 0 0 0 0 0 127 0" result="hardAlpha"/>
<feOffset dy="4"/>
<feGaussianBlur stdDeviation="2"/>
<feComposite in2="hardAlpha" operator="out"/>
<feColorMatrix type="matrix" values="0 0 0 0 0 0 0 0 0 0 0 0 0 0 0 0 0 0 0.25 0"/>
<feBlend mode="normal" in2="BackgroundImageFix" result="effect1_dropShadow"/>
<feBlend mode="normal" in="SourceGraphic" in2="effect1_dropShadow" result="shape"/>
</filter>
<linearGradient id="paint0_linear" x1="286.217" y1="279" x2="286.217" y2="392.5" gradientUnits="userSpaceOnUse">
<stop stop-color="#0A0A0B"/>
<stop offset="1" stop-color="#0A0A0B" stop-opacity="0"/>
</linearGradient>
<clipPath id="clip0">
<rect width="990" height="391" fill="white"/>
</clipPath>
</defs>
</svg>
