<svg width="1440" height="584" viewBox="0 0 1440 584" fill="none" xmlns="http://www.w3.org/2000/svg">
<g clip-path="url(#clip0)">
<path d="M-733 165.276L-731.71 166.013C-726.809 168.813 -720.971 169.469 -715.571 167.826L-698.662 162.68C-696.213 161.934 -693.562 162.835 -692.074 164.918V164.918C-689.992 167.832 -685.831 168.268 -683.191 165.848L-677.842 160.945C-674.921 158.267 -670.494 158.088 -667.366 160.521L-666.085 161.517C-663.38 163.621 -659.498 163.23 -657.268 160.627L-656.55 159.79C-654.847 157.802 -651.927 157.4 -649.748 158.852V158.852C-647.547 160.319 -644.594 159.891 -642.9 157.859L-642.299 157.138C-640.606 155.106 -637.813 154.367 -635.336 155.296L-630.652 157.052C-629.702 157.409 -628.796 157.873 -627.951 158.436L-625.716 159.926C-620.633 163.314 -614.305 164.26 -608.454 162.505L-607.487 162.214C-605.756 161.695 -604.102 160.949 -602.566 159.997L-572.909 141.589C-569.526 139.489 -566.828 136.449 -565.144 132.84L-542.237 83.7557C-541.298 81.7427 -540.038 79.8957 -538.506 78.2871L-480.582 17.4668C-471.864 8.313 -457.019 9.15412 -449.391 19.2341L-432.666 41.3349C-430.379 44.3566 -425.824 44.3133 -423.596 41.2487V41.2487C-421.034 37.7269 -415.619 38.3067 -413.861 42.2908L-400.349 72.9191C-399.199 75.526 -398.605 78.3441 -398.605 81.1934V113.808C-398.605 118.896 -396.712 123.803 -393.295 127.574L-372.995 149.974C-366.713 156.906 -355.908 157.172 -349.293 150.556V150.556C-344.311 145.574 -336.7 144.339 -330.399 147.49L-317.875 153.752C-310.186 157.596 -300.917 156.236 -294.657 150.344L-274.36 131.241C-266.976 124.291 -255.62 123.785 -247.646 130.05L-236.023 139.182C-229.701 144.15 -221.059 144.963 -213.922 141.262L-166.912 116.886C-160.687 113.658 -153.088 114.834 -148.129 119.793V119.793C-143.17 124.752 -135.571 125.927 -129.346 122.699L-84.6863 99.5427C-76.3999 95.2461 -66.2572 97.0898 -60.0131 104.028L-39.2681 127.078C-37.1413 129.441 -34.4376 131.212 -31.4214 132.217V132.217C-24.8192 134.418 -17.5402 132.699 -12.6192 127.778L45.2747 69.8845C52.3389 62.8203 63.4666 61.8772 71.6189 67.6518L74.6104 69.7707C82.5527 75.3965 93.3559 74.662 100.464 68.0129L110.693 58.4435C119.809 49.9155 134.367 51.4464 141.509 61.6842L154.053 79.6641C160.77 89.2916 174.184 91.323 183.451 84.1159L193.862 76.0184C197.984 72.8125 203.817 73.0487 207.666 76.5772V76.5772C212.331 80.8528 219.666 80.1711 223.463 75.109L248.875 41.2259C252.42 36.4994 258.591 34.5716 264.196 36.4399V36.4399C267.998 37.707 272.163 37.2497 275.599 35.1882L290.091 26.493C293.807 24.263 298.135 23.2685 302.452 23.6522L348.532 27.7482C351.719 28.0315 354.904 27.1894 357.535 25.3683L361.145 22.8688C365.931 19.5554 372.535 21.1411 375.294 26.2663V26.2663C377.5 30.3627 382.291 32.3328 386.74 30.9732L419.77 20.8809C423.33 19.7929 427.12 19.6952 430.732 20.5982L445.247 24.2271C448.902 25.1408 452.738 25.0297 456.334 23.906L461.223 22.3779C467.566 20.3959 474.476 21.6112 479.761 25.6383L490.625 33.9156C495.338 37.5065 501.608 38.3143 507.077 36.0354V36.0354C511.254 34.2952 515.959 34.3344 520.106 36.144L579.456 62.042C582.494 63.3678 585.808 63.937 589.115 63.7008L650.497 59.3164C653.993 59.0667 657.495 59.7175 660.668 61.2069L706.334 82.6419C713.776 86.1353 722.586 84.8442 728.713 79.3621L736.649 72.2612C740.685 68.6499 745.987 66.7826 751.395 67.0672L759.725 67.5056C764.609 67.7627 769.425 66.265 773.301 63.2829L793.392 47.8281C797.985 44.2955 803.858 42.8712 809.558 43.9077L835.232 48.5756C840.159 49.4715 845.244 48.5152 849.51 45.8903L852.705 43.9242C856.932 41.3226 862.229 41.184 866.587 43.561V43.561C870.945 45.9381 876.242 45.7995 880.47 43.1979L886.85 39.2717C888.913 38.002 891.552 38.1646 893.443 39.678V39.678C895.383 41.2298 898.101 41.3576 900.178 39.9947L928.704 21.2745C933.845 17.9009 940.691 18.8707 944.693 23.5392L954.839 35.377C957.264 38.2062 961.88 37.0336 962.661 33.3901V33.3901C963.448 29.7183 968.119 28.5661 970.523 31.4509L978.016 40.4429C981.07 44.1076 986.669 44.1969 989.838 40.6315V40.6315C992.3 37.8623 996.37 37.2068 999.576 39.0632L1017.01 49.156C1017.94 49.6959 1018.92 50.1614 1019.92 50.5482L1026.32 53.011C1031.88 55.1462 1038.08 54.7648 1043.33 51.9657L1052.48 47.0841C1053.68 46.4452 1054.94 45.927 1056.24 45.5369L1058.77 44.7783C1063.96 43.2213 1069.58 44.412 1073.7 47.9383V47.9383C1075.26 49.2781 1077.07 50.3019 1079.02 50.9529L1084.44 52.7587C1086.53 53.4555 1088.72 53.8107 1090.92 53.8107H1113.22H1119.13C1123.61 53.8107 1127.96 52.343 1131.53 49.6322L1158.06 29.4678L1161.59 27.4539C1164.96 25.5262 1169.1 25.5262 1172.47 27.4539V27.4539C1174.75 28.7534 1176.48 30.8237 1177.36 33.2904L1181.76 45.5901C1182.19 46.7897 1182.83 47.9005 1183.66 48.8676V48.8676C1187.27 53.0755 1193.53 53.725 1197.93 50.3459L1241.86 16.5495C1250.27 10.0807 1262.23 11.0974 1269.42 18.8934L1272.09 21.7805L1295.16 44.851C1296.85 46.5404 1298.82 47.9215 1300.99 48.9319L1316.93 56.3731L1321.56 58.3546C1329.54 61.7746 1338.8 59.7967 1344.69 53.4171L1348.27 49.541C1349.58 48.1239 1350.68 46.5292 1351.54 44.8043L1355.68 36.5317C1357.73 32.4243 1362.4 30.3375 1366.83 31.5458V31.5458C1370.72 32.6068 1374.86 31.1325 1377.21 27.851L1383.85 18.5453C1385.32 16.4845 1387.41 14.9431 1389.81 14.1423V14.1423C1394.53 12.5699 1399.73 14.0739 1402.88 17.9221L1409.18 25.6241L1438.06 60.2802C1440.13 62.765 1442.76 64.7246 1445.73 65.9987L1461.82 72.8938C1465.71 74.5627 1470.2 74.0246 1473.59 71.4826V71.4826C1478.99 67.4366 1486.67 68.7045 1490.47 74.2698L1492.09 76.631C1496.57 83.1744 1505.45 84.9423 1512.09 80.6113L1529.61 69.1852L1552.99 49.3124C1554.47 48.0551 1556.2 47.1288 1558.07 46.5954V46.5954C1561.96 45.4846 1566.14 46.1595 1569.48 48.4373L1592.39 64.0604L1597.61 68.535C1604.88 74.7657 1615.65 74.6214 1622.75 68.1981V68.1981C1630.68 61.0173 1642.98 61.7976 1649.95 69.9239L1658.98 80.4655C1659.86 81.4842 1660.83 82.4148 1661.88 83.2437L1672.66 91.7102C1676.27 94.548 1680.73 96.0905 1685.32 96.0905H1689.85C1693.97 96.0905 1697.99 94.8492 1701.39 92.5283L1722.9 77.868C1723.87 77.2058 1724.77 76.454 1725.61 75.6227L1726.06 75.1636C1732.98 68.2509 1744.12 68.0447 1751.28 74.6967V74.6967C1754.57 77.7473 1756.61 81.9046 1757.02 86.3695L1757.62 92.9701C1757.65 93.3401 1757.74 93.7034 1757.88 94.0484V94.0484C1758.95 96.7265 1762.48 97.3111 1764.35 95.1211L1783.81 72.4186C1791.75 63.1645 1805.95 62.8342 1814.31 71.7098L1816.67 74.2174C1818.32 75.9736 1820.27 77.4244 1822.43 78.503L1833.36 83.9677C1835.83 85.2037 1838.52 85.9271 1841.28 86.0943L1874.92 88.1329C1877.86 88.3111 1880.73 89.1208 1883.33 90.507L1898.6 98.653L1916.62 109.915C1924.2 114.652 1933.97 113.932 1940.78 108.136L1949.53 100.676C1957.67 93.745 1969.77 94.228 1977.32 101.785L1980.79 105.248C1983.18 107.647 1986.14 109.413 1989.39 110.388L1992.3 111.261C1995.55 112.236 1998.51 114.002 2000.91 116.401L2002.23 117.722C2005.64 121.129 2010.13 123.227 2014.93 123.648L2080.53 129.402H2097.21C2102.15 129.402 2106.93 127.615 2110.66 124.372L2133.12 104.837C2133.93 104.132 2134.8 103.492 2135.71 102.922L2145.69 96.6824C2151.42 93.1039 2158.54 92.5743 2164.73 95.2664L2181.01 102.342C2183.19 103.292 2185.53 103.854 2187.9 104.002L2215.34 105.717C2221.63 106.11 2227.75 103.588 2231.94 98.8769L2286.81 37.155V37.155C2289.66 34.2999 2294.27 34.2301 2297.21 36.9975L2312 50.9231C2313.14 51.9906 2314.15 53.1838 2315.01 54.4797L2330.73 78.0557C2331.34 78.9736 2331.88 79.9395 2332.33 80.9438L2337.78 92.9306C2337.96 93.3283 2338.18 93.7108 2338.42 94.0743L2339.27 95.3594C2341.39 98.5397 2345.75 99.2859 2348.81 96.9926V96.9926C2351.46 95.0047 2355.17 95.2683 2357.51 97.6111L2361.12 101.215L2397.07 134.688C2397.87 135.434 2398.61 136.242 2399.28 137.105L2403.36 142.346C2405.73 145.395 2409.64 146.805 2413.41 145.967V145.967C2416.75 145.225 2420.23 146.24 2422.65 148.656L2430.31 156.319C2431.16 157.164 2432.07 157.933 2433.05 158.618L2438.52 162.448C2442.27 165.068 2446.93 166.013 2451.4 165.055L2452.34 164.854C2458.37 163.562 2464.58 166.083 2468 171.213V171.213C2469.33 173.205 2471.11 174.851 2473.2 176.014L2478.38 178.887C2480.48 180.054 2482.76 180.842 2485.13 181.216L2500.62 183.662C2504.08 184.207 2507.34 185.629 2510.09 187.791L2519.23 194.977C2522.24 197.337 2525.84 198.812 2529.64 199.228C2537.54 200.094 2547.37 201.15 2548.17 201.15C2549.2 201.15 2569.95 213.107 2580.2 219.086L2616.05 238.865C2616.92 239.345 2617.82 239.761 2618.75 240.11L2633.66 245.701C2636.43 246.737 2639.38 247.164 2642.32 246.954L2686.26 243.815C2689.67 243.572 2692.78 241.765 2694.67 238.922V238.922C2698.46 233.235 2706.45 232.318 2711.44 236.997L2738.28 262.214C2742.08 265.785 2747.1 267.772 2752.32 267.772H2764.64C2768.85 267.772 2772.95 269.066 2776.4 271.478L2781.97 275.382C2783.26 276.285 2784.65 277.036 2786.11 277.621L2792.16 280.038C2795.16 281.239 2798.41 281.713 2801.63 281.42L2835.06 278.381C2837.67 278.144 2840.3 278.409 2842.8 279.161L2851.82 281.866" stroke="white" stroke-width="5.12483"/>
<path d="M-698.634 160.202L-722.069 167.226C-723.323 167.602 -724.676 167.452 -725.817 166.81C-729.03 165.002 -733 167.323 -733 171.01V563.501C-733 574.822 -723.822 584 -712.501 584H2831.32C2842.64 584 2851.82 574.822 2851.82 563.501V288.233C2851.82 281.92 2847.66 276.36 2841.61 274.571C2839.89 274.063 2838.09 273.885 2836.3 274.044L2801.56 277.155C2798.38 277.44 2795.18 276.979 2792.21 275.81L2786.1 273.402C2784.65 272.83 2783.26 272.093 2781.98 271.207L2776.36 267.33C2772.93 264.971 2768.88 263.708 2764.72 263.708H2752.22C2747.06 263.708 2742.09 261.761 2738.3 258.257L2711.38 233.351C2706.4 228.745 2698.49 229.655 2694.69 235.273C2692.78 238.09 2689.69 239.874 2686.29 240.113L2642.26 243.211C2639.36 243.415 2636.45 242.999 2633.72 241.992L2618.74 236.462C2617.82 236.121 2616.92 235.714 2616.06 235.244L2580.2 215.761C2569.95 209.873 2549.2 198.097 2548.17 198.097C2547.36 198.097 2537.49 197.052 2529.57 196.197C2525.82 195.792 2522.25 194.349 2519.26 192.037L2510.07 184.926C2507.33 182.806 2504.1 181.415 2500.67 180.882L2485.09 178.46C2482.75 178.095 2480.48 177.326 2478.4 176.187L2473.2 173.343C2471.11 172.197 2469.32 170.569 2467.98 168.593C2464.57 163.544 2458.43 161.067 2452.47 162.326L2451.39 162.553C2446.92 163.495 2442.27 162.562 2438.51 159.972L2433.06 156.213C2432.08 155.537 2431.16 154.777 2430.31 153.941L2422.67 146.424C2420.24 144.026 2416.76 143.02 2413.42 143.751C2409.64 144.578 2405.72 143.176 2403.32 140.14L2399.29 135.039C2398.61 134.179 2397.86 133.375 2397.06 132.634L2361.12 99.6792L2357.52 96.1367C2355.16 93.8169 2351.47 93.5551 2348.81 95.5192C2345.74 97.7886 2341.39 97.0439 2339.25 93.8809L2338.43 92.6579C2338.18 92.2923 2337.96 91.9073 2337.78 91.5065L2332.35 79.7462C2331.88 78.7366 2331.33 77.7665 2330.71 76.8457L2315.03 53.678C2314.15 52.3851 2313.13 51.1964 2311.99 50.135L2297.21 36.4337C2294.25 33.6979 2289.67 33.7673 2286.81 36.5911L2231.93 97.3939C2227.74 102.027 2221.68 104.503 2215.45 104.119L2187.85 102.421C2185.51 102.277 2183.2 101.73 2181.04 100.805L2164.61 93.767C2158.48 91.1447 2151.47 91.662 2145.79 95.1541L2135.71 101.361C2134.8 101.921 2133.93 102.552 2133.12 103.248L2110.63 122.509C2106.92 125.69 2102.19 127.438 2097.3 127.438H2080.53L2014.86 121.765C2010.1 121.354 2005.64 119.297 2002.24 115.947L2000.91 114.635C1998.51 112.271 1995.56 110.536 1992.33 109.581L1989.36 108.703C1986.13 107.749 1983.19 106.013 1980.79 103.65L1977.22 100.14C1969.69 92.7245 1957.76 92.2486 1949.66 99.0408L1940.68 106.579C1933.91 112.253 1924.28 112.959 1916.76 108.331L1898.6 97.1557L1883.29 89.1133C1880.71 87.761 1877.88 86.972 1874.98 86.7987L1841.23 84.7843C1838.5 84.6218 1835.84 83.9173 1833.39 82.7121L1822.42 77.3092C1820.27 76.2485 1818.32 74.8176 1816.66 73.0817L1814.19 70.5036C1805.86 61.782 1791.83 62.1086 1783.91 71.2086L1764.33 93.7091C1762.45 95.8664 1758.96 95.2841 1757.88 92.6344C1757.74 92.2858 1757.65 91.9183 1757.61 91.5436L1757.03 85.2363C1756.62 80.7276 1754.53 76.5361 1751.19 73.4805C1744.05 66.9479 1733.04 67.1516 1726.14 73.9441L1725.62 74.4611C1724.78 75.289 1723.86 76.0368 1722.88 76.6946L1701.35 91.1515C1697.97 93.4205 1694 94.6322 1689.93 94.6322H1685.24C1680.7 94.6322 1676.28 93.1244 1672.69 90.3454L1661.89 81.9865C1660.83 81.166 1659.85 80.2435 1658.97 79.2321L1649.97 68.8918C1642.96 60.8363 1630.72 60.0593 1622.75 67.1638C1615.62 73.5131 1604.91 73.6564 1597.62 67.5L1592.39 63.0881L1569.49 47.7085C1566.14 45.4582 1561.97 44.7916 1558.08 45.885C1556.21 46.4125 1554.46 47.3316 1552.97 48.5816L1529.61 68.1352L1512.02 79.4312C1505.39 83.6894 1496.58 81.9369 1492.09 75.4658L1490.51 73.1936C1486.67 67.6605 1479.01 66.3959 1473.59 70.3987C1470.2 72.9064 1465.73 73.4376 1461.84 71.7963L1445.72 64.993C1442.75 63.7407 1440.12 61.807 1438.04 59.3485L1409.18 25.2352L1402.9 17.6811C1399.73 13.864 1394.55 12.3729 1389.83 13.9207C1387.42 14.7141 1385.31 16.2496 1383.82 18.3086L1377.24 27.3843C1374.87 30.6493 1370.73 32.1148 1366.84 31.0686C1362.39 29.875 1357.72 31.9578 1355.64 36.0608L1351.57 44.0789C1350.69 45.8077 1349.57 47.4032 1348.24 48.8178L1344.64 52.6666C1338.77 58.9291 1329.62 60.8715 1321.71 57.5339L1316.93 55.5175L1300.98 48.1853C1298.82 47.1928 1296.85 45.8323 1295.15 44.1646L1272.09 21.45L1269.34 18.5138C1262.16 10.8589 1250.37 9.85708 1242 16.1926L1197.87 49.6222C1193.49 52.9409 1187.29 52.2988 1183.68 48.1533C1182.84 47.1829 1182.18 46.0649 1181.74 44.8556L1177.39 32.8638C1176.49 30.3841 1174.73 28.3092 1172.44 27.0156C1169.08 25.1268 1164.98 25.1268 1161.62 27.0156L1158.06 29.0205L1131.49 48.9062C1127.95 51.5599 1123.64 52.994 1119.21 52.994H1113.22H1090.87C1088.7 52.994 1086.54 52.6488 1084.48 51.9714L1079.02 50.1791C1077.07 49.5382 1075.26 48.5274 1073.69 47.2019C1069.57 43.7287 1063.99 42.5564 1058.82 44.082L1056.22 44.8513C1054.93 45.2318 1053.69 45.7379 1052.5 46.3623L1043.23 51.228C1038.04 53.956 1031.93 54.328 1026.44 52.2499L1019.91 49.7767C1018.91 49.3986 1017.94 48.9432 1017.02 48.4146L999.553 38.457C996.35 36.6306 992.307 37.2797 989.837 40.0169C986.651 43.5457 981.086 43.4567 978.016 39.828L970.49 30.9339C968.081 28.0875 963.454 29.2395 962.661 32.8829C961.875 36.4981 957.303 37.6702 954.874 34.8794L944.687 23.1749C940.674 18.5646 933.883 17.6046 928.749 20.9222L900.173 39.3908C898.093 40.735 895.389 40.6085 893.443 39.0759C891.547 37.5813 888.921 37.4204 886.856 38.6721L880.475 42.5394C876.236 45.1085 870.954 45.2456 866.587 42.8999C862.221 40.5542 856.939 40.6913 852.7 43.2604L849.504 45.1973C845.238 47.7825 840.176 48.7237 835.266 47.8446L809.441 43.2204C803.809 42.2118 798.011 43.6034 793.45 47.0588L773.259 62.3542C769.407 65.2728 764.647 66.7362 759.82 66.486L751.295 66.0442C745.946 65.7669 740.701 67.5944 736.682 71.1357L728.633 78.2278C722.54 83.597 713.851 84.8627 706.479 81.4549L660.612 60.2522C657.474 58.8017 654.02 58.1683 650.572 58.4108L589.043 62.7391C585.782 62.9684 582.514 62.4147 579.511 61.1241L520.105 35.5951C515.954 33.8111 511.259 33.7724 507.079 35.4877C501.598 37.7369 495.337 36.9365 490.598 33.3806L479.687 25.1937C474.44 21.2562 467.625 20.0683 461.354 21.998L456.258 23.5666C452.71 24.6585 448.932 24.7665 445.327 23.879L430.653 20.2661C427.091 19.3891 423.358 19.4841 419.845 20.5412L386.672 30.5236C382.251 31.8539 377.503 29.9072 375.288 25.8566C372.519 20.7923 365.986 19.2211 361.217 22.4725L357.536 24.9826C354.902 26.7779 351.729 27.6069 348.555 27.329L302.362 23.2854C298.101 22.9123 293.829 23.8818 290.146 26.0581L275.604 34.6507C272.16 36.6859 268.006 37.1374 264.205 35.8896C258.582 34.0437 252.406 35.9632 248.82 40.6718L223.483 73.9421C219.657 78.9663 212.353 79.646 207.666 75.4142C203.803 71.9273 198.002 71.6931 193.871 74.8574L183.3 82.9549C174.074 90.0216 160.825 88.0138 154.107 78.5311L141.445 60.658C134.3 50.5715 119.92 49.0561 110.829 57.4315L100.365 67.0711C93.291 73.5886 82.6365 74.3107 74.7474 68.8074L71.4782 66.5269C63.3787 60.8768 52.4022 61.8046 45.366 68.734L-12.5883 125.809C-17.5383 130.684 -24.7964 132.385 -31.3972 130.218C-34.4299 129.223 -37.1545 127.462 -39.3077 125.106L-60.0757 102.38C-66.3014 95.5679 -76.3117 93.7555 -84.5308 97.9525L-129.391 120.861C-135.607 124.035 -143.156 122.872 -148.129 117.975C-153.101 113.078 -160.651 111.915 -166.866 115.089L-214.06 139.188C-221.13 142.799 -229.649 142.002 -235.927 137.144L-247.776 127.975C-255.704 121.841 -266.905 122.339 -274.257 129.153L-294.736 148.135C-300.964 153.908 -310.108 155.243 -317.727 151.491L-330.442 145.23C-336.735 142.132 -344.299 143.353 -349.296 148.275C-355.941 154.818 -366.685 154.554 -373 147.692L-393.19 125.752C-396.672 121.968 -398.605 117.013 -398.605 111.871V80.0875C-398.605 77.199 -399.215 74.343 -400.396 71.7068L-413.85 41.6752C-415.626 37.7105 -421.016 37.1291 -423.596 40.6238C-425.839 43.6599 -430.364 43.7031 -432.664 40.7104L-449.471 18.8378C-457.098 8.91294 -471.76 8.08018 -480.462 17.0778L-538.474 77.0666C-540.027 78.6721 -541.307 80.5206 -542.263 82.5389L-565.107 130.746C-566.815 134.351 -569.537 137.378 -572.94 139.459L-602.58 157.577C-604.106 158.51 -605.748 159.239 -607.463 159.746L-608.577 160.075C-614.358 161.782 -620.597 160.86 -625.636 157.551L-627.943 156.036C-628.793 155.478 -629.704 155.019 -630.658 154.667L-635.362 152.929C-637.829 152.018 -640.603 152.748 -642.302 154.756L-642.887 155.447C-644.594 157.465 -647.539 157.891 -649.749 156.441C-651.935 155.005 -654.846 155.406 -656.563 157.379L-657.268 158.19C-659.508 160.763 -663.362 161.152 -666.07 159.077L-667.367 158.084C-670.506 155.68 -674.913 155.858 -677.848 158.507L-683.213 163.35C-685.854 165.735 -689.98 165.302 -692.069 162.421C-693.563 160.362 -696.196 159.471 -698.634 160.202Z" fill="url(#paint0_linear)"/>
</g>
<defs>
<linearGradient id="paint0_linear" x1="1059.41" y1="-52.3665" x2="1059.41" y2="585.138" gradientUnits="userSpaceOnUse">
<stop stop-color="#1B1B1B"/>
<stop offset="1" stop-color="#0A0A0B"/>
</linearGradient>
<clipPath id="clip0">
<rect width="1440" height="584" fill="#0a0a0b"/>
</clipPath>
</defs>
</svg>
