<svg width="1440" height="212" viewBox="0 0 1440 212" fill="none" xmlns="http://www.w3.org/2000/svg">
<rect width="1440" height="212" fill="#E5E5E5"/>
<g clip-path="url(#clip0_1091_10660)">
<rect width="1440" height="212" fill="white"/>
<path d="M1259 51V46C1259 45.4477 1259.45 45 1260 45H1266C1266.55 45 1267 45.4477 1267 46V51C1267 51.5523 1266.55 52 1266 52H1260C1259.45 52 1259 51.5523 1259 51Z" stroke="#0A0A0B" stroke-width="3"/>
<path d="M1259 73V60C1259 59.4477 1259.45 59 1260 59H1266C1266.55 59 1267 59.4477 1267 60V73C1267 73.5523 1266.55 74 1266 74H1260C1259.45 74 1259 73.5523 1259 73Z" stroke="#0A0A0B" stroke-width="3"/>
<path d="M1239 75.5V37.5M1239 37.5H1288.5M1239 37.5L1263.85 17.5192C1264.23 17.2181 1264.76 17.2261 1265.13 17.5383L1288.5 37.5M1288.5 37.5V75.5" stroke="#0A0A0B" stroke-width="3"/>
<path d="M1243.5 33V22.5C1243.5 21.9477 1243.95 21.5 1244.5 21.5H1251.5C1252.05 21.5 1252.5 21.9477 1252.5 22.5V26" stroke="#0A0A0B" stroke-width="3"/>
<path d="M1132.5 100V95C1132.5 94.4477 1132.05 94 1131.5 94H1125.5C1124.95 94 1124.5 94.4477 1124.5 95V100C1124.5 100.552 1124.95 101 1125.5 101H1131.5C1132.05 101 1132.5 100.552 1132.5 100Z" stroke="#0A0A0B" stroke-width="3"/>
<path d="M1132.5 122V109C1132.5 108.448 1132.05 108 1131.5 108H1125.5C1124.95 108 1124.5 108.448 1124.5 109V122C1124.5 122.552 1124.95 123 1125.5 123H1131.5C1132.05 123 1132.5 122.552 1132.5 122Z" stroke="#0A0A0B" stroke-width="3"/>
<path d="M1152.5 124.5V86.5M1152.5 86.5H1103M1152.5 86.5L1127.65 66.5192C1127.27 66.2181 1126.74 66.2261 1126.37 66.5383L1103 86.5M1103 86.5V124.5" stroke="#0A0A0B" stroke-width="3"/>
<path d="M1023.24 118.419V114.735C1023.24 114.183 1023.69 113.735 1024.24 113.735H1028.73C1029.29 113.735 1029.73 114.183 1029.73 114.735V118.419C1029.73 118.971 1029.29 119.419 1028.73 119.419H1024.24C1023.69 119.419 1023.24 118.971 1023.24 118.419Z" stroke="#0A0A0B" stroke-width="3"/>
<path d="M1023.24 136.282V126.103C1023.24 125.55 1023.69 125.103 1024.24 125.103H1028.73C1029.29 125.103 1029.73 125.55 1029.73 126.103V136.282C1029.73 136.834 1029.29 137.282 1028.73 137.282H1024.24C1023.69 137.282 1023.24 136.834 1023.24 136.282Z" stroke="#0A0A0B" stroke-width="3"/>
<path d="M1007 147.5V107.645M1007 107.645H1047.19M1007 107.645L1027.06 91.5192C1027.43 91.2181 1027.97 91.2261 1028.34 91.5383L1047.19 107.645M1047.19 107.645V138.5" stroke="#0A0A0B" stroke-width="3"/>
<path d="M1010.65 103.991V95.6538C1010.65 95.1015 1011.1 94.6538 1011.65 94.6538H1016.96C1017.51 94.6538 1017.96 95.1015 1017.96 95.6538V98.3077" stroke="#0A0A0B" stroke-width="3"/>
<rect width="7" height="7" rx="1" transform="matrix(-1 0 0 1 1095 111)" stroke="#0A0A0B" stroke-width="3" stroke-linejoin="round"/>
<rect width="7" height="7" rx="1" transform="matrix(-1 0 0 1 1079 111)" stroke="#0A0A0B" stroke-width="3" stroke-linejoin="round"/>
<mask id="path-14-inside-1_1091_10660" fill="white">
<path d="M1102 133C1102.55 133 1103 132.552 1103 132L1103 104.771C1103 104.317 1102.69 103.919 1102.25 103.804L1084.25 99.0653C1084.09 99.0225 1083.91 99.0214 1083.75 99.0622L1064.76 103.811C1064.31 103.922 1064 104.322 1064 104.781L1064 132C1064 132.552 1064.45 133 1065 133L1102 133Z"/>
</mask>
<path d="M1102 133C1102.55 133 1103 132.552 1103 132L1103 104.771C1103 104.317 1102.69 103.919 1102.25 103.804L1084.25 99.0653C1084.09 99.0225 1083.91 99.0214 1083.75 99.0622L1064.76 103.811C1064.31 103.922 1064 104.322 1064 104.781L1064 132C1064 132.552 1064.45 133 1065 133L1102 133Z" stroke="#0A0A0B" stroke-width="6" stroke-linejoin="round" mask="url(#path-14-inside-1_1091_10660)"/>
<rect width="7" height="7" rx="1" transform="matrix(-1 0 0 1 1000 137)" stroke="#0A0A0B" stroke-width="3" stroke-linejoin="round"/>
<rect width="7" height="7" rx="1" transform="matrix(-1 0 0 1 984 137)" stroke="#0A0A0B" stroke-width="3" stroke-linejoin="round"/>
<mask id="path-17-inside-2_1091_10660" fill="white">
<path d="M1007.27 157.205C1007.7 157.084 1008 156.691 1008 156.243L1008 128.771C1008 128.317 1007.69 127.919 1007.25 127.804L989.248 123.065C989.085 123.022 988.914 123.021 988.751 123.062L969.757 127.811C969.312 127.922 969 128.322 969 128.781L969 166.679C969 167.342 969.633 167.821 970.271 167.641L1007.27 157.205Z"/>
</mask>
<path d="M1007.27 157.205C1007.7 157.084 1008 156.691 1008 156.243L1008 128.771C1008 128.317 1007.69 127.919 1007.25 127.804L989.248 123.065C989.085 123.022 988.914 123.021 988.751 123.062L969.757 127.811C969.312 127.922 969 128.322 969 128.781L969 166.679C969 167.342 969.633 167.821 970.271 167.641L1007.27 157.205Z" stroke="#0A0A0B" stroke-width="6" stroke-linejoin="round" mask="url(#path-17-inside-2_1091_10660)"/>
<mask id="path-18-inside-3_1091_10660" fill="white">
<path d="M971 172C971.552 172 972 171.552 972 171L972 143.771C972 143.317 971.694 142.919 971.254 142.804L953.248 138.065C953.085 138.022 952.914 138.021 952.751 138.062L933.757 142.811C933.312 142.922 933 143.322 933 143.781L933 171C933 171.552 933.448 172 934 172L971 172Z"/>
</mask>
<path d="M971 172C971.552 172 972 171.552 972 171L972 143.771C972 143.317 971.694 142.919 971.254 142.804L953.248 138.065C953.085 138.022 952.914 138.021 952.751 138.062L933.757 142.811C933.312 142.922 933 143.322 933 143.781L933 171C933 171.552 933.448 172 934 172L971 172Z" stroke="#0A0A0B" stroke-width="6" stroke-linejoin="round" mask="url(#path-18-inside-3_1091_10660)"/>
<mask id="path-19-inside-4_1091_10660" fill="white">
<rect x="900" y="158.5" width="9" height="19" rx="1"/>
</mask>
<rect x="900" y="158.5" width="9" height="19" rx="1" stroke="#0A0A0B" stroke-width="6" stroke-linejoin="round" mask="url(#path-19-inside-4_1091_10660)"/>
<mask id="path-20-inside-5_1091_10660" fill="white">
<path d="M873 152.199C873 151.779 873.262 151.404 873.657 151.26L904.157 140.125C904.379 140.044 904.621 140.044 904.843 140.125L935.343 151.26C935.738 151.404 936 151.779 936 152.199V176.576C936 177.098 935.599 177.532 935.079 177.573L874.079 182.414C873.497 182.461 873 182.001 873 181.417V152.199Z"/>
</mask>
<path d="M873 152.199C873 151.779 873.262 151.404 873.657 151.26L904.157 140.125C904.379 140.044 904.621 140.044 904.843 140.125L935.343 151.26C935.738 151.404 936 151.779 936 152.199V176.576C936 177.098 935.599 177.532 935.079 177.573L874.079 182.414C873.497 182.461 873 182.001 873 181.417V152.199Z" stroke="#0A0A0B" stroke-width="6" stroke-linejoin="round" mask="url(#path-20-inside-5_1091_10660)"/>
<path d="M1148 82V71.5C1148 70.9477 1147.55 70.5 1147 70.5H1140C1139.45 70.5 1139 70.9477 1139 71.5V75" stroke="#0A0A0B" stroke-width="3"/>
<path d="M1295 49V46C1295 45.4477 1295.45 45 1296 45H1301C1301.55 45 1302 45.4477 1302 46V49C1302 49.5523 1301.55 50 1301 50H1296C1295.45 50 1295 49.5523 1295 49Z" stroke="#0A0A0B" stroke-width="3"/>
<path d="M1311 49V46C1311 45.4477 1311.45 45 1312 45H1317C1317.55 45 1318 45.4477 1318 46V49C1318 49.5523 1317.55 50 1317 50H1312C1311.45 50 1311 49.5523 1311 49Z" stroke="#0A0A0B" stroke-width="3"/>
<path d="M1310 67V56C1310 55.4477 1309.55 55 1309 55H1304C1303.45 55 1303 55.4477 1303 56V67C1303 67.5523 1303.45 68 1304 68H1309C1309.55 68 1310 67.5523 1310 67Z" stroke="#0A0A0B" stroke-width="3"/>
<path d="M1323.27 65.5V39.1923M1323.27 39.1923H1289M1323.27 39.1923L1306.26 25.5192C1305.89 25.2181 1305.35 25.2261 1304.99 25.5383L1289 39.1923M1289 39.1923V69" stroke="#0A0A0B" stroke-width="3"/>
<path d="M1320.15 36.077V29.1155C1320.15 28.5632 1319.71 28.1155 1319.15 28.1155H1314.92C1314.37 28.1155 1313.92 28.5632 1313.92 29.1155V31.2309" stroke="#0A0A0B" stroke-width="3"/>
<path d="M1153.5 106L1162.82 100M1214 67.5L1205 72.5M1214 67.5V81.5M1214 67.5L1222 66M1239 66H1232.5M1162.82 100V115.404M1162.82 100L1172 94.0957M1172 94.0957V110.404M1172 94.0957L1180 88.9478M1180 88.9478V104.904M1180 88.9478L1187 84.4435M1187 84.4435V99.4044M1187 84.4435L1194.68 79.5M1194.68 79.5V94.5M1194.68 79.5L1205 72.5M1205 72.5V87M1222 66V79.5M1222 66H1232.5M1232.5 66V79.5" stroke="#0A0A0B" stroke-width="3"/>
<mask id="path-28-inside-6_1091_10660" fill="white">
<path d="M1421 68C1421.55 68 1422 67.5523 1422 67L1422 39.7709C1422 39.3166 1421.69 38.9194 1421.25 38.8038L1403.25 34.0653C1403.09 34.0225 1402.91 34.0214 1402.75 34.0622L1383.76 38.8106C1383.31 38.9219 1383 39.3219 1383 39.7808L1383 67C1383 67.5523 1383.45 68 1384 68L1421 68Z"/>
</mask>
<path d="M1421 68C1421.55 68 1422 67.5523 1422 67L1422 39.7709C1422 39.3166 1421.69 38.9194 1421.25 38.8038L1403.25 34.0653C1403.09 34.0225 1402.91 34.0214 1402.75 34.0622L1383.76 38.8106C1383.31 38.9219 1383 39.3219 1383 39.7808L1383 67C1383 67.5523 1383.45 68 1384 68L1421 68Z" stroke="#0A0A0B" stroke-width="6" stroke-linejoin="round" mask="url(#path-28-inside-6_1091_10660)"/>
<mask id="path-29-inside-7_1091_10660" fill="white">
<rect x="1350" y="46.5" width="9" height="19" rx="1"/>
</mask>
<rect x="1350" y="46.5" width="9" height="19" rx="1" stroke="#0A0A0B" stroke-width="6" stroke-linejoin="round" mask="url(#path-29-inside-7_1091_10660)"/>
<mask id="path-30-inside-8_1091_10660" fill="white">
<path d="M1323 40.1995C1323 39.7794 1323.26 39.4042 1323.66 39.2601L1354.16 28.1252C1354.38 28.0443 1354.62 28.0443 1354.84 28.1252L1385.34 39.2601C1385.74 39.4042 1386 39.7794 1386 40.1995V64.5C1386 65.0523 1385.55 65.5 1385 65.5H1324C1323.45 65.5 1323 65.0523 1323 64.5V40.1995Z"/>
</mask>
<path d="M1323 40.1995C1323 39.7794 1323.26 39.4042 1323.66 39.2601L1354.16 28.1252C1354.38 28.0443 1354.62 28.0443 1354.84 28.1252L1385.34 39.2601C1385.74 39.4042 1386 39.7794 1386 40.1995V64.5C1386 65.0523 1385.55 65.5 1385 65.5H1324C1323.45 65.5 1323 65.0523 1323 64.5V40.1995Z" stroke="#0A0A0B" stroke-width="6" stroke-linejoin="round" mask="url(#path-30-inside-8_1091_10660)"/>
<path d="M17.6984 163.309L-2.80523 159.237C-3.42364 159.114 -4 159.588 -4 160.218V253.5C-4 254.052 -3.55224 254.5 -2.99996 254.5H1439.69C1440.17 254.5 1440.57 254.168 1440.67 253.704L1454.98 185.068C1454.99 185.001 1455 184.933 1455 184.864V61.5C1455 60.9477 1454.55 60.5 1454 60.5H1403.02H1333.54L1216.8 76.9697C1216.66 76.9897 1216.52 77.0399 1216.4 77.1169L1158.79 113.879C1158.67 113.959 1158.53 114.01 1158.38 114.028L1079.13 124L1012.83 136.964C1012.71 136.988 1012.6 137.033 1012.49 137.099L970.862 163.205C970.733 163.286 970.587 163.336 970.436 163.352L905.688 170.18L834.076 184.941C833.992 184.958 833.907 184.965 833.821 184.96L739.531 179.918L546.884 184.963C546.788 184.966 546.691 184.954 546.598 184.929L492.027 170.224C491.921 170.195 491.811 170.184 491.701 170.191L323.297 181.361H203.305C203.217 181.361 203.129 181.349 203.044 181.326L136.565 163.362C136.48 163.34 136.392 163.328 136.304 163.328H80.576H17.8932C17.8278 163.328 17.7626 163.321 17.6984 163.309Z" fill="#0A0A0B" stroke="#0A0A0B" stroke-width="3"/>
<rect width="7" height="7" rx="1" transform="matrix(-1 0 0 1 964 152)" stroke="#0A0A0B" stroke-width="3" stroke-linejoin="round"/>
<rect width="7" height="7" rx="1" transform="matrix(-1 0 0 1 948 152)" stroke="#0A0A0B" stroke-width="3" stroke-linejoin="round"/>
<rect width="7" height="7" rx="1" transform="matrix(-1 0 0 1 1415 49)" stroke="#0A0A0B" stroke-width="3" stroke-linejoin="round"/>
<rect width="7" height="7" rx="1" transform="matrix(-1 0 0 1 1398 48)" stroke="#0A0A0B" stroke-width="3" stroke-linejoin="round"/>
</g>
<defs>
<clipPath id="clip0_1091_10660">
<rect width="1440" height="212" fill="white"/>
</clipPath>
</defs>
</svg>
