<svg width="450" height="212" fill="none" xmlns="http://www.w3.org/2000/svg"><g clip-path="url(#a)"><path d="M329.401 84.23v-3.857c0-.426.345-.771.771-.771h4.629c.426 0 .772.345.772.771v3.858a.772.772 0 0 1-.772.771h-4.629a.771.771 0 0 1-.771-.771ZM329.401 101.204v-10.03c0-.426.345-.771.771-.771h4.629c.426 0 .772.345.772.771v10.03a.772.772 0 0 1-.772.771h-4.629a.77.77 0 0 1-.771-.771ZM313.971 103.133V73.816m0 0h38.189m-38.189 0L333.146 58.4a.77.77 0 0 1 .984.014l18.03 15.4m0 0v29.318M317.442 70.344v-8.1c0-.427.346-.772.772-.772h5.4c.426 0 .772.345.772.771v2.7M231.806 122.034v-3.857a.771.771 0 0 0-.771-.772h-4.629a.772.772 0 0 0-.772.772v3.857c0 .426.346.772.772.772h4.629a.772.772 0 0 0 .771-.772ZM231.806 139.007v-10.029a.771.771 0 0 0-.771-.772h-4.629a.772.772 0 0 0-.772.772v10.029c0 .426.346.772.772.772h4.629a.772.772 0 0 0 .771-.772ZM247.236 140.936v-29.317m0 0h-38.189m38.189 0-19.175-15.415a.77.77 0 0 0-.984.015l-18.03 15.4m0 0v29.317M147.512 136.244v-2.842a.77.77 0 0 1 .771-.771h3.469a.77.77 0 0 1 .771.771v2.842a.772.772 0 0 1-.771.772h-3.469a.772.772 0 0 1-.771-.772ZM147.512 150.026v-7.854a.77.77 0 0 1 .771-.771h3.469a.77.77 0 0 1 .771.771v7.854a.77.77 0 0 1-.771.771h-3.469a.77.77 0 0 1-.771-.771ZM134.983 158.68v-30.747m0 0h31.009m-31.009 0 15.476-12.442a.773.773 0 0 1 .985.015l14.548 12.427m0 0v23.804M137.802 125.113v-6.432c0-.426.346-.772.772-.772h4.095c.426 0 .771.346.771.772v2.047" stroke="#0A0A0B" stroke-width="2.314"/><mask id="b" fill="#fff"><rect width="6.943" height="6.943" rx=".771" transform="matrix(-1 0 0 1 203.646 131.292)"/></mask><rect width="6.943" height="6.943" rx=".771" transform="matrix(-1 0 0 1 203.646 131.292)" stroke="#0A0A0B" stroke-width="4.629" stroke-linejoin="round" mask="url(#b)"/><mask id="c" fill="#fff"><rect width="6.943" height="6.943" rx=".771" transform="matrix(-1 0 0 1 191.303 131.292)"/></mask><rect width="6.943" height="6.943" rx=".771" transform="matrix(-1 0 0 1 191.303 131.292)" stroke="#0A0A0B" stroke-width="4.629" stroke-linejoin="round" mask="url(#c)"/><path d="M180.116 146.336h27.774v-20.324l-13.508-3.555-14.266 3.567v20.312Z" stroke="#0A0A0B" stroke-width="2.314" stroke-linejoin="round"/><mask id="d" fill="#fff"><rect width="6.943" height="6.943" rx=".771" transform="matrix(-1 0 0 1 130.354 149.808)"/></mask><rect width="6.943" height="6.943" rx=".771" transform="matrix(-1 0 0 1 130.354 149.808)" stroke="#0A0A0B" stroke-width="4.629" stroke-linejoin="round" mask="url(#d)"/><mask id="e" fill="#fff"><rect width="6.943" height="6.943" rx=".771" transform="matrix(-1 0 0 1 118.01 149.808)"/></mask><rect width="6.943" height="6.943" rx=".771" transform="matrix(-1 0 0 1 118.01 149.808)" stroke="#0A0A0B" stroke-width="4.629" stroke-linejoin="round" mask="url(#e)"/><path d="m106.824 172.967 27.774-7.834v-20.605l-13.509-3.555-14.265 3.567v28.427Z" stroke="#0A0A0B" stroke-width="2.314" stroke-linejoin="round"/><mask id="f" fill="#fff"><rect width="6.943" height="6.943" rx=".771" transform="matrix(-1 0 0 1 102.581 161.381)"/></mask><rect width="6.943" height="6.943" rx=".771" transform="matrix(-1 0 0 1 102.581 161.381)" stroke="#0A0A0B" stroke-width="4.629" stroke-linejoin="round" mask="url(#f)"/><mask id="g" fill="#fff"><rect width="6.943" height="6.943" rx=".771" transform="matrix(-1 0 0 1 90.237 161.381)"/></mask><rect width="6.943" height="6.943" rx=".771" transform="matrix(-1 0 0 1 90.237 161.381)" stroke="#0A0A0B" stroke-width="4.629" stroke-linejoin="round" mask="url(#g)"/><path d="M79.05 176.425h27.774v-20.324l-13.509-3.555-14.265 3.566v20.313Z" stroke="#0A0A0B" stroke-width="2.314" stroke-linejoin="round"/><mask id="h" fill="#fff"><rect x="52.434" y="167.167" width="6.943" height="14.658" rx=".771"/></mask><rect x="52.434" y="167.167" width="6.943" height="14.658" rx=".771" stroke="#0A0A0B" stroke-width="4.629" stroke-linejoin="round" mask="url(#h)"/><path d="m55.905 154.126 23.145 8.45v18.18l-46.29 3.674v-21.854l23.145-8.45Z" stroke="#0A0A0B" stroke-width="2.314" stroke-linejoin="round"/><path d="M243.765 108.147v-8.1a.772.772 0 0 0-.772-.772h-5.4a.772.772 0 0 0-.772.772v2.7M357.175 82.688v-2.315c0-.426.345-.771.771-.771h3.858c.426 0 .771.345.771.771v2.315a.771.771 0 0 1-.771.771h-3.858a.771.771 0 0 1-.771-.771ZM369.519 82.688v-2.315c0-.426.345-.771.771-.771h3.858c.426 0 .771.345.771.771v2.315a.771.771 0 0 1-.771.771h-3.858a.771.771 0 0 1-.771-.771ZM368.747 96.575v-8.487a.771.771 0 0 0-.771-.771h-3.858a.771.771 0 0 0-.771.771v8.487c0 .426.345.771.771.771h3.858a.771.771 0 0 0 .771-.771ZM378.984 95.418V75.12m0 0h-26.439m26.439 0-13.122-10.548a.77.77 0 0 0-.984.014l-12.333 10.534m0 0v22.997M376.581 72.718v-5.371a.771.771 0 0 0-.771-.772h-3.264a.771.771 0 0 0-.772.772v1.632M248.008 126.663l7.194-4.629m39.481-25.074-6.943 3.858m6.943-3.858v10.801m0-10.8 6.172-1.158m13.116 0h-5.015m-53.754 26.231v11.885m0-11.885 7.079-4.555m0 0v12.582m0-12.582 6.171-3.972m0 0v12.311m0-12.311 5.401-3.475m0 0v11.543m0-11.543 5.927-3.814m0 0v11.573m0-11.573 7.96-5.4m0 0v11.187m13.115-16.202v10.415m0-10.415h8.101m0 0v10.415" stroke="#0A0A0B" stroke-width="2.314"/><mask id="i" fill="#fff"><rect width="6.943" height="6.943" rx=".771" transform="matrix(-1 0 0 1 449.754 81.145)"/></mask><rect width="6.943" height="6.943" rx=".771" transform="matrix(-1 0 0 1 449.754 81.145)" stroke="#0A0A0B" stroke-width="4.629" stroke-linejoin="round" mask="url(#i)"/><mask id="j" fill="#fff"><rect width="6.943" height="6.943" rx=".771" transform="matrix(-1 0 0 1 437.411 81.145)"/></mask><rect width="6.943" height="6.943" rx=".771" transform="matrix(-1 0 0 1 437.411 81.145)" stroke="#0A0A0B" stroke-width="4.629" stroke-linejoin="round" mask="url(#j)"/><path d="M426.224 96.189h27.774V75.865l-13.509-3.555-14.265 3.566V96.19Z" stroke="#0A0A0B" stroke-width="2.314" stroke-linejoin="round"/><mask id="k" fill="#fff"><rect x="399.607" y="80.759" width="6.943" height="14.658" rx=".771"/></mask><rect x="399.607" y="80.759" width="6.943" height="14.658" rx=".771" stroke="#0A0A0B" stroke-width="4.629" stroke-linejoin="round" mask="url(#k)"/><path d="m403.079 67.719 23.145 8.45V94.26h-46.29V76.168l23.145-8.45Z" stroke="#0A0A0B" stroke-width="2.314" stroke-linejoin="round"/><path d="m-628.254 170.877-15.784-3.134a.772.772 0 0 0-.921.79l3.014 71.958a.771.771 0 0 0 .771.739H469.042a.77.77 0 0 0 .771-.771v-52.873L480.9 92.421a.772.772 0 0 0-.767-.86h-92.87l-90.099 12.705a.772.772 0 0 0-.307.114l-44.46 28.362a.772.772 0 0 1-.318.115l-61.162 7.693-51.164 10.002a.753.753 0 0 0-.262.104l-32.13 20.141a.774.774 0 0 1-.329.113l-49.97 5.268-55.267 11.388a.813.813 0 0 1-.197.015l-72.77-3.89-148.677 3.892a.787.787 0 0 1-.221-.026l-42.115-11.346a.764.764 0 0 0-.252-.024l-129.968 8.617h-92.605a.755.755 0 0 1-.201-.027l-51.307-13.859a.755.755 0 0 0-.201-.027h-91.385c-.05 0-.1-.004-.15-.014Z" fill="#0A0A0B" stroke="#0A0A0B" stroke-width="2.314"/></g><defs><clipPath id="a"><path fill="#fff" d="M0 0h450v212H0z"/></clipPath></defs></svg>
