<svg width="1448" height="497" fill="none" xmlns="http://www.w3.org/2000/svg"><path d="M1181.32 27.856c-2.29.92-4.79 1.426-7.4 1.426-10.98 0-19.88-8.898-19.88-19.875 0-2.618.51-5.118 1.43-7.407-7.31 2.937-12.47 10.09-12.47 18.449 0 10.976 8.9 19.875 19.88 19.875 8.35 0 15.51-5.16 18.44-12.468Z" fill="#0A0A0B" stroke="#0A0A0B" stroke-width="3" stroke-linecap="round" stroke-linejoin="round"/><mask id="a" fill="#fff"><rect x="1218" y="273.5" width="9" height="19" rx="1"/></mask><rect x="1218" y="273.5" width="9" height="19" rx="1" stroke="#0A0A0B" stroke-width="6" stroke-linejoin="round" mask="url(#a)"/><rect x="1120" y="272" width="7" height="7" rx="1" stroke="#0A0A0B" stroke-width="3" stroke-linejoin="round"/><rect x="1135" y="272" width="7" height="7" rx="1" stroke="#0A0A0B" stroke-width="3" stroke-linejoin="round"/><rect x="1156" y="279" width="9" height="5" rx="1" stroke="#0A0A0B" stroke-width="3" stroke-linejoin="round"/><rect x="1176" y="279" width="9" height="5" rx="1" stroke="#0A0A0B" stroke-width="3" stroke-linejoin="round"/><path d="m1170.35 272.009 22.15 2.396V291h-43v-16.604l20.85-2.387ZM1149.5 291h-36v-26.344l17.51-4.607 18.49 4.622V291Z" stroke="#0A0A0B" stroke-width="3" stroke-linejoin="round"/><mask id="b" fill="#fff"><rect width="9" height="9" rx="1" transform="matrix(-1 0 0 1 575 438)"/></mask><rect width="9" height="9" rx="1" transform="matrix(-1 0 0 1 575 438)" stroke="#0A0A0B" stroke-width="6" stroke-linejoin="round" mask="url(#b)"/><mask id="c" fill="#fff"><rect width="9" height="9" rx="1" transform="matrix(-1 0 0 1 559 438)"/></mask><rect width="9" height="9" rx="1" transform="matrix(-1 0 0 1 559 438)" stroke="#0A0A0B" stroke-width="6" stroke-linejoin="round" mask="url(#c)"/><path d="M544.5 457.5h36v-26.344l-17.51-4.607-18.49 4.622V457.5Z" stroke="#0A0A0B" stroke-width="3" stroke-linejoin="round"/><mask id="d" fill="#fff"><rect width="9" height="9" rx="1" transform="matrix(-1 0 0 1 503 443)"/></mask><rect width="9" height="9" rx="1" transform="matrix(-1 0 0 1 503 443)" stroke="#0A0A0B" stroke-width="6" stroke-linejoin="round" mask="url(#d)"/><mask id="e" fill="#fff"><rect width="9" height="9" rx="1" transform="matrix(-1 0 0 1 487 443)"/></mask><rect width="9" height="9" rx="1" transform="matrix(-1 0 0 1 487 443)" stroke="#0A0A0B" stroke-width="6" stroke-linejoin="round" mask="url(#e)"/><mask id="f" fill="#fff"><rect width="9" height="9" rx="1" transform="matrix(-1 0 0 1 471 443)"/></mask><rect width="9" height="9" rx="1" transform="matrix(-1 0 0 1 471 443)" stroke="#0A0A0B" stroke-width="6" stroke-linejoin="round" mask="url(#f)"/><mask id="g" fill="#fff"><rect width="9" height="9" rx="1" transform="matrix(-1 0 0 1 439 443)"/></mask><rect width="9" height="9" rx="1" transform="matrix(-1 0 0 1 439 443)" stroke="#0A0A0B" stroke-width="6" stroke-linejoin="round" mask="url(#g)"/><mask id="h" fill="#fff"><rect width="9" height="9" rx="1" transform="matrix(-1 0 0 1 455 443)"/></mask><rect width="9" height="9" rx="1" transform="matrix(-1 0 0 1 455 443)" stroke="#0A0A0B" stroke-width="6" stroke-linejoin="round" mask="url(#h)"/><path d="M423.5 462.5h85v-26.168l-40.508-4.822-44.492 4.836V462.5Z" stroke="#0A0A0B" stroke-width="3" stroke-linejoin="round"/><mask id="i" fill="#fff"><rect width="9" height="9" rx="1" transform="matrix(-1 0 0 1 539 437)"/></mask><rect width="9" height="9" rx="1" transform="matrix(-1 0 0 1 539 437)" stroke="#0A0A0B" stroke-width="6" stroke-linejoin="round" mask="url(#i)"/><mask id="j" fill="#fff"><rect width="9" height="9" rx="1" transform="matrix(-1 0 0 1 523 437)"/></mask><rect width="9" height="9" rx="1" transform="matrix(-1 0 0 1 523 437)" stroke="#0A0A0B" stroke-width="6" stroke-linejoin="round" mask="url(#j)"/><mask id="k" fill="#fff"><rect width="9" height="9" rx="1" transform="matrix(-1 0 0 1 539 421)"/></mask><rect width="9" height="9" rx="1" transform="matrix(-1 0 0 1 539 421)" stroke="#0A0A0B" stroke-width="6" stroke-linejoin="round" mask="url(#k)"/><mask id="l" fill="#fff"><rect width="9" height="9" rx="1" transform="matrix(-1 0 0 1 523 421)"/></mask><rect width="9" height="9" rx="1" transform="matrix(-1 0 0 1 523 421)" stroke="#0A0A0B" stroke-width="6" stroke-linejoin="round" mask="url(#l)"/><path d="M508.5 460.5h36v-44.959l-17.51-4.984-18.49 4.999V460.5ZM1222.5 256.597l30 10.952V291h-60v-23.451l30-10.952ZM1079.5 294.5V255m0-8v8m-7.5-8h-5c-.55 0-1-.448-1-1v-3m6 4 7.5 8m-7.5-8h16m-8.5 8 8.5-8m0 0h5c.55 0 1-.448 1-1v-3M598.5 460.5V427m0-14.5V427m-7.5-8.5h-5a1 1 0 0 1-1-1V413m6 5.5 7.5 8.5m-7.5-8.5h16m-8.5 8.5 8.5-8.5m0 0h5.5a1 1 0 0 0 1-1v-5" stroke="#0A0A0B" stroke-width="3" stroke-linejoin="round"/><path d="M1105 241h-41.81a.98.98 0 0 0-.36.066L616.673 412.434a1.018 1.018 0 0 1-.358.066H579.5M1253 290v-52c0-.552.45-1 1-1h9c.55 0 1 .448 1 1v52c0 .552-.45 1-1 1h-9c-.55 0-1-.448-1-1ZM1254.5 236v-31c0-.552.45-1 1-1h5c.55 0 1 .448 1 1v31c0 .552-.45 1-1 1h-5c-.55 0-1-.448-1-1Z" stroke="#0A0A0B" stroke-width="3" stroke-linejoin="round"/><path d="M1257.5 203v-31c0-.552.45-1 1-1s1 .448 1 1v31c0 .552-.45 1-1 1s-1-.448-1-1Z" stroke="#000" stroke-width="3" stroke-linejoin="round"/><path d="M1264.5 267h44v24h-44v-24Zm.05-3c.77-11.451 10.3-20.5 21.95-20.5 11.65 0 21.18 9.049 21.95 20.5h-43.9Z" stroke="#0A0A0B" stroke-width="3"/><circle cx="1296" cy="257" r="4" stroke="#0A0A0B" stroke-width="3"/><rect x="888" y="342" width="13" height="15" rx="1" stroke="#0A0A0B" stroke-width="3" stroke-linejoin="round"/><path d="M895 342v15M892 325c-8.284 0-15 5.596-15 12.5V358h30v-20.5c0-6.904-6.716-12.5-15-12.5ZM877 336h29.5" stroke="#0A0A0B" stroke-width="3" stroke-linejoin="round"/><path d="M887 323.5h5m5 0h-5m0 0v-14m-12.5 4 12.5-4m13-4.5-13 4.5" stroke="#0A0A0B" stroke-width="3" stroke-linecap="round" stroke-linejoin="round"/><path d="m1444.02 254.151 3.96 25.698c.01.1.02.202.02.304V494.5c0 1.105-.9 2-2 2H2.5a2 2 0 0 1-2-2v-43.234c0-.773.446-1.477 1.145-1.807l35.33-16.711a2.006 2.006 0 0 1 1.101-.177L138.5 445l32.349 4.977c.1.015.202.023.304.023h39.052c.196 0 .39.029.577.085l45.382 13.663a1.993 1.993 0 0 0 1.589-.191l39.119-22.982a1.87 1.87 0 0 1 .266-.13l34.186-13.77a2 2 0 0 1 2.517.924l18.491 35.131a1.998 1.998 0 0 0 2.085 1.043l23.232-3.717c.232-.037.469-.033.699.012l19.594 3.823c.365.071.742.039 1.09-.092l21.531-8.134c.287-.109.596-.149.902-.119L446.5 458l49.347 1.994c.102.004.204 0 .305-.011L536 455.5l55.274-1.992c.15-.005.3.006.448.034l32.154 6.147a2.001 2.001 0 0 1 1.624 1.965v6.767c0 1.565 1.716 2.523 3.048 1.703l15.97-9.827a2 2 0 0 1 1.048-.297h13.617c.21 0 .419.033.618.098l39.018 12.681c.44.143.917.129 1.347-.04l21.719-8.499c.4-.156.838-.18 1.252-.067l22.067 5.976a2 2 0 0 0 2.112-.716l11.532-15.08a1.996 1.996 0 0 1 1.724-.78l28.034 1.9c.26.018.521-.015.768-.098l23.485-7.828c.094-.031.185-.07.274-.115l28.94-14.715c.281-.143.591-.217.906-.217h51.316a2 2 0 0 0 1.254-.442l19.758-15.903c.128-.103.269-.19.418-.259l24.038-11.057a1.999 1.999 0 0 1 1.502-.068l39.368 13.922c.55.195 1.158.139 1.664-.152L998 409.5l16.5-11.5 19.37-11.92c.09-.053.18-.1.27-.139l21.43-9.048a2.021 2.021 0 0 0 1.17-1.376l5.64-23.509c.08-.333.24-.64.47-.891l17.32-18.722c.51-.549.67-1.337.41-2.041l-7.44-20.466c-.09-.256-.24-.49-.42-.688l-13.04-13.828c-1.2-1.276-.3-3.372 1.45-3.372h207c.25 0 .49-.044.71-.129l21.82-8.242c.22-.085.46-.129.71-.129h24.86c.49 0 .97-.185 1.34-.52l26.22-23.834c.45-.408 1.06-.59 1.66-.495l20.19 3.213c.55.087 1.11-.057 1.55-.397l21.69-16.874c.08-.062.16-.118.25-.167l20.82-11.617a1.99 1.99 0 0 1 1.18-.243l31.08 3.247c1.02.106 1.79.965 1.79 1.989v16.045c0 .102.01.204.02.304Z" fill="#0A0A0B"/></svg>
