<svg width="400" height="382" fill="none" xmlns="http://www.w3.org/2000/svg"><g clip-path="url(#a)"><path d="M267.969 62.72a14.347 14.347 0 0 1-5.363 1.034c-7.947 0-14.39-6.443-14.39-14.39 0-1.896.366-3.707 1.032-5.364-5.291 2.127-9.027 7.306-9.027 13.358 0 7.947 6.443 14.39 14.391 14.39 6.052 0 11.231-3.736 13.357-9.027Z" fill="#0A0A0B" stroke="#0A0A0B" stroke-width="2.542" stroke-linecap="round" stroke-linejoin="round"/><mask id="b" fill="#fff"><rect x="294.525" y="240.578" width="6.516" height="13.757" rx=".847"/></mask><rect x="294.525" y="240.578" width="6.516" height="13.757" rx=".847" stroke="#0A0A0B" stroke-width="5.085" stroke-linejoin="round" mask="url(#b)"/><rect x="223.568" y="239.492" width="5.068" height="5.068" rx=".847" stroke="#0A0A0B" stroke-width="2.542" stroke-linejoin="round"/><rect x="234.429" y="239.492" width="5.068" height="5.068" rx=".847" stroke="#0A0A0B" stroke-width="2.542" stroke-linejoin="round"/><rect x="249.634" y="244.56" width="6.516" height="3.62" rx=".847" stroke="#0A0A0B" stroke-width="2.542" stroke-linejoin="round"/><rect x="264.115" y="244.56" width="6.516" height="3.62" rx=".847" stroke="#0A0A0B" stroke-width="2.542" stroke-linejoin="round"/><path d="m260.023 239.685 15.853 1.714v11.665h-30.763v-11.672l14.91-1.707ZM244.742 253.064h-25.695v-18.746l12.494-3.288 13.201 3.3v18.734ZM297.783 228.537l21.536 7.862v16.665h-43.073v-16.665l21.537-7.862ZM194.244 255.783v-28.6m0-5.792v5.792m-5.43-5.792h-3.497a.847.847 0 0 1-.847-.847v-2.049m4.344 2.896 5.43 5.792m-5.43-5.792h11.585m-6.155 5.792 6.155-5.792m0 0h3.497a.847.847 0 0 0 .847-.847v-2.049" stroke="#0A0A0B" stroke-width="2.542" stroke-linejoin="round"/><path d="M212.708 217.047h-30.253a.853.853 0 0 0-.304.056l-322.992 124.061a.854.854 0 0 1-.304.057h-26.633M319.866 252.401v-37.403c0-.468.379-.848.847-.848h6.27c.468 0 .847.38.847.848v37.403a.848.848 0 0 1-.847.848h-6.27a.848.848 0 0 1-.847-.848Z" stroke="#0A0A0B" stroke-width="2.542" stroke-linejoin="round"/><path d="M320.952 213.303V191.104c0-.468.38-.847.848-.847h3.373c.468 0 .848.379.848.847v22.199c0 .468-.38.847-.848.847H321.8a.848.848 0 0 1-.848-.847Z" stroke="#0A0A0B" stroke-width="2.542" stroke-linejoin="round"/><path d="M323.124 189.533v-22.445a.724.724 0 0 1 1.448 0v22.445a.724.724 0 1 1-1.448 0Z" stroke="#000" stroke-width="2.542" stroke-linejoin="round"/><path d="M328.378 236.057h31.488v17.007h-31.488v-17.007Zm.05-2.542c.648-8.101 7.427-14.473 15.694-14.473 8.267 0 15.046 6.372 15.693 14.473h-31.387Z" stroke="#0A0A0B" stroke-width="2.542"/><circle cx="351" cy="228.632" r="2.896" stroke="#0A0A0B" stroke-width="2.542"/><rect x="55.59" y="290.175" width="9.413" height="10.861" rx=".847" stroke="#0A0A0B" stroke-width="2.542" stroke-linejoin="round"/><path d="M60.658 290.175v10.861M58.486 277.866c-5.998 0-10.86 4.053-10.86 9.051v14.843h21.72v-14.843c0-4.998-4.862-9.051-10.86-9.051ZM47.625 285.831h21.36" stroke="#0A0A0B" stroke-width="2.542" stroke-linejoin="round"/><path d="M54.866 276.78h3.62m3.62 0h-3.62m0 0v-10.137m-9.05 2.897 9.05-2.897m9.413-3.258-9.413 3.258" stroke="#0A0A0B" stroke-width="2.542" stroke-linecap="round" stroke-linejoin="round"/><path d="m458.178 226.587 2.857 18.569c.013.086.02.172.02.258v154.931c0 .936-.759 1.695-1.695 1.695H-585.305a1.695 1.695 0 0 1-1.695-1.695v-30.9c0-.655.378-1.252.97-1.532l25.375-12.001c.29-.138.614-.19.933-.15l72.64 8.99 23.403 3.6c.086.013.172.02.258.02h28.221c.165 0 .33.024.488.072l32.721 9.851c.451.136.94.078 1.347-.161l28.215-16.577c.072-.042.147-.079.225-.11l24.529-9.88a1.694 1.694 0 0 1 2.133.783l13.201 25.082c.339.644 1.05.999 1.768.885l16.603-2.657c.196-.031.397-.028.592.01l14.075 2.746c.309.061.629.034.923-.078l15.47-5.844c.244-.092.506-.126.765-.101l18.069 1.771 35.711 1.443c.086.004.172.001.258-.009l28.833-3.244 39.993-1.441a1.72 1.72 0 0 1 .379.029l23.053 4.407a1.696 1.696 0 0 1 1.377 1.665v4.254c0 1.326 1.454 2.138 2.583 1.443l11.127-6.847a1.7 1.7 0 0 1 .889-.251h9.75c.178 0 .355.028.524.083l28.13 9.142c.372.121.776.109 1.14-.034l15.568-6.091a1.69 1.69 0 0 1 1.061-.058l15.74 4.263a1.696 1.696 0 0 0 1.788-.607l8.169-10.682c.345-.451.894-.7 1.461-.661l20.118 1.364c.22.015.441-.014.65-.083l16.94-5.647c.08-.027.158-.059.233-.097l20.885-10.62c.238-.121.5-.184.768-.184H60.06c.386 0 .761-.132 1.062-.374l14.214-11.441c.109-.087.228-.161.355-.219l17.285-7.952c.4-.184.858-.205 1.273-.058l28.303 10.01c.466.165.982.118 1.411-.129l11.271-6.49 11.946-8.326 14.009-8.621c.073-.045.15-.085.229-.118l15.383-6.495c.496-.21.863-.642.989-1.166l4.041-16.838c.068-.282.207-.542.404-.755l12.393-13.397c.43-.466.565-1.134.348-1.731l-5.319-14.628a1.705 1.705 0 0 0-.36-.584l-9.012-9.558c-1.02-1.082-.253-2.858 1.233-2.858h149.26c.205 0 .408-.037.599-.109l15.712-5.936c.192-.072.395-.109.599-.109h17.861a1.7 1.7 0 0 0 1.14-.441l18.824-17.113c.381-.346.898-.5 1.406-.42l14.399 2.291c.463.074.936-.048 1.307-.336l15.608-12.14a1.7 1.7 0 0 1 .215-.142l14.986-8.364c.305-.17.654-.242 1.002-.206l22.203 2.32c.863.09 1.519.818 1.519 1.686v11.376c0 .086.006.172.019.257Z" fill="#0A0A0B"/></g><defs><clipPath id="a"><path fill="#fff" d="M0 0h400v382H0z"/></clipPath></defs></svg>
