<svg width="131" height="131" viewBox="0 0 131 131" fill="none" xmlns="http://www.w3.org/2000/svg">
<path d="M48.597 28.1723L48.597 48.597L28.1723 48.597C16.892 48.597 7.74758 39.4526 7.74758 28.1723C7.74758 16.892 16.892 7.74755 28.1723 7.74755C39.4526 7.74755 48.597 16.892 48.597 28.1723Z" stroke="#7F7F8B" stroke-width="15.4946"/>
<path d="M102.828 48.5968L82.4037 48.5968L82.4037 28.1721C82.4037 16.8918 91.5482 7.74734 102.828 7.74734C114.109 7.74734 123.253 16.8918 123.253 28.1721C123.253 39.4523 114.109 48.5968 102.828 48.5968Z" stroke="#585860" stroke-width="15.4946"/>
<path d="M28.1721 82.4035L48.5968 82.4035L48.5968 102.828C48.5968 114.108 39.4523 123.253 28.1721 123.253C16.8918 123.253 7.74734 114.108 7.74734 102.828C7.74734 91.5479 16.8918 82.4035 28.1721 82.4035Z" stroke="#BFBFC5" stroke-width="15.4946"/>
<path d="M82.4037 102.828L82.4037 82.4034L102.828 82.4034C114.109 82.4034 123.253 91.5478 123.253 102.828C123.253 114.108 114.109 123.253 102.828 123.253C91.5482 123.253 82.4037 114.108 82.4037 102.828Z" stroke="#313136" stroke-width="15.4946"/>
</svg>
