<svg width="131" height="131" viewBox="0 0 131 131" fill="none" xmlns="http://www.w3.org/2000/svg">
<path d="M7.74731 28.1721L7.74731 7.74734L28.1721 7.74734C39.4523 7.74734 48.5968 16.8918 48.5968 28.1721C48.5968 39.4523 39.4523 48.5968 28.172 48.5968C16.8918 48.5968 7.74731 39.4523 7.74731 28.1721Z" stroke="#0A0A0B" stroke-width="15.4946"/>
<path d="M102.828 7.74731L123.253 7.74731V28.1721C123.253 39.4523 114.108 48.5968 102.828 48.5968C91.5477 48.5968 82.4032 39.4523 82.4032 28.172C82.4032 16.8918 91.5477 7.74731 102.828 7.74731Z" stroke="#0A0A0B" stroke-width="15.4946"/>
<path d="M28.172 123.253H7.74731L7.74731 102.828C7.74731 91.5477 16.8918 82.4032 28.172 82.4032C39.4523 82.4032 48.5968 91.5477 48.5968 102.828C48.5968 114.108 39.4523 123.253 28.172 123.253Z" stroke="#0A0A0B" stroke-width="15.4946"/>
<path d="M123.253 102.828L123.253 123.253L102.828 123.253C91.5477 123.253 82.4032 114.108 82.4032 102.828C82.4032 91.5477 91.5477 82.4032 102.828 82.4032C114.108 82.4032 123.253 91.5477 123.253 102.828Z" stroke="#0A0A0B" stroke-width="15.4946"/>
</svg>
