<svg width="49" height="68" viewBox="0 0 49 68" fill="none" xmlns="http://www.w3.org/2000/svg">
<path fill-rule="evenodd" clip-rule="evenodd" d="M22.0383 4.38824C28.135 23.9828 24.2712 20.1869 44.0755 26.1891C24.273 32.2254 28.1356 28.402 22.0383 47.9947C15.9681 28.4002 19.8037 32.2237 0 26.1891C19.8025 20.1886 15.968 23.9827 22.0383 4.38824Z" fill="white"/>
<path fill-rule="evenodd" clip-rule="evenodd" d="M33.6291 37.2902C37.8639 50.9698 35.1734 48.3073 49 52.4998C35.1733 56.7188 37.8639 54.0564 33.6291 67.7329C29.3651 54.0569 32.0539 56.7176 18.229 52.4998C32.055 48.3084 29.3651 50.9691 33.6291 37.2902Z" fill="white"/>
<path fill-rule="evenodd" clip-rule="evenodd" d="M38.211 0C41.0703 9.26187 39.236 7.44454 48.5998 10.305C39.2359 13.1362 41.0703 11.3271 38.211 20.5825C35.3176 11.3271 37.149 13.1368 27.791 10.305C37.149 7.44455 35.3164 9.26188 38.211 0Z" fill="white"/>
</svg>
