<svg width="52" height="52" viewBox="0 0 52 52" fill="none" xmlns="http://www.w3.org/2000/svg">
<path d="M27.5383 17.9617C27.3322 17.7644 27.0892 17.6098 26.8233 17.5067C26.2958 17.29 25.7041 17.29 25.1766 17.5067C24.9106 17.6098 24.6677 17.7644 24.4616 17.9617L17.9616 24.4617C17.5536 24.8697 17.3244 25.423 17.3244 26C17.3244 26.577 17.5536 27.1304 17.9616 27.5383C18.3696 27.9463 18.9229 28.1755 19.4999 28.1755C20.0769 28.1755 20.6303 27.9463 21.0383 27.5383L23.8333 24.7217V32.5C23.8333 33.0746 24.0615 33.6257 24.4679 34.0321C24.8742 34.4384 25.4253 34.6667 25.9999 34.6667C26.5746 34.6667 27.1257 34.4384 27.532 34.0321C27.9383 33.6257 28.1666 33.0746 28.1666 32.5V24.7217L30.9616 27.5383C31.163 27.7414 31.4026 27.9026 31.6667 28.0126C31.9307 28.1226 32.2139 28.1792 32.4999 28.1792C32.786 28.1792 33.0691 28.1226 33.3332 28.0126C33.5972 27.9026 33.8368 27.7414 34.0383 27.5383C34.2413 27.3369 34.4025 27.0973 34.5125 26.8333C34.6225 26.5692 34.6792 26.286 34.6792 26C34.6792 25.714 34.6225 25.4308 34.5125 25.1668C34.4025 24.9027 34.2413 24.6631 34.0383 24.4617L27.5383 17.9617ZM25.9999 4.33334C21.7147 4.33334 17.5256 5.60407 13.9626 7.98484C10.3995 10.3656 7.62244 13.7495 5.98254 17.7085C4.34264 21.6676 3.91357 26.024 4.74958 30.227C5.58559 34.4299 7.64914 38.2905 10.6793 41.3207C13.7094 44.3508 17.57 46.4143 21.773 47.2504C25.9759 48.0864 30.3323 47.6573 34.2914 46.0174C38.2505 44.3775 41.6343 41.6004 44.0151 38.0374C46.3959 34.4743 47.6666 30.2853 47.6666 26C47.6666 23.1547 47.1062 20.3373 46.0173 17.7085C44.9285 15.0798 43.3325 12.6913 41.3206 10.6794C39.3086 8.66743 36.9201 7.07147 34.2914 5.98262C31.6627 4.89377 28.8452 4.33334 25.9999 4.33334V4.33334ZM25.9999 43.3333C22.5717 43.3333 19.2205 42.3168 16.37 40.4122C13.5196 38.5075 11.2979 35.8004 9.98602 32.6332C8.6741 29.4659 8.33084 25.9808 8.99965 22.6184C9.66846 19.2561 11.3193 16.1676 13.7434 13.7435C16.1675 11.3194 19.256 9.66854 22.6184 8.99973C25.9807 8.33092 29.4659 8.67418 32.6331 9.9861C35.8004 11.298 38.5075 13.5197 40.4121 16.3701C42.3167 19.2206 43.3333 22.5718 43.3333 26C43.3333 30.5971 41.5071 35.0059 38.2564 38.2565C35.0058 41.5072 30.597 43.3333 25.9999 43.3333V43.3333Z" fill="#0A0A0B"/>
</svg>
