<svg width="225" height="210" viewBox="0 0 225 210" fill="none" xmlns="http://www.w3.org/2000/svg">
<g clip-path="url(#clip0_1599_15211)">
<path d="M149.709 264.917H5.2085C-4.37245 264.917 -13.561 261.111 -20.3357 254.336C-27.1105 247.561 -30.9165 238.373 -30.9165 228.792V108.375C-30.9165 98.7943 -27.1105 89.6057 -20.3357 82.831C-13.561 76.0562 -4.37245 72.2502 5.2085 72.2502H17.2502C17.4527 62.0466 20.891 52.171 27.0691 44.0478C33.2472 35.9246 41.8458 29.9737 51.6248 27.0534C61.4037 24.1332 71.8575 24.3944 81.4783 27.7996C91.0991 31.2047 99.3897 37.5777 105.154 45.9994C110.554 53.6958 113.493 62.8488 113.583 72.2502H149.709C152.902 72.2502 155.965 73.5189 158.223 75.7771C160.482 78.0354 161.75 81.0982 161.75 84.2919V120.417C171.954 120.619 181.829 124.058 189.953 130.236C198.076 136.414 204.027 145.013 206.947 154.791C209.867 164.57 209.606 175.024 206.201 184.645C202.796 194.266 196.423 202.556 188.001 208.321C180.305 213.721 171.152 216.66 161.75 216.75V216.75V252.875C161.75 256.069 160.482 259.132 158.223 261.39C155.965 263.648 152.902 264.917 149.709 264.917ZM5.2085 96.3336C2.01485 96.3336 -1.04799 97.6022 -3.30625 99.8605C-5.5645 102.119 -6.83317 105.182 -6.83317 108.375V228.792C-6.83317 231.986 -5.5645 235.048 -3.30625 237.307C-1.04799 239.565 2.01485 240.834 5.2085 240.834H137.667V202.541C137.656 200.61 138.111 198.705 138.991 196.987C139.871 195.268 141.151 193.787 142.724 192.667C144.293 191.549 146.106 190.823 148.013 190.55C149.919 190.278 151.864 190.467 153.682 191.101C157.114 192.501 160.852 192.982 164.526 192.497C168.2 192.011 171.685 190.575 174.635 188.332C177.571 186.541 180.09 184.142 182.022 181.297C183.953 178.451 185.253 175.225 185.834 171.835C186.298 168.416 186.022 164.937 185.025 161.633C184.028 158.33 182.332 155.28 180.054 152.689C176.972 148.945 172.775 146.284 168.074 145.092C163.374 143.901 158.416 144.242 153.923 146.066C152.105 146.7 150.16 146.889 148.254 146.617C146.347 146.344 144.533 145.618 142.965 144.5C141.392 143.38 140.112 141.899 139.232 140.18C138.351 138.462 137.897 136.557 137.908 134.626V96.3336H99.3743C97.3953 96.4457 95.4192 96.0676 93.6214 95.2327C91.8235 94.3979 90.2596 93.1321 89.0684 91.5478C87.8771 89.9634 87.0954 88.1095 86.7927 86.1506C86.4899 84.1916 86.6754 82.1882 87.3327 80.3181C88.7326 76.8864 89.2135 73.1488 88.7278 69.4744C88.2421 65.8 86.8066 62.3158 84.5631 59.3656C82.7852 56.3452 80.3504 53.7635 77.4392 51.8118C74.528 49.8602 71.2149 48.5886 67.7455 48.0913C64.2761 47.594 60.7392 47.8838 57.397 48.9391C54.0548 49.9944 50.9928 51.7883 48.4381 54.1877C46.0656 56.5408 44.2087 59.3619 42.9856 62.4716C41.7625 65.5812 41.1998 68.9114 41.3335 72.2502C41.3614 75.0122 41.8918 77.7461 42.8989 80.3181C43.5355 82.1391 43.7253 84.0863 43.4524 85.9958C43.1795 87.9054 42.4518 89.7215 41.3306 91.2912C40.2094 92.8609 38.7275 94.1382 37.0096 95.0157C35.2918 95.8932 33.3883 96.3452 31.4593 96.3336H5.2085Z" fill="white"/>
</g>
<defs>
<clipPath id="clip0_1599_15211">
<rect width="225" height="210" fill="white"/>
</clipPath>
</defs>
</svg>
