<svg width="488" height="519" viewBox="0 0 488 519" fill="none" xmlns="http://www.w3.org/2000/svg">
<rect x="-68.463" y="130.061" width="167.792" height="128.952" rx="3.88408" transform="rotate(30 -68.463 130.061)" stroke="#0A0A0B" stroke-width="1.55363"/>
<path d="M-71.0778 133.036C-69.7907 130.807 -66.9401 130.043 -64.7109 131.33L73.8742 211.343C76.1034 212.63 76.8672 215.48 75.5802 217.709L67.4236 231.837L-79.2343 147.164L-71.0778 133.036Z" fill="#0A0A0B"/>
<rect x="125.537" y="181.061" width="167.792" height="128.952" rx="3.88408" transform="rotate(30 125.537 181.061)" stroke="#0A0A0B" stroke-width="1.55363"/>
<path d="M122.922 184.036C124.209 181.807 127.06 181.043 129.289 182.33L267.874 262.343C270.103 263.63 270.867 266.48 269.58 268.709L261.423 282.837L114.765 198.164L122.922 184.036Z" fill="#0A0A0B"/>
<rect x="50.5368" y="313.061" width="167.792" height="128.952" rx="3.88408" transform="rotate(30 50.5368 313.061)" stroke="#0A0A0B" stroke-width="1.55363"/>
<path d="M47.922 316.036C49.2091 313.807 52.0596 313.043 54.2889 314.33L192.874 394.343C195.103 395.63 195.867 398.48 194.58 400.709L186.423 414.837L39.7654 330.164L47.922 316.036Z" fill="#0A0A0B"/>
<rect x="202.537" y="52.0612" width="167.792" height="128.952" rx="3.88408" transform="rotate(30 202.537 52.0612)" stroke="#0A0A0B" stroke-width="1.55363"/>
<path d="M199.922 55.0365C201.209 52.8072 204.06 52.0434 206.289 53.3304L344.874 133.343C347.103 134.63 347.867 137.48 346.58 139.709L338.423 153.837L191.765 69.1641L199.922 55.0365Z" fill="#0A0A0B"/>
<rect x="9.53702" y="1.06115" width="167.792" height="128.952" rx="3.88408" transform="rotate(30 9.53702 1.06115)" stroke="#0A0A0B" stroke-width="1.55363"/>
<path d="M6.92224 4.03645C8.20931 1.80718 11.0599 1.04338 13.2891 2.33045L151.874 82.3425C154.103 83.6296 154.867 86.4802 153.58 88.7094L145.424 102.837L-1.23434 18.1641L6.92224 4.03645Z" fill="#0A0A0B"/>
<rect x="341.537" y="210.061" width="167.792" height="128.952" rx="3.88408" transform="rotate(30 341.537 210.061)" stroke="#0A0A0B" stroke-width="1.55363"/>
<path d="M338.922 213.036C340.209 210.807 343.06 210.043 345.289 211.33L483.874 291.343C486.103 292.63 486.867 295.48 485.58 297.709L477.424 311.837L330.766 227.164L338.922 213.036Z" fill="#0A0A0B"/>
<rect x="-1" y="327" width="489" height="192" fill="url(#paint0_linear_1364_36827)"/>
<defs>
<linearGradient id="paint0_linear_1364_36827" x1="243.5" y1="327" x2="243.5" y2="519" gradientUnits="userSpaceOnUse">
<stop stop-color="white" stop-opacity="0"/>
<stop offset="0.598958" stop-color="white"/>
</linearGradient>
</defs>
</svg>
