<svg width="44" height="44" fill="none" xmlns="http://www.w3.org/2000/svg"><path d="M31.167 12.833a14.19 14.19 0 1 0-18.334 18.334 14.19 14.19 0 1 0 18.334-18.334Zm-2.934 2.934c.133.689.2 1.388.202 2.09a10.852 10.852 0 0 1-.293 2.456l-4.474-4.436c.805-.191 1.63-.29 2.457-.294.701.002 1.401.07 2.09.202l.018-.018Zm-1.723 8.066a11.002 11.002 0 0 1-2.677 2.677l-6.343-6.343a10.998 10.998 0 0 1 2.677-2.677l6.343 6.343ZM11.843 26.51A10.543 10.543 0 1 1 26.51 11.843h-.458a14.227 14.227 0 0 0-14.135 14.282c0 .147.018.312.018.458l-.092-.073Zm3.85 1.632c-.132-.69-.2-1.389-.201-2.09.003-.828.102-1.652.293-2.457l4.455 4.455c-.805.191-1.63.29-2.457.293a11.221 11.221 0 0 1-1.998-.128l-.092-.073Zm10.432 8.525a10.58 10.58 0 0 1-8.708-4.602h.458a14.226 14.226 0 0 0 14.208-14.19v-.458a10.542 10.542 0 0 1-5.958 19.25Z" fill="#0A0A0B"/></svg>
