<svg width="44" height="44" fill="none" xmlns="http://www.w3.org/2000/svg"><path d="M38.5 20.167h-1.962A14.667 14.667 0 0 0 23.833 7.462V5.5a1.833 1.833 0 1 0-3.666 0v1.962A14.667 14.667 0 0 0 7.462 20.167H5.5a1.833 1.833 0 1 0 0 3.666h1.962a14.666 14.666 0 0 0 12.705 12.705V38.5a1.833 1.833 0 0 0 3.666 0v-1.962a14.667 14.667 0 0 0 12.705-12.705H38.5a1.833 1.833 0 0 0 0-3.666ZM22 33a11 11 0 1 1 0-22 11 11 0 0 1 0 22Zm0-16.5a5.5 5.5 0 1 0 0 11.001A5.5 5.5 0 0 0 22 16.5Zm0 7.333a1.834 1.834 0 1 1 0-3.668 1.834 1.834 0 0 1 0 3.668Z" fill="#0A0A0B"/></svg>
