<svg width="40" height="40" fill="none" xmlns="http://www.w3.org/2000/svg"><path d="m20.476 5.096 18.692 9.109c.486.233.832.855.832 1.498 0 .644-.346 1.266-.832 1.499l-1.345.653v5.927c.521.492.87 1.25.87 2.11 0 1.463-.987 2.679-2.174 2.679-1.188 0-2.174-1.216-2.174-2.68 0-.86.348-1.617.87-2.109v-4.655l-2.174 1.055v7.853c0 1.331-.642 2.251-1.385 3.014-.744.762-1.702 1.417-2.853 1.992C26.5 34.191 23.42 35 20 35c-3.42 0-6.5-.81-8.803-1.959-1.151-.575-2.109-1.23-2.853-1.992-.743-.763-1.385-1.683-1.385-3.014v-7.853l-6.127-2.98C.346 16.969 0 16.347 0 15.703c0-.643.346-1.265.832-1.498l18.692-9.109c.352-.158.724-.094.951 0ZM20 8.328 4.853 15.712 20 23.079l15.147-7.367L20 8.328Zm10.433 13.127-9.957 4.855a1.089 1.089 0 0 1-.951 0l-9.958-4.855v6.58c0-.21.007.083.448.536.441.452 1.204 1.005 2.174 1.49 1.94.968 4.729 1.724 7.811 1.724s5.871-.756 7.811-1.724c.97-.485 1.733-1.038 2.174-1.49.33-.34.425-.588.448-.603v-6.513Z" fill="#0A0A0B"/></svg>
