<svg width="769" height="165" fill="none" xmlns="http://www.w3.org/2000/svg"><g clip-path="url(#a)"><path d="m-480.311 121.662 21.38 2.945 31.218 1.185 34.688 1.579 31.713 2.159c.132.009.264-.008.389-.05l14.272-4.837a.974.974 0 0 0 .204-.096l12.391-7.643 21.986-12.126a.993.993 0 0 1 .458-.124l32.362-.784 26.362-.79h25.669l34.018-55.75a.999.999 0 0 1 .571-.439l16.371-4.815c.17-.05.323-.144.445-.273l16.594-17.57c.143-.152.33-.255.534-.295l17.157-3.372a1 1 0 0 0 .56-.323l8.387-9.578a1 1 0 0 1 1.313-.17l14.515 9.833c.166.112.361.172.561.172h28.004c.125 0 .249-.023.365-.07l13.489-5.298a1 1 0 0 1 .677-.02l15.91 5.225a1 1 0 0 1 .647.665l4.52 15.227a1 1 0 0 0 .292.46L-38 49.5l17.943 13.457c.038.029.074.06.107.093L-.56 82.44c.04.04.076.083.109.129L12.787 101.2c.137.194.34.332.57.39l32.923 8.354c.145.037.28.106.395.202l17.205 14.36c.08.067.148.145.204.233L74.5 141.193l29.101 1.381a1.08 1.08 0 0 0 .197-.01l36.671-5.515 19.221-5.081a.988.988 0 0 1 .412-.021l18.523 2.929 27.056 2.173H236.9l34.688-2.173 18.659-1.77a.99.99 0 0 1 .144-.004l35.309 1.774 33.3 3.358h31.827c.057 0 .114.004.17.014l15.787 2.736c.056.01.114.014.171.014h50.557l53.419 1.58 26.775 2.737c.184.018.37-.014.536-.094l22.564-10.862a1 1 0 0 0 .566-.901V117.96a1 1 0 0 1 1.054-.999l86.934 4.683 62.858-4.733c.058-.004.116-.004.174.002l33.754 3.36 20.982 3.346 17.598 3.752 29.287 2.137a1 1 0 0 0 .821-.334l51.935-58.611a.967.967 0 0 1 .122-.116l35.073-28.252a1 1 0 0 1 .553-.218l73.796-5.463a.994.994 0 0 0 .356-.095l54.031-25.776c.19-.093.41-.12.63-.078l66.87 13.376c.2.038.37.134.51.273l17.47 17.464c.2.205.31.488.29.776l-6.97 100.124V163.5c0 .552-.45 1-1 1H-528a1 1 0 0 1-1-1v-35.24a1 1 0 0 1 .883-.993l47.553-5.608a.974.974 0 0 1 .253.003Z" fill="#fff"/><path d="M-227.219 103.08h-25.669l-26.362.79-32.362.784a.993.993 0 0 0-.458.124l-21.986 12.126-12.391 7.643a.974.974 0 0 1-.204.096l-14.272 4.837a1.006 1.006 0 0 1-.389.05l-31.713-2.159-34.688-1.579-31.218-1.185-21.38-2.945a.974.974 0 0 0-.253-.003l-47.553 5.608a1 1 0 0 0-.883.993v35.24a1 1 0 0 0 1 1h1636.5c.55 0 1-.448 1-1v-20.922l6.97-100.124c.02-.288-.09-.572-.29-.776l-17.47-17.464a.974.974 0 0 0-.51-.273l-66.87-13.376a.999.999 0 0 0-.63.078L976.669 36.42a1 1 0 0 1-.356.095l-73.796 5.463a1 1 0 0 0-.553.219L866.89 70.447a1.032 1.032 0 0 0-.121.116l-51.935 58.611a1 1 0 0 1-.821.334l-29.287-2.137-17.598-3.752-20.982-3.346-33.754-3.36a1.011 1.011 0 0 0-.174-.002l-62.858 4.733-86.934-4.683a1 1 0 0 0-1.054.999v15.498a1 1 0 0 1-.566.901l-22.564 10.862a1.01 1.01 0 0 1-.536.094l-26.775-2.737-53.419-1.58h-50.557a.978.978 0 0 1-.171-.014l-15.787-2.736a.967.967 0 0 0-.17-.014H359l-33.3-3.358-35.309-1.774a.99.99 0 0 0-.144.004l-18.659 1.77-34.688 2.173h-31.219l-27.056-2.173-18.523-2.929a.988.988 0 0 0-.412.021l-19.221 5.081-36.671 5.515a1.08 1.08 0 0 1-.197.01L74.5 141.193m-301.719-38.113 18.731-.79h26.363l27.056-.79h33.9c.063 0 .125.006.186.018l16.462 3.124c.064.012.126.03.187.054l46.905 18.851a.993.993 0 0 0 .372.072h15.763l14.569 1.778 31.143 1.97c.05.003.1.01.15.021l20.738 4.526 12.488 2.962 21.385 2.16c.08.008.16.026.235.053l10.846 3.86c.093.033.19.052.288.056l3.952.188m-301.719-38.113 34.018-55.75a.999.999 0 0 1 .571-.439l16.371-4.815c.17-.05.323-.144.445-.273l16.594-17.57c.143-.152.33-.255.534-.295l17.157-3.372a1 1 0 0 0 .56-.323l8.387-9.578a1 1 0 0 1 1.313-.17l14.515 9.833c.166.112.361.172.561.172h28.004c.125 0 .249-.023.365-.07l13.489-5.298a1 1 0 0 1 .677-.02l15.91 5.225a1 1 0 0 1 .647.665l4.52 15.227a1 1 0 0 0 .292.46L-38 49.5l17.943 13.457c.038.029.074.06.107.093L-.56 82.44c.04.04.076.083.109.129L12.787 101.2c.137.194.34.332.57.39l32.923 8.354c.145.037.28.106.395.202l17.205 14.36c.08.067.148.145.204.233L74.5 141.193" stroke="#fff" stroke-width="3"/></g><defs><clipPath id="a"><path fill="#fff" d="M0 0h769v165H0z"/></clipPath></defs></svg>
