<svg width="400" height="264" fill="none" xmlns="http://www.w3.org/2000/svg"><g clip-path="url(#a)"><path d="m509.753 218.856-8.31-2.545-4.289.358-2.902 10.499-7.548 6.569-6.433.537-22.741-7.277-10.768-6.119-9.067 7.775-11.084-22.826-1.298-15.546-27.212-28.497-18.097-16.303-20.419-18.268-19.349-24.835-15.059-18.716-27.698-2.005-17.155 1.433-10.407 11.126-10.763 19.792-12.639 16.711-25.462 11.844-20.637 17.918-20.726 10.368-15.676 25.602-9.65.806-11.879 19.346-19.297 14.568-18.407-7.1-40.249 15.778-12.107-2.768-6.972-12.373-44.409-14.645-8.89 3.442-33.42-18.802-15.99 8.893-13.94 1.165-19.204 28.595-27.65 17.964-29.707 6.26-19.611 4.337-18.451-1.158-16.126 7.285-51.951 24.313-54.858 15.379-82.02 6.85-30.917-8.214-25.908 12.961-80.949 6.761-49.856 4.164-28.55-18.668-21.665 12.066-28.191-7.902-13.402 1.12-24.126-10.941-26.492-.486-23.362 17.606-38.331-6.515-32.08-15.675-19.881-5.357-39.624 10.327-26.62 30.295-26.13 23.235-37.479 16.626" stroke="#0A0A0B" stroke-width="7"/><path d="m501.443 216.311 8.31 2.545V400h-1474.09v-24.011l37.479-16.626 26.13-23.235 26.62-30.295 39.624-10.327 19.881 5.357 32.08 15.675 38.331 6.515 23.362-17.606 26.492.486 24.126 10.941 13.402-1.12 28.191 7.902 21.665-12.066 28.55 18.668 49.856-4.164 80.949-6.761 25.908-12.961 30.917 8.214 82.02-6.85 54.858-15.379 51.951-24.313 16.126-7.285 18.451 1.158 19.611-4.337 29.707-6.26 27.65-17.964 19.205-28.595 13.938-1.165 15.992-8.893 33.42 18.802 8.89-3.442 44.408 14.645 6.972 12.373 12.107 2.768 40.249-15.778 18.407 7.1 19.297-14.568 11.879-19.346 9.65-.806 15.676-25.602 20.726-10.368 20.637-17.918 25.462-11.844 12.639-16.711 10.763-19.792 10.407-11.126 17.155-1.433 27.698 2.005 15.059 18.716 19.349 24.835 20.419 18.268 18.097 16.303 27.212 28.497 1.298 15.546 11.084 22.826 9.067-7.775 10.768 6.119 22.741 7.277 6.433-.537 7.548-6.569 2.902-10.499 4.289-.358ZM318.556 62.5l-2.067-5.5a15 15 0 0 1-7.949-.185l-1.051-.315-4-1.5v7l3.54-.644a4.56 4.56 0 0 1 3.553.84 6.175 6.175 0 0 0 5.311 1.022l2.663-.718Z" fill="#0A0A0B"/><path d="M303.489 79.5V62m0 0v-7l4 1.5 1.051.315a15 15 0 0 0 7.949.185l2.067 5.5-2.663.718a6.175 6.175 0 0 1-5.311-1.023 4.56 4.56 0 0 0-3.553-.839l-3.54.644Z" stroke="#0A0A0B" stroke-width="1.773"/></g><defs><clipPath id="a"><path fill="#fff" d="M0 0h400v264H0z"/></clipPath></defs></svg>
