<svg width="274" height="371" fill="none" xmlns="http://www.w3.org/2000/svg"><path d="M270.441 100.115c-11.295 42.151-54.621 67.166-96.772 55.872-42.152-11.295-67.166-54.621-55.872-96.773 11.295-42.151 54.621-67.166 96.772-55.871 42.152 11.294 67.166 54.62 55.872 96.772Z" fill="#fff"/><path d="M150.869 88.754c6.022-9.548 17.883-13.608 28.493-9.754l25.208 9.157c11.384 4.135 17.902 16.104 15.202 27.91l-53.88 235.537c-2.691 11.765-13.7 19.701-25.712 18.536L21.755 358.655c-17.783-1.725-27.514-21.58-17.983-36.692L150.87 88.754Z" fill="#fff"/></svg>
