<svg width="40" height="40" fill="none" xmlns="http://www.w3.org/2000/svg"><path d="M33.253 2.253H6.746A6.747 6.747 0 00-.001 9v15.858a6.747 6.747 0 006.747 6.747h7.956v3.438h-2.99a1.35 1.35 0 100 2.699h16.575a1.35 1.35 0 100-2.7h-2.99v-3.437h7.956A6.748 6.748 0 0040 24.858V9a6.748 6.748 0 00-6.747-6.747zM22.598 35.048h-5.197v-3.443h5.197v3.443zm14.703-10.19a4.048 4.048 0 01-4.048 4.048H6.746a4.048 4.048 0 01-4.048-4.048V9a4.048 4.048 0 014.048-4.048h26.507A4.048 4.048 0 0137.301 9v15.858z" fill="#0A0A0B"/><path d="M33.253 2.253H6.746A6.747 6.747 0 00-.001 9v15.858a6.747 6.747 0 006.747 6.747h7.956v3.438h-2.99a1.35 1.35 0 100 2.699h16.575a1.35 1.35 0 100-2.7h-2.99v-3.437h7.956A6.748 6.748 0 0040 24.858V9a6.748 6.748 0 00-6.747-6.747zM22.598 35.048h-5.197v-3.443h5.197v3.443zm14.703-10.19a4.048 4.048 0 01-4.048 4.048H6.746a4.048 4.048 0 01-4.048-4.048V9a4.048 4.048 0 014.048-4.048h26.507A4.048 4.048 0 0137.301 9v15.858z" stroke="#0A0A0B"/></svg>