<svg width="44" height="44" fill="none" xmlns="http://www.w3.org/2000/svg"><path d="M14.667 20.166a1.833 1.833 0 1 0 0 3.666 1.833 1.833 0 0 0 0-3.666Zm7.333 0a1.833 1.833 0 1 0 0 3.666 1.833 1.833 0 0 0 0-3.666Zm7.334 0a1.833 1.833 0 1 0 0 3.667 1.833 1.833 0 0 0 0-3.666ZM22 3.666A18.333 18.333 0 0 0 3.667 22 18.132 18.132 0 0 0 7.81 33.605l-3.666 3.667a1.833 1.833 0 0 0-.385 1.998A1.833 1.833 0 0 0 5.5 40.333H22a18.334 18.334 0 0 0 0-36.666Zm0 33H9.92l1.705-1.704a1.834 1.834 0 0 0 0-2.586A14.666 14.666 0 1 1 22 36.666Z" fill="#fff"/></svg>
