<svg width="400" height="360" fill="none" xmlns="http://www.w3.org/2000/svg"><g clip-path="url(#a)"><path d="M-432.13 332.914H-455v26.481h891.334v-44.837l-41.828-16.25-8.125-6.32-20.764-10.532-33.101 1.806-13.542 3.912-26.18 11.134-4.213-6.32-58.379 29.792-76.435-4.815-16.851 3.611-18.056 9.63-14.444-3.611-7.824 1.504-26.782-23.773-18.958-4.514-6.922 2.107-24.976 12.639-16.852-2.709H-15.05l-14.445-9.93h-3.61l-15.649 6.018-9.93-8.125h-64.097l-30.694-6.018-7.222 2.106-9.63 8.426h-13.842l-9.78-4.514h-5.266l-23.472 12.037-23.472-9.93-8.426 2.407-36.412 17.454-22.569 4.815-9.329 6.319-3.31-6.319-28.588-4.815-15.648 4.815-39.12 6.319h-22.569Z" fill="#0A0A0B"/><path d="m163.889 333.617-15.538 26.079 307.543-2.698-28.933-16.187-7.501-33.273 17.175-126.891-47.847 8.727-16.851 9.93-21.065 43.032-47.678 39.722h-66.673l-23.171 25.48-16.242 4.196-33.219 21.883Z" fill="#0A0A0B"/><path d="M272.263 204.42h73.854v-1.805h-73.854v1.805Zm73.854 58.981h-73.854v1.806h73.854v-1.806Zm-.684-59.51a119.151 119.151 0 0 1 0 60.04l1.747.455a120.95 120.95 0 0 0 0-60.95l-1.747.455Zm-72.543 60.03a161.937 161.937 0 0 1 0-60.02l-1.775-.335a163.777 163.777 0 0 0 0 60.69l1.775-.335Zm-.627-.52a.64.64 0 0 1 .627.52l-1.775.335c.104.551.586.951 1.148.951v-1.806Zm73.854 1.806c.5 0 .937-.338 1.063-.821l-1.747-.455a.707.707 0 0 1 .684-.53v1.806Zm0-60.787a.706.706 0 0 1-.684-.529l1.747-.455a1.098 1.098 0 0 0-1.063-.821v1.805Zm-73.854-1.805c-.562 0-1.044.399-1.148.951l1.775.335a.639.639 0 0 1-.627.519v-1.805Z" fill="#0A0A0B"/><path d="M281.359 258.285h-16.134a.116.116 0 0 0-.116.116 6.97 6.97 0 0 0 2.049 4.936l.921.918a.169.169 0 0 0 .119.049h13.161m0-6.019v6.019m0-6.019h15.949m-15.949 6.019h15.949m0-6.019v6.019m0-6.019h23.472m-23.472 6.019h23.472m0-6.019v6.019m0-6.019h17.002m-17.002 6.019h17.002m0-6.019h16.967c.019 0 .035.016.035.035a7.428 7.428 0 0 1-2.831 5.835l-.178.141a.04.04 0 0 1-.023.008h-13.97m0-6.019v6.019" stroke="#0A0A0B" stroke-width="1.806" stroke-linejoin="round"/><rect x="275.942" y="210.137" width="7.222" height="8.426" rx="1.204" stroke="#0A0A0B" stroke-width="1.806"/><rect x="275.942" y="224.582" width="7.222" height="8.426" rx="1.204" stroke="#0A0A0B" stroke-width="1.806"/><rect x="275.942" y="239.026" width="7.222" height="8.426" rx="1.204" stroke="#0A0A0B" stroke-width="1.806"/><rect x="289.785" y="210.137" width="7.222" height="8.426" rx="1.204" stroke="#0A0A0B" stroke-width="1.806"/><rect x="289.785" y="224.582" width="7.222" height="8.426" rx="1.204" stroke="#0A0A0B" stroke-width="1.806"/><rect x="303.627" y="210.137" width="7.222" height="8.426" rx="1.204" stroke="#0A0A0B" stroke-width="1.806"/><rect x="303.627" y="224.582" width="7.222" height="8.426" rx="1.204" stroke="#0A0A0B" stroke-width="1.806"/><rect x="303.627" y="239.026" width="7.222" height="8.426" rx="1.204" stroke="#0A0A0B" stroke-width="1.806"/><rect width="10.231" height="16.852" rx="1.204" transform="matrix(-1 0 0 1 299.414 246.85)" stroke="#0A0A0B" stroke-width="1.806"/><rect x="317.469" y="210.137" width="7.222" height="8.426" rx="1.204" stroke="#0A0A0B" stroke-width="1.806"/><rect x="317.469" y="239.026" width="7.222" height="8.426" rx="1.204" stroke="#0A0A0B" stroke-width="1.806"/><rect x="331.312" y="210.137" width="7.222" height="8.426" rx="1.204" stroke="#0A0A0B" stroke-width="1.806"/><rect x="331.312" y="224.582" width="7.222" height="8.426" rx="1.204" stroke="#0A0A0B" stroke-width="1.806"/><rect x="331.312" y="239.026" width="7.222" height="8.426" rx="1.204" stroke="#0A0A0B" stroke-width="1.806"/><path d="M272.03 203.818a40.801 40.801 0 0 1 20.829-5.717h31.547a45 45 0 0 1 21.952 5.717" stroke="#0A0A0B" stroke-width="1.806"/><rect x="358.395" y="177.638" width="7.222" height="6.018" rx="1.204" stroke="#0A0A0B" stroke-width="1.806"/><rect x="370.432" y="177.638" width="7.222" height="6.018" rx="1.204" stroke="#0A0A0B" stroke-width="1.806"/><path d="m279.854 200.207 4.514-4.514m0 0h5.417m-5.417 0v-8.426h5.417v8.426m0 0 2.407 2.407" stroke="#0A0A0B" stroke-width="1.806"/><path d="M297.909 264.604v18.658m0-18.658-20.367 17.786a.602.602 0 0 1-.998-.453v-16.008c0-.517.608-.793.998-.453l20.367 17.786m0-18.658 17.63 17.63a.602.602 0 0 0 1.028-.425v-17.205m-18.658 18.658 18.658-18.658m0 0 18.657 18.658M346.358 203.516v-13.949c0-.332.27-.602.602-.602h42.25m5.898 14.551v-13.949a.603.603 0 0 0-.602-.602h-5.296m-36.562 0v-15.541c0-.332.27-.602.602-.602h35.359c.332 0 .601.27.601.602v15.541" stroke="#0A0A0B" stroke-width="1.806" stroke-linejoin="round"/><path d="m358.665 144.812-9.664 16.739c6.82-.027 21.949-2.657 27.898-12.96 5.949-10.304.72-24.821-2.638-30.792l-9.433 16.338m-6.163 10.675-4.599-7.867 1.563-2.706 9.199-.102m-6.163 10.675 6.163-10.675M362.006 172.521l2.708-13.842m17.755 13.842-4.815-25.277" stroke="#0A0A0B" stroke-width="1.806"/><path d="M354.784 151.758c5.617.802 17.935 1.324 22.268-3.01m0 0c3.371-8.185-3.009-19.058-6.62-23.472m6.62 23.472-13.842-10.532" stroke="#000" stroke-width="1.806"/><circle transform="matrix(1 0 0 -1 234.114 176.133)" fill="#313136" r="2.106"/><circle r="2.106" transform="matrix(1 0 0 -1 82.449 132.8)" fill="#313136"/><circle r="1.806" transform="matrix(-1 0 0 1 228.396 128.888)" fill="#313136"/><circle r="2.106" transform="matrix(1 0 0 -1 297.308 153.865)" fill="#313136"/><circle transform="matrix(1 0 0 -1 170.318 140.022)" fill="#313136" r="2.708"/><circle transform="matrix(1 0 0 -1 70.412 188.771)" fill="#313136" r="3.31"/><circle cx="258.151" cy="80.982" r="6.319" transform="rotate(13.265 258.151 80.982)" fill="#0A0A0B"/><path d="m271.864 79.684 47.221 11.131m-49.308-1.349 17.397 4.102" stroke="#0A0A0B" stroke-width="1.806" stroke-linecap="round" stroke-linejoin="round"/><circle cx="187.17" cy="84.051" transform="rotate(180 187.17 84.05)" fill="#313136" r="2.106"/><circle cx="338.835" cy="40.718" r="2.106" transform="rotate(180 338.835 40.718)" fill="#313136"/><circle cx="192.887" cy="36.806" r="1.806" fill="#313136"/><circle cx="123.976" cy="61.782" r="2.106" transform="rotate(180 123.976 61.782)" fill="#313136"/><circle cx="250.965" cy="47.94" transform="rotate(180 250.965 47.94)" fill="#313136" r="2.708"/><circle cx="350.872" cy="96.689" transform="rotate(180 350.872 96.69)" fill="#313136" r="3.31"/></g><defs><clipPath id="a"><path fill="#fff" d="M0 0h400v360H0z"/></clipPath></defs></svg>
