<svg width="185" height="231" fill="none" xmlns="http://www.w3.org/2000/svg"><path d="m41.808 202.227 20.49-33.747a3 3 0 0 1 3.422-1.317l28.222 8.424a3 3 0 0 1 1.959 3.908l-15.876 43.261c-.985 2.685-4.813 2.599-5.676-.128L68.355 203.7a3 3 0 0 0-3.6-2.002l-19.643 4.994c-2.603.662-4.698-2.169-3.304-4.465Z" fill="#0A0A0B"/><path d="m143.192 202.227-20.49-33.747a2.999 2.999 0 0 0-3.422-1.317l-28.222 8.424a3 3 0 0 0-1.959 3.908l15.876 43.261c.985 2.685 4.813 2.599 5.676-.128l5.994-18.928a3 3 0 0 1 3.599-2.002l19.644 4.994c2.603.662 4.698-2.169 3.304-4.465Z" fill="#0A0A0B"/><path d="m56.395 171.52 8.535-3.462c.871-.353 1.855-.275 2.697.145 2.309 1.15 6.667 2.98 12.481 4.503 6.968 1.826 29.221-5.292 40.619-9.484a3.012 3.012 0 0 1 2.422.146l10 5.139a3 3 0 0 0 4.318-2.105l.683-3.573a3 3 0 0 1 2.947-2.436h4.024a3 3 0 0 0 2.888-3.812l-.753-2.677c-.646-2.298 1.519-4.393 3.794-3.673l1.26.4a3 3 0 0 0 3.906-2.86v-4.269a3 3 0 0 1 3-3h3.82a3 3 0 0 0 2.855-3.922l-1.749-5.417a3 3 0 0 1 2.855-3.922h2.402c2.426 0 3.595-2.974 1.817-4.626a2.671 2.671 0 0 1 .048-3.956l4.671-4.133a3.002 3.002 0 0 0 .724-3.529l-2.034-4.303a3.002 3.002 0 0 1 .388-3.179l3.565-4.368a3 3 0 0 0 .148-3.596l-3.213-4.676a3 3 0 0 1 .77-4.17l1.28-.882a3 3 0 0 0 .79-4.139l-5.133-7.666a2.73 2.73 0 0 1 1.129-4 2.73 2.73 0 0 0 .94-4.248l-6.875-8.09a2.999 2.999 0 0 1-.423-3.231l1.899-3.992a3 3 0 0 0-1.932-4.187l-7.184-1.926a2.999 2.999 0 0 1-2.133-2.167l-1.963-7.815a3 3 0 0 0-2.323-2.211l-9.995-1.99a3 3 0 0 1-2.414-2.943v-5.771a3 3 0 0 0-2.641-2.979l-11.416-1.377a3.001 3.001 0 0 1-2.35-1.69l-2.51-5.275a3 3 0 0 0-3.455-1.617l-11.177 2.872a3 3 0 0 1-2.23-.298L98.622 6.79a3 3 0 0 0-2.82-.078l-8.676 4.319a3 3 0 0 1-2.63.021l-7.963-3.805a3 3 0 0 0-3.95 1.314l-3.384 6.456a3 3 0 0 1-3.08 1.578l-12.101-1.722a3 3 0 0 0-3.258 1.991L47.033 27.66a3 3 0 0 1-2.836 2.02h-9.675a3 3 0 0 0-2.941 2.41l-2.008 9.994a3 3 0 0 1-2.135 2.3l-7.925 2.208a3 3 0 0 0-2.194 2.89V64.08a3 3 0 0 1-1.32 2.486L7.02 72.63a3 3 0 0 0-.437 4.612l5.469 5.445a3 3 0 0 1 .626 3.341l-5.35 12.075a3 3 0 0 0 .898 3.582l7.25 5.649a3 3 0 0 1 .903 3.574l-4.553 10.362a3 3 0 0 0 1.447 3.911l8.768 4.214a3 3 0 0 1 1.534 3.689l-2.331 6.705a3 3 0 0 0 2.087 3.891l9.335 2.399a2.999 2.999 0 0 1 2.253 2.905v8.408a3 3 0 0 0 3 3h9.137a3 3 0 0 1 2.834 2.015l2.544 7.317a3 3 0 0 0 3.961 1.795Z" stroke="#000" stroke-width="11"/><circle cx="93" cy="93" r="81" fill="#fff" stroke="#000" stroke-width="12"/><path d="M97.442 100h30.111c.956 0 1.896-.245 2.724-.71a5.376 5.376 0 0 0 1.994-1.94c.478-.806.729-1.72.729-2.65a5.19 5.19 0 0 0-.731-2.65L112.047 57.98a5.376 5.376 0 0 0-1.994-1.94 5.562 5.562 0 0 0-2.723-.71c-.957 0-1.896.245-2.724.71a5.376 5.376 0 0 0-1.994 1.94l-5.17 8.718-10.11-17.048a5.377 5.377 0 0 0-1.994-1.94A5.567 5.567 0 0 0 82.614 47c-.957 0-1.896.245-2.725.71a5.377 5.377 0 0 0-1.994 1.94L52.73 92.05A5.187 5.187 0 0 0 52 94.7c0 .93.251 1.844.729 2.65a5.375 5.375 0 0 0 1.994 1.94c.828.465 1.768.71 2.724.71h18.901c7.49 0 13.012-3.2 16.812-9.443l9.226-15.543 4.942-8.317 14.831 24.985h-19.773L97.442 100ZM76.04 91.673l-13.19-.002 19.772-33.313 9.866 16.657-6.605 11.132c-2.524 4.05-5.391 5.526-9.843 5.526ZM49.363 129v-12.515h8.17v1.842h-5.882v3.432h5.346v1.788H51.65v3.612h5.882V129h-8.17Zm14.465 0 3.916-6.329-3.97-6.186h2.629l2.807 4.363 2.574-4.363h2.575l-3.916 6.293L74.448 129H71.82l-2.843-4.416L66.403 129h-2.575Zm17.13 0v-12.515h4.631c1.001 0 1.83.167 2.485.501.656.334 1.144.793 1.466 1.377.322.584.483 1.239.483 1.966 0 .691-.155 1.329-.465 1.913-.31.572-.793 1.037-1.448 1.395-.656.345-1.496.518-2.52.518h-2.343V129H80.96Zm2.29-6.704h2.198c.799 0 1.37-.173 1.716-.519.358-.357.537-.84.537-1.448 0-.62-.179-1.102-.537-1.448-.345-.357-.917-.536-1.716-.536h-2.199v3.951ZM96.555 129v-12.515h8.17v1.842h-5.882v3.432h5.346v1.788h-5.346v3.612h5.882V129h-8.17Zm15.073 0v-12.515h4.595c1.001 0 1.823.173 2.467.519.656.334 1.144.792 1.466 1.377.322.572.483 1.209.483 1.912 0 .763-.203 1.46-.608 2.092-.393.632-1.013 1.091-1.859 1.377l2.592 5.238h-2.628l-2.324-4.934h-1.895V129h-2.289Zm2.289-6.615h2.163c.763 0 1.323-.185 1.68-.554.358-.37.537-.858.537-1.466 0-.596-.179-1.073-.537-1.43-.345-.358-.911-.537-1.698-.537h-2.145v3.987ZM130.42 129v-10.673h-3.647v-1.842h9.6v1.842h-3.665V129h-2.288Z" fill="#0A0A0B"/><path d="M49.363 129H49.1v.263h.263V129Zm0-12.515v-.262H49.1v.262h.263Zm8.17 0h.263v-.262h-.263v.262Zm0 1.842v.263h.263v-.263h-.263Zm-5.882 0v-.263h-.263v.263h.263Zm0 3.432h-.263v.263h.263v-.263Zm5.346 0h.263v-.262h-.263v.262Zm0 1.788v.263h.263v-.263h-.263Zm-5.346 0v-.263h-.263v.263h.263Zm0 3.612h-.263v.262h.263v-.262Zm5.882 0h.263v-.263h-.263v.263Zm0 1.841v.263h.263V129h-.263Zm-7.907 0v-12.515H49.1V129h.526Zm-.263-12.252h8.17v-.525h-8.17v.525Zm7.907-.263v1.842h.526v-1.842h-.526Zm.263 1.579h-5.882v.526h5.882v-.526Zm-6.145.263v3.432h.526v-3.432h-.526Zm.263 3.695h5.346v-.525H51.65v.525Zm5.083-.263v1.788h.526v-1.788h-.526Zm.263 1.525H51.65v.526h5.346v-.526Zm-5.608.263v3.612h.525v-3.612h-.526Zm.262 3.874h5.882v-.525h-5.882v.525Zm5.62-.262V129h.525v-1.841h-.526Zm.262 1.578h-8.17v.526h8.17v-.526Zm6.295.263-.223-.138-.248.401h.471V129Zm3.916-6.329.223.139.088-.141-.09-.14-.221.142Zm-3.97-6.186v-.262h-.48l.26.404.22-.142Zm2.629 0 .221-.142-.078-.12h-.143v.262Zm2.807 4.363-.221.142.23.359.217-.368-.226-.133Zm2.574-4.363v-.262h-.15l-.076.129.226.133Zm2.575 0 .223.139.25-.401h-.473v.262Zm-3.916 6.293-.223-.138-.088.141.09.14.221-.143ZM74.448 129v.263h.482l-.26-.405-.222.142Zm-2.628 0-.221.142.078.121h.143V129Zm-2.843-4.416.221-.142-.232-.361-.216.371.227.132ZM66.403 129v.263h.151l.076-.131-.227-.132Zm-2.35.138 3.914-6.328-.447-.277-3.915 6.329.447.276Zm3.912-6.609-3.969-6.186-.442.284 3.968 6.186.443-.284Zm-4.19-5.781h2.628v-.525h-2.628v.525Zm2.407-.12 2.807 4.362.442-.285-2.807-4.362-.442.285Zm3.254 4.353 2.575-4.362-.453-.267-2.575 4.362.453.267Zm2.348-4.233h2.575v-.525h-2.575v.525Zm2.351-.401-3.915 6.293.447.277 3.915-6.293-.447-.277Zm-3.913 6.574 4.005 6.221.442-.284-4.005-6.222-.442.285Zm4.226 5.816H71.82v.526h2.628v-.526Zm-2.407.121-2.843-4.416-.442.284 2.843 4.416.442-.284Zm-3.29-4.406-2.575 4.416.454.264 2.575-4.415-.455-.265Zm-2.348 4.285h-2.575v.526h2.575v-.526Zm14.556.263h-.263v.263h.263V129Zm0-12.515v-.262h-.263v.262h.263Zm8.6 5.757.23.125.001-.002-.232-.123Zm-1.449 1.395.123.232.003-.002-.126-.23Zm-4.863.518v-.263h-.263v.263h.263Zm0 4.845v.263h.263V129h-.263Zm0-6.704h-.263v.263h.263v-.263Zm3.915-.519.186.186-.186-.186Zm0-2.896-.189.183.007.006.182-.189Zm-3.915-.536v-.263h-.263v.263h.263ZM81.222 129v-12.515h-.526V129h.526Zm-.263-12.252h4.63v-.525h-4.63v.525Zm4.63 0c.974 0 1.758.163 2.366.472l.239-.468c-.704-.358-1.576-.529-2.605-.529v.525Zm2.366.472c.614.313 1.061.736 1.355 1.27l.46-.254c-.35-.635-.88-1.129-1.576-1.484l-.239.468Zm1.355 1.27c.298.541.45 1.152.45 1.839h.526c0-.767-.17-1.467-.516-2.093l-.46.254Zm.45 1.839c0 .651-.145 1.246-.434 1.79l.464.246a4.278 4.278 0 0 0 .496-2.036h-.526Zm-.433 1.788c-.282.521-.725.952-1.343 1.289l.252.461c.693-.378 1.216-.877 1.553-1.5l-.462-.25Zm-1.34 1.287c-.606.32-1.4.488-2.398.488v.526c1.052 0 1.939-.177 2.644-.549l-.246-.465Zm-2.398.488h-2.342v.526h2.342v-.526Zm-2.605.263V129h.526v-4.845h-.526Zm.263 4.582H80.96v.526h2.288v-.526Zm0-6.178h2.2v-.526h-2.2v.526Zm2.2 0c.825 0 1.483-.177 1.901-.596l-.371-.372c-.273.273-.76.442-1.53.442v.526Zm1.901-.596c.417-.416.614-.971.614-1.634h-.526c0 .553-.16.964-.46 1.262l.372.372Zm.614-1.634c0-.672-.196-1.23-.617-1.637l-.365.378c.294.285.456.692.456 1.259h.526Zm-.61-1.631c-.419-.432-1.078-.616-1.906-.616v.526c.77 0 1.254.173 1.527.456l.379-.366Zm-1.906-.616h-2.199v.526h2.2v-.526Zm-2.462.263v3.951h.526v-3.951h-.526ZM96.556 129h-.263v.263h.263V129Zm0-12.515v-.262h-.263v.262h.263Zm8.17 0h.263v-.262h-.263v.262Zm0 1.842v.263h.263v-.263h-.263Zm-5.882 0v-.263h-.263v.263h.263Zm0 3.432h-.263v.263h.263v-.263Zm5.346 0h.263v-.262h-.263v.262Zm0 1.788v.263h.263v-.263h-.263Zm-5.346 0v-.263h-.263v.263h.263Zm0 3.612h-.263v.262h.263v-.262Zm5.882 0h.263v-.263h-.263v.263Zm0 1.841v.263h.263V129h-.263Zm-7.907 0v-12.515h-.526V129h.526Zm-.263-12.252h8.17v-.525h-8.17v.525Zm7.907-.263v1.842h.526v-1.842h-.526Zm.263 1.579h-5.882v.526h5.882v-.526Zm-6.145.263v3.432h.526v-3.432h-.526Zm.263 3.695h5.346v-.525h-5.346v.525Zm5.083-.263v1.788h.526v-1.788h-.526Zm.263 1.525h-5.346v.526h5.346v-.526Zm-5.609.263v3.612h.526v-3.612h-.526Zm.263 3.874h5.882v-.525h-5.882v.525Zm5.619-.262V129h.526v-1.841h-.526Zm.263 1.578h-8.17v.526h8.17v-.526Zm6.903.263h-.263v.263h.263V129Zm0-12.515v-.262h-.263v.262h.263Zm7.062.519-.124.232.005.002.119-.234Zm1.466 1.377-.23.126.001.002.229-.128Zm-.125 4.004-.221-.142-.002.003.223.139Zm-1.859 1.377-.085-.249-.284.096.133.269.236-.116Zm2.592 5.238v.263h.423l-.187-.38-.236.117Zm-2.628 0-.238.112.071.151h.167V129Zm-2.324-4.934.238-.112-.072-.151h-.166v.263Zm-1.895 0v-.263h-.263v.263h.263Zm0 4.934v.263h.263V129h-.263Zm0-6.615h-.263v.263h.263v-.263Zm3.843-.554-.189-.183.189.183Zm0-2.896-.189.182.003.004.186-.186Zm-3.843-.537v-.263h-.263v.263h.263ZM111.892 129v-12.515h-.526V129h.526Zm-.263-12.252h4.595v-.525h-4.595v.525Zm4.595 0c.973 0 1.749.169 2.343.488l.248-.464c-.693-.372-1.562-.549-2.591-.549v.525Zm2.348.49c.613.313 1.061.736 1.355 1.269l.46-.253c-.35-.635-.879-1.129-1.577-1.484l-.238.468Zm1.356 1.271c.298.53.449 1.123.449 1.784h.526c0-.745-.171-1.427-.517-2.041l-.458.257Zm.449 1.784c0 .714-.189 1.362-.566 1.95l.442.284c.433-.675.65-1.421.65-2.234h-.526Zm-.568 1.953c-.355.57-.92.996-1.721 1.267l.169.498c.892-.302 1.566-.794 1.998-1.487l-.446-.278Zm-1.872 1.632 2.592 5.239.472-.234-2.593-5.238-.471.233Zm2.828 4.859h-2.628v.526h2.628v-.526Zm-2.39.151-2.324-4.934-.476.224 2.324 4.934.476-.224Zm-2.562-5.085h-1.895v.526h1.895v-.526Zm-2.158.263V129h.526v-4.934h-.526Zm.263 4.671h-2.289v.526h2.289v-.526Zm0-6.089h2.163v-.526h-2.163v.526Zm2.163 0c.8 0 1.443-.193 1.869-.634l-.378-.366c-.288.298-.765.474-1.491.474v.526Zm1.869-.634c.414-.428.611-.986.611-1.649h-.526c0 .553-.161.971-.463 1.283l.378.366Zm.611-1.649c0-.652-.198-1.201-.614-1.616l-.372.372c.3.299.46.704.46 1.244h.526Zm-.611-1.613c-.417-.432-1.069-.617-1.887-.617v.526c.756 0 1.236.173 1.509.456l.378-.365Zm-1.887-.617h-2.145v.526h2.145v-.526Zm-2.408.263v3.987h.526v-3.987h-.526ZM130.42 129h-.263v.263h.263V129Zm0-10.673h.263v-.263h-.263v.263Zm-3.647 0h-.263v.263h.263v-.263Zm0-1.842v-.262h-.263v.262h.263Zm9.6 0h.263v-.262h-.263v.262Zm0 1.842v.263h.263v-.263h-.263Zm-3.665 0v-.263h-.263v.263h.263Zm0 10.673v.263h.263V129h-.263Zm-2.025 0v-10.673h-.526V129h.526Zm-.263-10.936h-3.647v.526h3.647v-.526Zm-3.384.263v-1.842h-.526v1.842h.526Zm-.263-1.579h9.6v-.525h-9.6v.525Zm9.337-.263v1.842h.526v-1.842h-.526Zm.263 1.579h-3.665v.526h3.665v-.526Zm-3.928.263V129h.526v-10.673h-.526Zm.263 10.41h-2.288v.526h2.288v-.526Z" fill="#000"/></svg>
