<svg width="44" height="44" fill="none" xmlns="http://www.w3.org/2000/svg"><path d="M6.802 29.865a1.834 1.834 0 0 0-.605-.385 1.833 1.833 0 0 0-1.394 0c-.225.087-.43.218-.605.385-.167.174-.297.38-.385.605a1.833 1.833 0 0 0 .385 1.998c.179.162.383.292.605.385a1.723 1.723 0 0 0 1.394 0c.222-.093.426-.223.605-.385a1.833 1.833 0 0 0 .385-1.998 1.834 1.834 0 0 0-.385-.605Zm6.031-15.198H38.5a1.834 1.834 0 0 0 0-3.667H12.833a1.833 1.833 0 0 0 0 3.667Zm-6.031 6.031a1.833 1.833 0 0 0-1.999-.385 2.11 2.11 0 0 0-.605.385c-.167.175-.297.38-.385.605a1.724 1.724 0 0 0 0 1.394c.093.222.223.427.385.605.179.162.383.292.605.385a1.723 1.723 0 0 0 1.394 0 2.11 2.11 0 0 0 .605-.385 2.11 2.11 0 0 0 .385-.605 1.724 1.724 0 0 0 0-1.394 1.834 1.834 0 0 0-.385-.605Zm31.698-.531H12.833a1.833 1.833 0 1 0 0 3.666H38.5a1.833 1.833 0 1 0 0-3.666ZM6.802 11.532a1.833 1.833 0 0 0-.605-.385 1.833 1.833 0 0 0-1.999.385 2.108 2.108 0 0 0-.385.605 1.723 1.723 0 0 0 0 1.393c.093.222.223.427.385.605.179.162.383.292.605.385a1.833 1.833 0 0 0 1.999-.385c.162-.178.292-.383.385-.605a1.723 1.723 0 0 0 0-1.393 2.108 2.108 0 0 0-.385-.605ZM38.5 29.333H12.833a1.833 1.833 0 0 0 0 3.667H38.5a1.834 1.834 0 0 0 0-3.667Z" fill="#fff"/></svg>
