<svg width="115" height="139" viewBox="0 0 115 139" fill="none" xmlns="http://www.w3.org/2000/svg">
<path d="M22.3583 92.3305L25.7408 17.017L36.3805 77.8692L48.9511 127.012L22.3583 92.3305Z" fill="#80EEC0"/>
<path d="M79.9658 124.424C66.8119 111.448 39.6199 86.0242 38.0564 84.4661L48.9452 127.015L79.9658 124.424Z" fill="#40E5A1"/>
<path d="M79.9553 124.418L57.3723 81.6128L102.054 76.2991L79.9553 124.418Z" fill="#00BB6F"/>
<path d="M61.9475 30.7704L57.3665 81.6067L102.049 76.3066L61.9475 30.7704Z" fill="#009A5B"/>
<path d="M61.9378 30.7793L25.744 17.0071L36.359 77.7877L38.0573 84.4813L79.9621 124.426L57.3678 81.6227L61.9378 30.7793Z" fill="#20D98C"/>
<path d="M61.942 30.7736L36.3584 77.6779L25.7415 17.0189L61.942 30.7736Z" fill="#20CF86"/>
</svg>
