<svg width="99" height="109" viewBox="0 0 99 109" fill="none" xmlns="http://www.w3.org/2000/svg">
<path d="M16.2734 68.4781L19.2993 43.7397L26.4355 47.7952L16.2734 68.4781Z" fill="#009A5B"/>
<path d="M49.668 29.667L19.2081 43.9348L26.0826 49.0567L45.5114 44.127L49.668 29.667Z" fill="#00BB6F"/>
<path d="M26.9866 91.8043L16.2734 68.478L25.9789 48.7702L45.499 43.6455L57.5451 62.6027L51.3422 79.9088L26.9866 91.8043Z" fill="#00DC82"/>
<path opacity="0.65" d="M20.865 78.4749L50.925 52.3687L56.948 61.8473L51.3425 79.9087L26.9869 91.8042L20.865 78.4749Z" fill="#80EEC0"/>
<path d="M45.4987 43.6455L49.8503 29.2769L66.7273 63.8121L57.3498 62.5114L45.4987 43.6455Z" fill="#40E5A1"/>
<path d="M51.2754 79.9776L56.8562 62.0427L66.7274 63.8124L51.2754 79.9776Z" fill="#80EEC0"/>
<path d="M81.0392 65.8677L85.4043 61.2222L83.4389 60.4841L81.0392 65.8677Z" fill="#009A5B"/>
<path d="M83.1964 52.9507L85.381 61.2719L83.2489 60.7599L81.0359 56.1352L83.1964 52.9507Z" fill="#00BB6F"/>
<path d="M74.7018 67.5825L81.0393 65.8677L83.3222 60.7335L81.1326 56.059L75.4353 56.7965L73.0507 60.8492L74.7018 67.5825Z" fill="#00DC82"/>
<path opacity="0.65" d="M78.3233 66.6025L78.5302 56.4214L75.6816 56.7901L73.0508 60.8491L74.7019 67.5825L78.3233 66.6025Z" fill="#80EEC0"/>
<path d="M81.1326 56.059L83.2432 52.8511L73.694 55.1903L75.4852 56.8198L81.1326 56.059Z" fill="#40E5A1"/>
<path d="M73.0977 60.7491L75.6584 56.8397L73.6943 55.19L73.0977 60.7491Z" fill="#80EEC0"/>
<path d="M37.6775 27.2653L44.635 19.8608L41.5024 18.6845L37.6775 27.2653Z" fill="#009A5B"/>
<path d="M41.1158 6.67717L44.5978 19.9402L41.1995 19.1241L37.6723 11.753L41.1158 6.67717Z" fill="#00BB6F"/>
<path d="M27.5768 29.9982L37.6781 27.265L41.3168 19.0817L37.8268 11.631L28.746 12.8065L24.9452 19.266L27.5768 29.9982Z" fill="#00DC82"/>
<path opacity="0.65" d="M33.3484 28.4367L33.6782 12.209L29.1378 12.7968L24.9446 19.2664L27.5762 29.9986L33.3484 28.4367Z" fill="#80EEC0"/>
<path d="M37.8267 11.6311L41.1907 6.51807L25.9704 10.2466L28.8253 12.8439L37.8267 11.6311Z" fill="#40E5A1"/>
<path d="M25.0193 19.1069L29.1008 12.8759L25.9702 10.2464L25.0193 19.1069Z" fill="#80EEC0"/>
</svg>
