<svg width="51" height="63" viewBox="0 0 51 63" fill="none" xmlns="http://www.w3.org/2000/svg">
<path d="M0.163208 39.483L3.18911 14.7446L10.3253 18.8001L0.163208 39.483Z" fill="#009A5B"/>
<path d="M33.5578 0.671875L3.0979 14.9397L9.9724 20.0616L29.4012 15.1319L33.5578 0.671875Z" fill="#00BB6F"/>
<path d="M10.8764 62.8092L0.163208 39.4829L9.86871 19.7751L29.3888 14.6504L41.4349 33.6076L35.232 50.9137L10.8764 62.8092Z" fill="#00DC82"/>
<path opacity="0.65" d="M4.75476 49.4797L34.8148 23.3735L40.8378 32.8521L35.2323 50.9135L10.8767 62.809L4.75476 49.4797Z" fill="#80EEC0"/>
<path d="M29.3884 14.6503L33.74 0.281738L50.617 34.8169L41.2395 33.5162L29.3884 14.6503Z" fill="#40E5A1"/>
<path d="M35.1652 50.9823L40.746 33.0474L50.6172 34.8171L35.1652 50.9823Z" fill="#80EEC0"/>
</svg>
