<svg width="48" height="71" viewBox="0 0 48 71" fill="none" xmlns="http://www.w3.org/2000/svg">
<path d="M0 41.8584L16.1546 0.00341797L10.6473 36.3512L8.44443 66.4574L0 41.8584Z" fill="#80EEC0"/>
<path d="M26.4348 70.8656C21.4674 61.0556 10.9337 41.567 10.3462 40.3921L8.44165 66.4597L26.4348 70.8656Z" fill="#40E5A1"/>
<path d="M26.4288 70.8595L21.7834 42.4355L47.9999 47.8892L26.4288 70.8595Z" fill="#00BB6F"/>
<path d="M33.9835 14.6143L21.7827 42.4315L47.9966 47.8929L33.9835 14.6143Z" fill="#009A5B"/>
<path d="M33.9761 14.6171L16.1592 0L10.6516 36.3027L10.3438 40.4007L26.4323 70.8655L21.7802 42.4405L33.9761 14.6171Z" fill="#20D98C"/>
<path d="M33.9787 14.6144L10.6711 36.2403L16.1547 0.00585937L33.9787 14.6144Z" fill="#20CF86"/>
</svg>
