<svg width="70" height="69" viewBox="0 0 70 69" fill="none" xmlns="http://www.w3.org/2000/svg">
<path d="M24.7355 59.6321L1.70752 22.4497L10.1119 29.1011L30.4361 64.0343L24.7355 59.6321Z" fill="#00BB6F"/>
<path d="M22.4119 21.6599L10.1387 29.1097L1.71555 22.4642L18.9089 11.0363L54.5572 6.61033L42.8748 20.1472L22.4119 21.6599Z" fill="#9EECCB"/>
<path d="M30.436 64.0337L10.1154 29.1117L22.3823 21.6529L42.8719 20.1342L49.016 57.6483L37.366 57.5606L30.436 64.0337Z" fill="#40E5A1"/>
<path d="M54.5568 6.61399L42.8837 20.1307L49.0086 57.6487L56.705 50.9228L54.5568 6.61399Z" fill="#41DF9F"/>
<path d="M37.3667 57.5632L22.3789 21.6543L42.8863 20.129L49.0133 57.649L37.3667 57.5632Z" fill="#7EECBE"/>
</svg>
