<svg width="56" height="58" viewBox="0 0 56 58" fill="none" xmlns="http://www.w3.org/2000/svg">
<path d="M12.9862 15.0234L14.7439 26.7208C15.1265 27.9972 16.8394 38.8983 16.9379 39.4988L22.1771 34.4498L13.1317 14.1588C12.9878 14.4145 12.9367 14.7184 12.9862 15.0234Z" fill="#00DC82"/>
<path d="M14.5142 13.5501C13.947 13.4364 13.3988 13.6776 13.1315 14.1584L21.9067 34.6551L26.6519 30.0818L38.7497 18.422L14.5142 13.5501Z" fill="#33E39B"/>
<path d="M41.2031 44.3653L29.5934 42.1626C28.3338 41.7314 17.5173 39.6038 16.9217 39.4825L22.1606 34.4332L42.0717 44.2525C41.811 44.3867 41.5056 44.4264 41.2031 44.3653Z" fill="#00DC82"/>
<path d="M42.6553 42.8139C42.7473 43.3857 42.4857 43.925 41.9957 44.1741L21.8699 34.6168L26.6151 30.0435L38.713 18.3837L42.6553 42.8139Z" fill="#33E39B"/>
<path opacity="0.75" d="M38.7501 18.4226L40.3909 28.5016L17.9773 25.3924L15.3448 19.4193L26.6673 15.9938L38.7501 18.4226Z" fill="#99F1CD"/>
</svg>
