<svg width="13" height="16" viewBox="0 0 13 16" fill="none" xmlns="http://www.w3.org/2000/svg">
<path d="M8.6051 13.8353L12.9702 9.18976L11.0048 8.45166L8.6051 13.8353Z" fill="#009A5B"/>
<path d="M10.7623 0.918457L12.9469 9.23966L10.8148 8.72766L8.60181 4.10296L10.7623 0.918457Z" fill="#00BB6F"/>
<path d="M2.26768 15.5504L8.60518 13.8356L10.8881 8.70136L8.69848 4.02686L3.00118 4.76436L0.616577 8.81706L2.26768 15.5504Z" fill="#00DC82"/>
<path opacity="0.65" d="M5.88921 14.5703L6.0961 4.38916L3.24751 4.75786L0.616699 8.81686L2.2678 15.5503L5.88921 14.5703Z" fill="#80EEC0"/>
<path d="M8.69849 4.02674L10.8091 0.818848L1.25989 3.15805L3.05109 4.78755L8.69849 4.02674Z" fill="#40E5A1"/>
<path d="M0.663574 8.71682L3.22427 4.80742L1.26017 3.15771L0.663574 8.71682Z" fill="#80EEC0"/>
</svg>
