<svg width="21" height="25" viewBox="0 0 21 25" fill="none" xmlns="http://www.w3.org/2000/svg">
<path d="M13.2429 21.7161L20.2004 14.3116L17.0678 13.1353L13.2429 21.7161Z" fill="#009A5B"/>
<path d="M16.6812 1.12793L20.1632 14.391L16.7649 13.5749L13.2377 6.20376L16.6812 1.12793Z" fill="#00BB6F"/>
<path d="M3.14222 24.4487L13.2435 21.7155L16.8822 13.5322L13.3922 6.08154L4.31142 7.25704L0.51062 13.7165L3.14222 24.4487Z" fill="#00DC82"/>
<path opacity="0.65" d="M8.91381 22.8874L9.24361 6.65967L4.70321 7.24747L0.51001 13.7171L3.14161 24.4493L8.91381 22.8874Z" fill="#80EEC0"/>
<path d="M13.3922 6.08178L16.7562 0.96875L1.53589 4.69728L4.39079 7.29458L13.3922 6.08178Z" fill="#40E5A1"/>
<path d="M0.584717 13.5578L4.66622 7.32677L1.53562 4.69727L0.584717 13.5578Z" fill="#80EEC0"/>
</svg>
