<svg width="540" height="403" viewBox="0 0 540 403" fill="none" xmlns="http://www.w3.org/2000/svg">
<path d="M298.628 362H473.316C478.865 362.001 484.315 360.518 489.12 357.7C493.925 354.883 497.915 350.83 500.688 345.949C503.461 341.069 504.92 335.533 504.918 329.898C504.915 324.264 503.452 318.729 500.674 313.851L383.359 107.494C380.586 102.615 376.597 98.5633 371.793 95.7461C366.989 92.929 361.539 91.4459 355.992 91.4459C350.445 91.4459 344.995 92.929 340.191 95.7461C335.387 98.5633 331.398 102.615 328.625 107.494L298.628 160.294L239.979 57.0462C237.203 52.1673 233.213 48.1161 228.407 45.2994C223.602 42.4828 218.152 41 212.603 41C207.055 41 201.604 42.4828 196.799 45.2994C191.994 48.1161 188.003 52.1673 185.228 57.0462L39.2431 313.851C36.4658 318.729 35.0024 324.264 35 329.898C34.9976 335.533 36.4563 341.069 39.2293 345.949C42.0024 350.83 45.9921 354.883 50.797 357.7C55.602 360.518 61.0529 362.001 66.6014 362H176.256C219.703 362 251.743 342.619 273.789 304.809L327.314 210.673L355.983 160.294L442.025 311.621H327.314L298.628 362ZM174.554 311.552H97.9435L212.654 109.794L269.891 210.673L231.569 278.098C216.928 302.631 200.295 311.569 174.468 311.569" fill="white"/>
</svg>
