<svg width="769" height="159" viewBox="0 0 769 159" fill="none" xmlns="http://www.w3.org/2000/svg">
<g clip-path="url(#clip0_1461_13910)">
<path d="M206.5 69V35.5M206.5 21V35.5M199 27H194C193.448 27 193 26.5523 193 26V21.5M199 27L206.5 35.5M199 27H215M206.5 35.5L215 27M215 27H220.5C221.052 27 221.5 26.5523 221.5 26V21" stroke="white" stroke-width="3" stroke-linejoin="round"/>
<path d="M472.5 117V83.5M472.5 69V83.5M465 75H460C459.448 75 459 74.5523 459 74V69.5M465 75L472.5 83.5M465 75H481M472.5 83.5L481 75M481 75H486.5C487.052 75 487.5 74.5523 487.5 74V69" stroke="white" stroke-width="3" stroke-linejoin="round"/>
<path d="M33.664 96.2815L18.1359 91.7316C17.9651 91.6816 17.784 91.678 17.6113 91.7213L-17.2433 100.465C-17.6881 100.577 -18 100.977 -18 101.435V158C-18 158.552 -17.5523 159 -17 159H1457C1457.55 159 1458 158.552 1458 158V125.592C1458 125.024 1457.53 124.57 1456.96 124.593L1347.38 128.894C1347.33 128.896 1347.28 128.901 1347.23 128.911L1311.94 135.724L1259.27 139.44C1259.19 139.446 1259.11 139.442 1259.04 139.43L1236.09 135.724L1221.74 132.621L1209.95 128.897L1190.33 120.063C1190.1 119.956 1189.83 119.946 1189.58 120.035L1177.32 124.492C1177.21 124.531 1177.09 124.552 1176.97 124.552H1163.1C1162.9 124.552 1162.71 124.495 1162.55 124.389L1150.08 116.254C1149.72 116.02 1149.25 116.041 1148.91 116.306L1144.76 119.576C1144.5 119.777 1144.16 119.841 1143.85 119.749L1115.28 111.248C1115.18 111.221 1115.09 111.207 1114.99 111.207H1100.79H1072.24C1072.14 111.207 1072.04 111.221 1071.95 111.25L1056.95 115.79C1056.79 115.838 1056.63 115.846 1056.47 115.815L1045.96 113.791C1045.63 113.728 1045.3 113.832 1045.06 114.069L1039.49 119.693C1039.36 119.826 1039.19 119.919 1039.01 119.963L1013.46 126.031C1013.26 126.078 1013.05 126.063 1012.86 125.987L997.605 119.938C997.535 119.911 997.469 119.875 997.407 119.832L974.688 104.198C974.564 104.113 974.423 104.057 974.274 104.034L952.635 100.676C952.545 100.662 952.458 100.636 952.375 100.599L939.5 94.7586L924 89.5L899.182 84.2454C899.062 84.2199 898.938 84.2169 898.817 84.2363L852.636 91.6335C852.546 91.6479 852.454 91.6499 852.364 91.6395L788.614 84.3345C788.02 84.2665 787.5 84.7306 787.5 85.328V110.8C787.5 111.061 787.398 111.311 787.215 111.498L770.612 128.5C770.371 128.747 770.021 128.852 769.684 128.779L750.312 124.568C750.262 124.557 750.212 124.55 750.162 124.547L710.775 122.069H673.541C673.423 122.069 673.306 122.048 673.195 122.007L661.742 117.786C661.632 117.745 661.515 117.724 661.397 117.724H638.106C638.036 117.724 637.965 117.717 637.896 117.702L613.4 112.448L587.416 109.672C587.314 109.661 587.212 109.665 587.112 109.686L573.425 112.448L547.8 115.862H524.822C524.766 115.862 524.71 115.857 524.654 115.848L504.827 112.461C504.776 112.453 504.725 112.44 504.676 112.423L491.334 107.935C491.066 107.845 490.772 107.872 490.525 108.011L476.651 115.812C476.592 115.845 476.53 115.872 476.466 115.893L449.598 124.488C449.467 124.53 449.33 124.545 449.193 124.531L425.079 122.097C424.897 122.079 424.723 122.01 424.576 121.9L416.777 115.996C416.66 115.908 416.526 115.846 416.383 115.816L400.838 112.475C400.755 112.457 400.674 112.429 400.598 112.39L391.487 107.793L376.25 100.719C376.159 100.677 376.062 100.648 375.962 100.635L353.05 97.5517L342.411 94.7907C342.329 94.7694 342.245 94.7586 342.16 94.7586H330.869C330.631 94.7586 330.4 94.6735 330.219 94.5187L295.774 65.0716C295.692 65.0013 295.599 64.9449 295.499 64.9044L283.53 60.0727C283.411 60.0247 283.284 60 283.156 60H268.487H258.237L238.25 61.2414H218.775L204.938 62.4828H185.975L166.5 63.7241L142.843 64.9433C142.568 64.9575 142.311 65.0841 142.133 65.2933L126.012 84.2069L116.878 96.1922C116.818 96.2705 116.747 96.3396 116.667 96.3972L106.353 103.833C106.143 103.984 105.882 104.048 105.625 104.011L82.45 100.655L56.825 98.1724L33.8648 96.3186C33.7968 96.3131 33.7295 96.3007 33.664 96.2815Z" fill="white" stroke="white" stroke-width="3"/>
<path d="M-2 55L191.5 19H224.5L277.323 35.6942C312.701 46.8749 349.022 54.8153 385.838 59.4173L446.5 67H499L654 61L813.5 39.5H847.5L897.037 51.9407C936.861 61.9422 977.765 67 1018.83 67H1077H1114.5L1251.45 51.1831C1278.44 48.0662 1305.13 42.755 1331.25 35.3023L1455 0" stroke="white" stroke-width="2"/>
</g>
<defs>
<clipPath id="clip0_1461_13910">
<rect width="769" height="159" fill="white"/>
</clipPath>
</defs>
</svg>
