<svg width="1440" height="159" fill="none" xmlns="http://www.w3.org/2000/svg"><g clip-path="url(#a)" stroke="#fff"><path d="M206.5 69V35.5m0-14.5v14.5M199 27h-5a1 1 0 0 1-1-1v-4.5m6 5.5 7.5 8.5M199 27h16m-8.5 8.5L215 27m0 0h5.5a1 1 0 0 0 1-1v-5M472.5 117V83.5m0-14.5v14.5M465 75h-5a1 1 0 0 1-1-1v-4.5m6 5.5 7.5 8.5M465 75h16m-8.5 8.5L481 75m0 0h5.5a1 1 0 0 0 1-1v-5M831.5 88V54.5m0-14.5v14.5M824 46h-5a1 1 0 0 1-1-1v-4.5m6 5.5 7.5 8.5M824 46h16m-8.5 8.5L840 46m0 0h5.5a1 1 0 0 0 1-1v-5M1093.5 117V83.5m0-14.5v14.5M1086 75h-5c-.55 0-1-.448-1-1v-4.5m6 5.5 7.5 8.5M1086 75h16m-8.5 8.5 8.5-8.5m0 0h5.5c.55 0 1-.448 1-1v-5" stroke-width="3" stroke-linejoin="round"/><path d="m33.664 96.281-15.528-4.55a1 1 0 0 0-.525-.01l-34.854 8.744a1 1 0 0 0-.757.97V158a1 1 0 0 0 1 1h1474c.55 0 1-.448 1-1v-32.408a.998.998 0 0 0-1.04-.999l-109.58 4.301a.957.957 0 0 0-.15.017l-35.29 6.813-52.67 3.716a.962.962 0 0 1-.23-.01l-22.95-3.706-14.35-3.103-11.79-3.724-19.62-8.834a.992.992 0 0 0-.75-.028l-12.26 4.457c-.11.039-.23.06-.35.06h-13.87c-.2 0-.39-.057-.55-.163l-12.47-8.135a1.01 1.01 0 0 0-1.17.052l-4.15 3.27c-.26.201-.6.265-.91.173l-28.57-8.501c-.1-.027-.19-.041-.29-.041h-42.75c-.1 0-.2.014-.29.043l-15 4.54a.99.99 0 0 1-.48.025l-10.51-2.024c-.33-.063-.66.041-.9.278l-5.57 5.624c-.13.133-.3.226-.48.27l-25.55 6.068a1 1 0 0 1-.6-.044l-15.255-6.049a.944.944 0 0 1-.198-.106l-22.719-15.634a1.001 1.001 0 0 0-.414-.164l-21.639-3.358a1.024 1.024 0 0 1-.26-.077l-12.875-5.84L924 89.5l-24.818-5.255a.998.998 0 0 0-.365-.009l-46.181 7.397a1 1 0 0 1-.272.007l-63.75-7.305a1 1 0 0 0-1.114.993V110.8a.997.997 0 0 1-.285.698L770.612 128.5a1 1 0 0 1-.928.279l-19.372-4.211a.967.967 0 0 0-.15-.021l-39.387-2.478h-37.234a.998.998 0 0 1-.346-.062l-11.453-4.221a.988.988 0 0 0-.345-.062h-23.291a.992.992 0 0 1-.21-.022l-24.496-5.254-25.984-2.776a.969.969 0 0 0-.304.014l-13.687 2.762-25.625 3.414h-22.978c-.056 0-.112-.005-.168-.014l-19.827-3.387a.879.879 0 0 1-.151-.038l-13.342-4.488a1 1 0 0 0-.809.076l-13.874 7.801c-.059.033-.121.06-.185.081l-26.868 8.595a.992.992 0 0 1-.405.043l-24.114-2.434a1.007 1.007 0 0 1-.503-.197l-7.799-5.904a.996.996 0 0 0-.394-.18l-15.545-3.341a.98.98 0 0 1-.24-.085l-9.111-4.597-15.237-7.074a.994.994 0 0 0-.288-.084l-22.912-3.083-10.639-2.761a.996.996 0 0 0-.251-.032h-11.291c-.238 0-.469-.085-.65-.24l-34.445-29.447a.998.998 0 0 0-.275-.168l-11.969-4.831a1 1 0 0 0-.374-.073h-24.919l-19.987 1.241h-19.475l-13.837 1.242h-18.963L166.5 63.724l-23.657 1.22a1 1 0 0 0-.71.35l-16.121 18.913-9.134 11.985c-.06.079-.131.148-.211.205l-10.314 7.436c-.21.151-.471.215-.728.178l-23.175-3.356-25.625-2.483-22.96-1.853a1 1 0 0 1-.201-.038Z" fill="#fff" stroke-width="3"/><path d="m-2 55 193.5-36h33l52.823 16.694a612.006 612.006 0 0 0 108.515 23.723L446.5 67H499l155-6 159.5-21.5h34l49.537 12.44A500.005 500.005 0 0 0 1018.83 67h95.67l136.95-15.817a499.843 499.843 0 0 0 79.8-15.88L1455 0" stroke-width="2"/></g><defs><clipPath id="a"><path fill="#fff" d="M0 0h1440v159H0z"/></clipPath></defs></svg>
