<svg width="769" height="454" viewBox="0 0 769 454" fill="none" xmlns="http://www.w3.org/2000/svg">
<g clip-path="url(#clip0_1461_13926)">
<path d="M654.273 53.0913C652.317 53.8773 650.182 54.3098 647.945 54.3098C638.566 54.3098 630.963 46.7071 630.963 37.3287C630.963 35.0917 631.396 32.9558 632.182 31C625.938 33.5093 621.529 39.6211 621.529 46.7627C621.529 56.1411 629.132 63.7438 638.511 63.7438C645.652 63.7438 651.764 59.3354 654.273 53.0913Z" fill="#0A0A0B" stroke="#0A0A0B" stroke-width="3" stroke-linecap="round" stroke-linejoin="round"/>
<mask id="path-2-inside-1_1461_13926" fill="white">
<rect x="685.609" y="262.969" width="7.68959" height="16.2336" rx="1"/>
</mask>
<rect x="685.609" y="262.969" width="7.68959" height="16.2336" rx="1" stroke="#0A0A0B" stroke-width="6" stroke-linejoin="round" mask="url(#path-2-inside-1_1461_13926)"/>
<rect x="601.878" y="261.688" width="5.98079" height="5.98079" rx="1" stroke="#0A0A0B" stroke-width="3" stroke-linejoin="round"/>
<rect x="614.694" y="261.688" width="5.98079" height="5.98079" rx="1" stroke="#0A0A0B" stroke-width="3" stroke-linejoin="round"/>
<rect x="632.637" y="267.668" width="7.68959" height="4.27199" rx="1" stroke="#0A0A0B" stroke-width="3" stroke-linejoin="round"/>
<rect x="649.725" y="267.668" width="7.68959" height="4.27199" rx="1" stroke="#0A0A0B" stroke-width="3" stroke-linejoin="round"/>
<path d="M644.896 261.915L663.604 263.938V277.703H627.302V263.93L644.896 261.915Z" stroke="#0A0A0B" stroke-width="3" stroke-linejoin="round"/>
<path d="M626.865 277.703L596.543 277.703L596.543 255.582L611.286 251.702L626.865 255.596L626.865 277.703Z" stroke="#0A0A0B" stroke-width="3" stroke-linejoin="round"/>
<mask id="path-9-inside-2_1461_13926" fill="white">
<rect width="7.68959" height="7.68959" rx="1" transform="matrix(-1 0 0 1 136.231 403.518)"/>
</mask>
<rect width="7.68959" height="7.68959" rx="1" transform="matrix(-1 0 0 1 136.231 403.518)" stroke="#0A0A0B" stroke-width="6" stroke-linejoin="round" mask="url(#path-9-inside-2_1461_13926)"/>
<mask id="path-10-inside-3_1461_13926" fill="white">
<rect width="7.68959" height="7.68959" rx="1" transform="matrix(-1 0 0 1 122.561 403.518)"/>
</mask>
<rect width="7.68959" height="7.68959" rx="1" transform="matrix(-1 0 0 1 122.561 403.518)" stroke="#0A0A0B" stroke-width="6" stroke-linejoin="round" mask="url(#path-10-inside-3_1461_13926)"/>
<path d="M110.39 419.96L140.712 419.96L140.712 397.838L125.969 393.959L110.39 397.853L110.39 419.96Z" stroke="#0A0A0B" stroke-width="3" stroke-linejoin="round"/>
<mask id="path-12-inside-4_1461_13926" fill="white">
<rect width="7.68959" height="7.68959" rx="1" transform="matrix(-1 0 0 1 74.7144 407.79)"/>
</mask>
<rect width="7.68959" height="7.68959" rx="1" transform="matrix(-1 0 0 1 74.7144 407.79)" stroke="#0A0A0B" stroke-width="6" stroke-linejoin="round" mask="url(#path-12-inside-4_1461_13926)"/>
<mask id="path-13-inside-5_1461_13926" fill="white">
<rect width="7.68959" height="7.68959" rx="1" transform="matrix(-1 0 0 1 61.0439 407.79)"/>
</mask>
<rect width="7.68959" height="7.68959" rx="1" transform="matrix(-1 0 0 1 61.0439 407.79)" stroke="#0A0A0B" stroke-width="6" stroke-linejoin="round" mask="url(#path-13-inside-5_1461_13926)"/>
<mask id="path-14-inside-6_1461_13926" fill="white">
<rect width="7.68959" height="7.68959" rx="1" transform="matrix(-1 0 0 1 47.3737 407.79)"/>
</mask>
<rect width="7.68959" height="7.68959" rx="1" transform="matrix(-1 0 0 1 47.3737 407.79)" stroke="#0A0A0B" stroke-width="6" stroke-linejoin="round" mask="url(#path-14-inside-6_1461_13926)"/>
<mask id="path-15-inside-7_1461_13926" fill="white">
<rect width="7.68959" height="7.68959" rx="1" transform="matrix(-1 0 0 1 20.0328 407.79)"/>
</mask>
<rect width="7.68959" height="7.68959" rx="1" transform="matrix(-1 0 0 1 20.0328 407.79)" stroke="#0A0A0B" stroke-width="6" stroke-linejoin="round" mask="url(#path-15-inside-7_1461_13926)"/>
<mask id="path-16-inside-8_1461_13926" fill="white">
<rect width="7.68959" height="7.68959" rx="1" transform="matrix(-1 0 0 1 33.7032 407.79)"/>
</mask>
<rect width="7.68959" height="7.68959" rx="1" transform="matrix(-1 0 0 1 33.7032 407.79)" stroke="#0A0A0B" stroke-width="6" stroke-linejoin="round" mask="url(#path-16-inside-8_1461_13926)"/>
<path d="M7.008 424.232L79.1951 424.232L79.1951 402.286L44.8026 398.192L7.008 402.3L7.008 413.343L7.008 424.232Z" stroke="#0A0A0B" stroke-width="3" stroke-linejoin="round"/>
<mask id="path-18-inside-9_1461_13926" fill="white">
<rect width="7.68959" height="7.68959" rx="1" transform="matrix(-1 0 0 1 105.473 402.664)"/>
</mask>
<rect width="7.68959" height="7.68959" rx="1" transform="matrix(-1 0 0 1 105.473 402.664)" stroke="#0A0A0B" stroke-width="6" stroke-linejoin="round" mask="url(#path-18-inside-9_1461_13926)"/>
<mask id="path-19-inside-10_1461_13926" fill="white">
<rect width="7.68959" height="7.68959" rx="1" transform="matrix(-1 0 0 1 91.8024 402.664)"/>
</mask>
<rect width="7.68959" height="7.68959" rx="1" transform="matrix(-1 0 0 1 91.8024 402.664)" stroke="#0A0A0B" stroke-width="6" stroke-linejoin="round" mask="url(#path-19-inside-10_1461_13926)"/>
<mask id="path-20-inside-11_1461_13926" fill="white">
<rect width="7.68959" height="7.68959" rx="1" transform="matrix(-1 0 0 1 105.473 388.993)"/>
</mask>
<rect width="7.68959" height="7.68959" rx="1" transform="matrix(-1 0 0 1 105.473 388.993)" stroke="#0A0A0B" stroke-width="6" stroke-linejoin="round" mask="url(#path-20-inside-11_1461_13926)"/>
<mask id="path-21-inside-12_1461_13926" fill="white">
<rect width="7.68959" height="7.68959" rx="1" transform="matrix(-1 0 0 1 91.8024 388.993)"/>
</mask>
<rect width="7.68959" height="7.68959" rx="1" transform="matrix(-1 0 0 1 91.8024 388.993)" stroke="#0A0A0B" stroke-width="6" stroke-linejoin="round" mask="url(#path-21-inside-12_1461_13926)"/>
<path d="M79.6321 422.524L109.954 422.524L109.954 384.494L95.2098 380.297L79.6321 384.51L79.6321 422.524Z" stroke="#0A0A0B" stroke-width="3" stroke-linejoin="round"/>
<path d="M689.454 248.76L714.868 258.038V277.703H664.041V258.038L689.454 248.76Z" stroke="#0A0A0B" stroke-width="3" stroke-linejoin="round"/>
<path d="M567.275 280.912V247.163M567.275 240.328V247.163M560.867 240.328H556.741C556.188 240.328 555.741 239.88 555.741 239.328V236.91M560.867 240.328L567.275 247.163M560.867 240.328H574.537M567.275 247.163L574.537 240.328M574.537 240.328H578.664C579.216 240.328 579.664 239.88 579.664 239.328V236.91" stroke="#0A0A0B" stroke-width="3" stroke-linejoin="round"/>
<path d="M156.31 422.742V394.119M156.31 381.73V394.119M149.902 386.857H145.775C145.223 386.857 144.775 386.409 144.775 385.857V382.158M149.902 386.857L156.31 394.119M149.902 386.857H163.572M156.31 394.119L163.572 386.857M163.572 386.857H168.126C168.678 386.857 169.126 386.409 169.126 385.857V381.73" stroke="#0A0A0B" stroke-width="3" stroke-linejoin="round"/>
<path d="M589.062 235.201H553.363C553.24 235.201 553.119 235.224 553.004 235.268L171.862 381.664C171.747 381.708 171.626 381.731 171.503 381.731H140.076" stroke="#0A0A0B" stroke-width="3" stroke-linejoin="round"/>
<path d="M715.513 276.921V247.709V232.783C715.513 232.231 715.961 231.783 716.513 231.783H723.912C724.464 231.783 724.912 232.231 724.912 232.783V276.921C724.912 277.473 724.464 277.921 723.912 277.921H716.513C715.961 277.921 715.513 277.473 715.513 276.921Z" stroke="#0A0A0B" stroke-width="3" stroke-linejoin="round"/>
<path d="M716.795 230.784V213.321V204.588C716.795 204.036 717.243 203.588 717.795 203.588H721.776C722.328 203.588 722.776 204.036 722.776 204.588V230.784C722.776 231.336 722.328 231.784 721.776 231.784H717.795C717.243 231.784 716.795 231.336 716.795 230.784Z" stroke="#0A0A0B" stroke-width="3" stroke-linejoin="round"/>
<path d="M719.358 202.734V185.126V176.248C719.358 175.776 719.74 175.393 720.212 175.393C720.684 175.393 721.067 175.776 721.067 176.248V202.734C721.067 203.206 720.684 203.588 720.212 203.588C719.74 203.588 719.358 203.206 719.358 202.734Z" stroke="black" stroke-width="3" stroke-linejoin="round"/>
<path d="M725.557 257.634H762.714V277.703H725.557V257.634ZM725.617 254.634C726.381 245.075 734.38 237.556 744.135 237.556C753.891 237.556 761.89 245.075 762.654 254.634H725.617Z" stroke="#0A0A0B" stroke-width="3"/>
<circle cx="752.252" cy="248.872" r="3.41759" stroke="#0A0A0B" stroke-width="3"/>
<rect x="403.658" y="321.495" width="11.1072" height="12.816" rx="1" stroke="#0A0A0B" stroke-width="3" stroke-linejoin="round"/>
<path d="M409.639 321.495V334.311" stroke="#0A0A0B" stroke-width="3" stroke-linejoin="round"/>
<path d="M407.075 306.971C399.997 306.971 394.26 311.752 394.26 317.651V335.166H419.891V317.651C419.891 311.752 414.154 306.971 407.075 306.971Z" stroke="#0A0A0B" stroke-width="3" stroke-linejoin="round"/>
<path d="M394.26 316.369H419.464" stroke="#0A0A0B" stroke-width="3" stroke-linejoin="round"/>
<path d="M402.803 305.689H407.075M411.347 305.689H407.075M407.075 305.689V293.727M396.396 297.145L407.075 293.727M418.183 289.883L407.075 293.727" stroke="#0A0A0B" stroke-width="3" stroke-linecap="round" stroke-linejoin="round"/>
<path d="M878.727 246.46L882.098 268.372C882.113 268.472 882.121 268.574 882.121 268.676V451.5C882.121 452.605 881.226 453.5 880.121 453.5H-352.621C-353.725 453.5 -354.621 452.605 -354.621 451.5V415.037C-354.621 414.264 -354.175 413.56 -353.476 413.229L-323.533 399.067C-323.19 398.905 -322.808 398.843 -322.432 398.89L-236.714 409.499L-209.097 413.747C-208.996 413.763 -208.895 413.771 -208.793 413.771H-175.492C-175.296 413.771 -175.102 413.799 -174.915 413.856L-136.304 425.48C-135.771 425.641 -135.195 425.572 -134.714 425.29L-101.42 405.729C-101.334 405.679 -101.245 405.635 -101.154 405.598L-72.2089 393.94C-71.2571 393.557 -70.1697 393.956 -69.6918 394.864L-54.1138 424.462C-53.7142 425.221 -52.8751 425.641 -52.028 425.505L-32.4359 422.371C-32.204 422.334 -31.9673 422.338 -31.7368 422.383L-15.1281 425.623C-14.7634 425.695 -14.3859 425.663 -14.0383 425.531L4.21686 418.635C4.50433 418.526 4.81293 418.485 5.11877 418.515L26.441 420.606L68.5812 422.308C68.6827 422.313 68.7845 422.309 68.8855 422.298L102.91 418.47L150.103 416.769C150.253 416.764 150.403 416.775 150.551 416.803L177.754 422.004C178.697 422.184 179.378 423.009 179.378 423.968V428.988C179.378 430.553 181.094 431.512 182.427 430.692L195.557 422.611C195.872 422.417 196.235 422.315 196.605 422.315H208.111C208.321 422.315 208.53 422.348 208.729 422.413L241.923 433.201C242.363 433.344 242.839 433.33 243.27 433.161L261.64 425.973C262.04 425.817 262.478 425.793 262.892 425.905L281.465 430.935C282.248 431.147 283.083 430.864 283.576 430.219L293.215 417.614C293.623 417.081 294.27 416.788 294.939 416.834L318.679 418.443C318.939 418.461 319.2 418.427 319.447 418.345L339.437 411.682C339.531 411.65 339.622 411.612 339.711 411.567L364.356 399.036C364.636 398.893 364.947 398.819 365.262 398.819H390.842H408.934C409.39 398.819 409.832 398.663 410.188 398.377L426.961 384.876C427.089 384.773 427.23 384.686 427.379 384.618L447.776 375.235C448.249 375.017 448.788 374.993 449.279 375.166L482.677 386.978C483.227 387.172 483.835 387.117 484.342 386.825L497.642 379.167L511.739 369.342L528.27 359.169C528.357 359.116 528.447 359.069 528.541 359.03L546.693 351.365C547.279 351.118 547.712 350.608 547.86 349.99L552.629 330.12C552.708 329.787 552.873 329.48 553.105 329.229L567.729 313.42C568.237 312.87 568.396 312.082 568.14 311.378L561.863 294.116C561.77 293.86 561.625 293.625 561.438 293.427L550.803 282.148C549.6 280.872 550.505 278.776 552.259 278.776H577.101H604.869H633.064H669.803H695.862H728.391C728.633 278.776 728.872 278.732 729.098 278.647L747.639 271.642C747.865 271.557 748.104 271.513 748.346 271.513H769.422C769.919 271.513 770.399 271.328 770.767 270.993L792.98 250.8C793.429 250.391 794.04 250.209 794.64 250.304L811.631 253.007C812.177 253.094 812.736 252.951 813.173 252.611L831.591 238.285C831.671 238.223 831.756 238.167 831.845 238.118L849.528 228.248C849.888 228.047 850.301 227.962 850.711 228.005L876.911 230.742C877.93 230.849 878.703 231.707 878.703 232.731V246.156C878.703 246.257 878.711 246.359 878.727 246.46Z" fill="#0A0A0B"/>
</g>
<defs>
<clipPath id="clip0_1461_13926">
<rect width="769" height="454" fill="white"/>
</clipPath>
</defs>
</svg>
