<svg width="386" height="381" viewBox="0 0 386 381" fill="none" xmlns="http://www.w3.org/2000/svg">
<path d="M216.273 161.553L174.808 198.512L158.595 180.412C156.653 178.393 154.004 177.206 151.206 177.103C148.408 177 145.679 177.988 143.594 179.859C141.509 181.73 140.231 184.338 140.028 187.134C139.826 189.929 140.715 192.694 142.509 194.847L173.09 229L230.617 177.682C232.66 175.749 233.869 173.095 233.99 170.284C234.111 167.473 233.133 164.726 231.264 162.624C229.394 160.523 226.781 159.233 223.978 159.029C221.175 158.824 218.402 159.72 216.248 161.528L216.273 161.553Z" fill="white"/>
<path d="M359.25 134.221C353.016 115.073 359.25 89.6905 347.511 73.4978C335.771 57.305 309.539 55.3214 293.427 43.6221C277.315 31.9229 267.437 7.71471 248.33 1.52098C229.83 -4.47034 207.484 9.17206 187 9.17206C166.516 9.17206 144.17 -4.47034 125.67 1.52098C106.562 7.71471 96.5229 32.3277 80.573 43.7031C64.6232 55.0785 38.229 57.5074 26.5297 73.6192C14.8304 89.731 21.0242 115.113 14.7495 134.221C8.87961 152.721 -11.3613 169.723 -11.3613 190.207C-11.3613 210.691 8.87961 227.693 14.7495 246.193C20.9837 265.341 14.7495 290.724 26.4892 306.916C38.229 323.109 64.4612 325.093 80.573 336.792C96.6848 348.491 106.522 372.78 125.67 379.014C144.13 385.006 166.516 371.363 187 371.363C207.484 371.363 229.83 385.006 248.33 379.014C267.478 372.78 277.517 348.41 293.427 336.792C309.336 325.174 335.771 322.988 347.511 306.916C359.25 290.845 353.057 265.422 359.25 246.193C365.12 227.693 385.361 210.691 385.361 190.207C385.361 169.723 365.12 152.721 359.25 134.221ZM187 316.43C162.035 316.43 137.632 309.027 116.874 295.157C96.1172 281.288 79.939 261.574 70.3855 238.51C60.832 215.446 58.3324 190.067 63.2027 165.582C68.073 141.097 80.0946 118.607 97.7471 100.954C115.4 83.3017 137.89 71.2802 162.375 66.4099C186.86 61.5395 212.239 64.0392 235.303 73.5926C258.367 83.1461 278.081 99.3244 291.95 120.082C305.82 140.839 313.222 165.243 313.222 190.207C313.222 206.783 309.958 223.196 303.614 238.51C297.271 253.824 287.973 267.739 276.253 279.46C264.532 291.181 250.617 300.478 235.303 306.821C219.989 313.165 203.576 316.43 187 316.43V316.43Z" fill="white"/>
<path d="M-120 2H119L73.5 72.5L55 182L62 271.25L121.5 316.125V361H-120V2Z" fill="white"/>
</svg>
