<svg width="769" height="237" viewBox="0 0 769 237" fill="none" xmlns="http://www.w3.org/2000/svg">
<g clip-path="url(#clip0_1460_16844)">
<path d="M668.708 108.572L668.708 67.1831C667.71 57.4097 669.475 38.5 695.5 38.5C719.042 38.5 720.716 55.2851 720.716 67.1831V90.5L721.936 112.362C721.97 112.965 721.465 113.46 720.863 113.415L669.634 109.569C669.112 109.53 668.708 109.095 668.708 108.572Z" fill="white"/>
<path d="M668.708 67.1831L668.708 108.572C668.708 109.095 669.112 109.53 669.634 109.569L720.863 113.415C721.465 113.46 721.97 112.965 721.936 112.362L720.716 90.5V67.1831M668.708 67.1831H720.716M668.708 67.1831C667.71 57.4097 669.475 38.5 695.5 38.5C719.042 38.5 720.716 55.2851 720.716 67.1831" stroke="#0A0A0B" stroke-width="3"/>
<path d="M671.446 52.0863L664.107 40.5828C663.842 40.1679 663.918 39.6222 664.287 39.2961L674.771 30.0174C675.109 29.718 675.606 29.6826 675.984 29.931L689 38.5" stroke="#0A0A0B" stroke-width="3"/>
<path d="M600.5 92.0005V105.104C600.5 105.612 600.886 106.037 601.392 106.086L652.422 110.993C652.474 110.997 652.526 110.998 652.578 110.995L667.575 110.058C668.095 110.025 668.5 109.594 668.5 109.073V90.4868C668.5 89.9421 668.058 89.5005 667.514 89.5005H652.5H638.936C638.658 89.5005 638.393 89.3833 638.207 89.1776L628.793 78.8228C628.607 78.6172 628.342 78.5 628.064 78.5H601.486C600.942 78.5 600.5 78.9416 600.5 79.4863V92.0005Z" fill="white" stroke="#0A0A0B" stroke-width="3"/>
<path d="M881 171.5L852.44 157.22C852.163 157.081 851.836 157.079 851.557 157.214L836.644 164.43C836.549 164.476 836.446 164.507 836.341 164.521L814 167.5L789 171.5L766.601 176.856C766.233 176.944 765.846 176.817 765.603 176.527L755.586 164.603C755.529 164.534 755.481 164.459 755.444 164.378L746.5 145L730.753 114.491C730.596 114.185 730.292 113.982 729.95 113.953L707 112L688 110H669.574C669.525 110 669.476 109.996 669.427 109.989L656.073 108.011C656.024 108.004 655.975 108 655.926 108H637L617.5 106H607.5H593.303C593.105 106 592.912 106.058 592.748 106.168L581.154 113.897C581.052 113.965 580.964 114.051 580.893 114.151L547.299 161.578C547.111 161.843 546.807 162 546.483 162H535.705C535.57 162 535.436 162.028 535.311 162.081L525.086 166.463C525.029 166.488 524.969 166.507 524.909 166.52L502.716 171.452C502.574 171.484 502.44 171.546 502.324 171.635L487.5 183L478.637 190.386C478.546 190.461 478.443 190.52 478.332 190.56L463.268 195.905C463.093 195.967 462.938 196.077 462.822 196.222L455.239 205.701C455.085 205.894 454.866 206.022 454.623 206.063L431.333 209.944C431.117 209.981 430.895 209.945 430.701 209.842L404.617 196.062C404.539 196.021 404.467 195.97 404.403 195.91L391.032 183.494C390.715 183.199 390.244 183.142 389.866 183.352L377.102 190.443C377.034 190.481 376.962 190.511 376.888 190.532L357.633 195.962C357.545 195.987 357.453 196 357.362 196H335.109C335.036 196 334.964 195.992 334.894 195.977L310 190.5L296.74 186.08C296.583 186.028 296.414 186.015 296.25 186.044L271.082 190.486C271.027 190.495 270.974 190.509 270.922 190.528L247.162 198.943C247.055 198.981 246.942 199 246.828 199H224.28C224.097 199 223.917 199.05 223.76 199.146L212.74 205.854C212.583 205.95 212.403 206 212.22 206H176L137.62 209.987C137.54 209.996 137.462 210.014 137.386 210.041L118.437 216.843C118.16 216.943 117.853 216.915 117.598 216.767L93.2732 202.658C93.0954 202.555 92.8901 202.509 92.6854 202.527L52.5951 205.992C52.5318 205.997 52.4682 205.997 52.4051 205.99L19.131 202.514C19.044 202.505 18.9563 202.507 18.8699 202.521L-2.63032 205.941C-2.8687 205.979 -3.11275 205.93 -3.31743 205.802L-18.3421 196.411C-18.7293 196.169 -19.2312 196.22 -19.5618 196.535L-29.3295 205.838C-29.4416 205.944 -29.577 206.024 -29.7251 206.069L-41.8589 209.803C-42.2467 209.922 -42.6682 209.795 -42.9257 209.482L-53.5968 196.491C-53.8429 196.191 -54.2399 196.061 -54.6156 196.156L-118.688 212.421C-118.891 212.472 -119.105 212.459 -119.299 212.383L-144.183 202.624C-144.388 202.544 -144.562 202.397 -144.675 202.208L-150.093 193.178C-150.332 192.781 -150.812 192.599 -151.254 192.74L-161.113 195.877C-161.361 195.956 -161.63 195.935 -161.863 195.818L-176.289 188.606C-176.428 188.536 -176.581 188.5 -176.736 188.5H-204.5H-218.268C-218.421 188.5 -218.571 188.535 -218.709 188.602L-246.265 202.139C-246.693 202.349 -247.209 202.229 -247.499 201.851L-251.279 196.937C-251.656 196.447 -252.384 196.413 -252.805 196.866L-264.703 209.68C-264.892 209.884 -265.158 210 -265.436 210H-278.723C-278.904 210 -279.082 209.951 -279.238 209.857L-290.926 202.844C-291.273 202.636 -291.712 202.658 -292.037 202.899L-310.936 216.953C-310.979 216.984 -311.024 217.012 -311.07 217.037L-322.5 223L-336.5 228L-358.816 233.951C-358.938 233.983 -359.064 233.993 -359.189 233.978L-410.404 228.011C-410.468 228.004 -410.531 227.99 -410.592 227.971L-444.883 217.037C-444.961 217.013 -445.041 216.997 -445.122 216.992L-553 210" stroke="#0A0A0B" stroke-width="3"/>
<path d="M695.589 39C695.589 39 677.589 46 679.089 66.5" stroke="#0A0A0B" stroke-width="3"/>
<path d="M697 40C697 40 715 47 713.5 67.5" stroke="#0A0A0B" stroke-width="3"/>
<path d="M696 40V40C695.334 48.9877 695.334 58.0123 696 67V67" stroke="#0A0A0B" stroke-width="3"/>
<path d="M609 107V95.9863C609 95.4416 609.442 95 609.986 95H615.014C615.558 95 616 95.4416 616 95.9863V107" stroke="#0A0A0B" stroke-width="3"/>
<path d="M673 85.5137V81.9863C673 81.4416 673.442 81 673.986 81H679.514C680.058 81 680.5 81.4416 680.5 81.9863V85.5137C680.5 86.0584 680.058 86.5 679.514 86.5H673.986C673.442 86.5 673 86.0584 673 85.5137Z" stroke="#0A0A0B" stroke-width="3"/>
<path d="M673 99.5137V95.9863C673 95.4416 673.442 95 673.986 95H679.514C680.058 95 680.5 95.4416 680.5 95.9863V99.5137C680.5 100.058 680.058 100.5 679.514 100.5H673.986C673.442 100.5 673 100.058 673 99.5137Z" stroke="#0A0A0B" stroke-width="3"/>
<path d="M647 101.014V97.9863C647 97.4416 647.442 97 647.986 97H658.014C658.558 97 659 97.4416 659 97.9863V101.014C659 101.558 658.558 102 658.014 102H647.986C647.442 102 647 101.558 647 101.014Z" stroke="#0A0A0B" stroke-width="3"/>
<path d="M609 88.0137V84.9863C609 84.4416 609.442 84 609.986 84H620.014C620.558 84 621 84.4416 621 84.9863V88.0137C621 88.5584 620.558 89 620.014 89H609.986C609.442 89 609 88.5584 609 88.0137Z" stroke="#0A0A0B" stroke-width="3"/>
<path d="M605 73.9863V77.5137C605 78.0584 605.442 78.5 605.986 78.5H611.014C611.558 78.5 612 78.0584 612 77.5137V73.9863C612 73.4416 611.558 73 611.014 73H605.986C605.442 73 605 73.4416 605 73.9863Z" fill="white" stroke="#0A0A0B" stroke-width="3"/>
<path d="M562.491 143.5V100.683C563.49 90.9097 561.725 72 535.7 72C512.158 72 510.484 88.7851 510.484 100.683V124L508.764 152.44C508.729 153.015 509.186 153.5 509.762 153.5H561.491C562.044 153.5 562.491 153.052 562.491 152.5V143.5Z" fill="white"/>
<path d="M562.491 100.683V143.5V152.5C562.491 153.052 562.044 153.5 561.491 153.5H509.762C509.186 153.5 508.729 153.015 508.764 152.44L510.484 124V100.683M562.491 100.683H510.484M562.491 100.683C563.49 90.9097 561.725 72 535.7 72C512.158 72 510.484 88.7851 510.484 100.683" stroke="#0A0A0B" stroke-width="3"/>
<path d="M438 154.5C438.405 154.5 451.941 154.215 469.7 153.838M569 152C569 152 504.563 153.097 469.7 153.838M451.7 154.5C452.9 156.1 466.866 182.833 473.7 196M469.7 153.838L486.2 187M487.7 153.838L499.7 178M506.7 153.049L515.7 173M533.2 153.049L542.2 168.5" stroke="#0A0A0B" stroke-width="3"/>
<path d="M536.7 72C536.7 72 554.7 79 553.2 99.5" stroke="#0A0A0B" stroke-width="3"/>
<path d="M535.7 72C535.7 72 517.7 79 519.2 99.5" stroke="#0A0A0B" stroke-width="3"/>
<path d="M536.7 73V73C537.366 81.9877 537.366 91.0123 536.7 100V100" stroke="#0A0A0B" stroke-width="3"/>
<path d="M539.7 113.014V109.486C539.7 108.942 539.258 108.5 538.714 108.5H533.186C532.642 108.5 532.2 108.942 532.2 109.486V113.014C532.2 113.558 532.642 114 533.186 114H538.714C539.258 114 539.7 113.558 539.7 113.014Z" stroke="#0A0A0B" stroke-width="3"/>
<path d="M539.7 127.014V123.486C539.7 122.942 539.258 122.5 538.714 122.5H533.186C532.642 122.5 532.2 122.942 532.2 123.486V127.014C532.2 127.558 532.642 128 533.186 128H538.714C539.258 128 539.7 127.558 539.7 127.014Z" stroke="#0A0A0B" stroke-width="3"/>
<path d="M468.317 125.993L509.428 125.513C510.005 125.506 510.465 125.994 510.424 126.569L508.565 152.592C508.528 153.105 508.104 153.504 507.59 153.508L456.071 153.985C455.344 153.992 454.86 153.236 455.17 152.579L467.437 126.558C467.598 126.217 467.94 125.997 468.317 125.993Z" fill="white" stroke="#0A0A0B" stroke-width="3"/>
<path d="M836.644 164.43L851.596 157.195C851.853 157.071 852.151 157.062 852.414 157.172L886.383 171.244C886.756 171.399 887 171.764 887 172.168V264.5C887 265.052 886.552 265.5 886 265.5H-552C-552.552 265.5 -553 265.052 -553 264.5V211.067C-553 210.489 -552.512 210.032 -551.935 210.069L-445.122 216.992C-445.041 216.997 -444.961 217.013 -444.883 217.037L-410.592 227.971C-410.531 227.99 -410.468 228.004 -410.404 228.011L-359.189 233.978C-359.064 233.993 -358.938 233.983 -358.816 233.951L-336.5 228L-322.5 223L-311.07 217.037C-311.024 217.012 -310.979 216.984 -310.936 216.953L-292.037 202.899C-291.712 202.658 -291.273 202.636 -290.926 202.844L-279.238 209.857C-279.082 209.951 -278.904 210 -278.723 210H-265.436C-265.158 210 -264.892 209.884 -264.703 209.68L-252.805 196.866C-252.384 196.413 -251.656 196.447 -251.279 196.937L-247.499 201.851C-247.209 202.229 -246.693 202.349 -246.266 202.139L-218.708 188.602C-218.571 188.535 -218.421 188.5 -218.268 188.5H-204.5H-176.736C-176.581 188.5 -176.428 188.536 -176.289 188.606L-161.863 195.818C-161.63 195.935 -161.361 195.956 -161.113 195.877L-151.254 192.74C-150.812 192.599 -150.332 192.781 -150.093 193.178L-144.675 202.208C-144.562 202.397 -144.388 202.544 -144.183 202.624L-119.299 212.383C-119.105 212.459 -118.891 212.472 -118.688 212.421L-54.6156 196.156C-54.2399 196.061 -53.8429 196.191 -53.5969 196.491L-42.9257 209.482C-42.6682 209.795 -42.2467 209.922 -41.8589 209.803L-29.725 206.069C-29.577 206.024 -29.4417 205.944 -29.3295 205.838L-19.5618 196.535C-19.2312 196.22 -18.7293 196.169 -18.3421 196.411L-3.31744 205.802C-3.11273 205.93 -2.86871 205.979 -2.63031 205.941L18.8699 202.521C18.9563 202.507 19.044 202.505 19.131 202.514L52.4051 205.99C52.4682 205.997 52.5319 205.997 52.5951 205.992L92.6854 202.527C92.8901 202.509 93.0954 202.555 93.2732 202.658L117.598 216.767C117.853 216.915 118.16 216.943 118.438 216.843L137.386 210.041C137.462 210.014 137.54 209.996 137.62 209.987L176 206H212.22C212.403 206 212.583 205.95 212.74 205.854L223.76 199.146C223.917 199.05 224.097 199 224.28 199H246.828C246.942 199 247.055 198.981 247.162 198.943L270.922 190.528C270.974 190.509 271.027 190.495 271.082 190.486L296.25 186.044C296.414 186.015 296.583 186.028 296.74 186.08L310 190.5L334.894 195.977C334.964 195.992 335.036 196 335.109 196H357.362C357.453 196 357.545 195.987 357.633 195.962L376.888 190.532C376.962 190.511 377.034 190.481 377.102 190.443L389.866 183.352C390.244 183.142 390.715 183.199 391.032 183.494L404.403 195.91C404.467 195.97 404.539 196.021 404.617 196.062L430.701 209.842C430.895 209.945 431.117 209.98 431.333 209.944L454.623 206.063C454.866 206.022 455.085 205.894 455.239 205.701L462.822 196.222C462.938 196.077 463.093 195.967 463.268 195.905L478.332 190.56C478.443 190.52 478.546 190.461 478.637 190.386L487.5 183L502.324 171.635C502.44 171.546 502.574 171.484 502.716 171.452L524.909 166.52C524.969 166.507 525.029 166.488 525.086 166.463L535.311 162.081C535.436 162.028 535.57 162 535.705 162H546.483C546.807 162 547.111 161.843 547.299 161.578L580.893 114.151C580.964 114.051 581.052 113.965 581.154 113.897L592.748 106.168C592.912 106.058 593.105 106 593.303 106H607.5H617.5L637 108H655.926C655.975 108 656.024 108.004 656.073 108.011L669.427 109.989C669.476 109.996 669.525 110 669.574 110H688L707 112L729.95 113.953C730.292 113.982 730.596 114.185 730.753 114.491L746.5 145L755.444 164.378C755.481 164.459 755.529 164.534 755.586 164.603L765.603 176.527C765.846 176.817 766.233 176.944 766.601 176.856L789 171.5L814 167.5L836.341 164.521C836.446 164.507 836.549 164.476 836.644 164.43Z" fill="#0A0A0B" stroke="#0A0A0B" stroke-width="3"/>
</g>
<defs>
<clipPath id="clip0_1460_16844">
<rect width="769" height="237" fill="white"/>
</clipPath>
</defs>
</svg>
