<svg width="1444" height="239" fill="none" xmlns="http://www.w3.org/2000/svg"><path d="M1223.71 80.572V39.183c-1-9.773.76-28.683 26.79-28.683 23.54 0 25.22 16.785 25.22 28.683V62.5l1.22 21.862c.03.603-.47 1.098-1.08 1.053l-51.23-3.846a.997.997 0 0 1-.92-.997Z" fill="#fff"/><path d="M1223.71 39.183v41.39c0 .523.4.957.92.996l51.23 3.846c.61.045 1.11-.45 1.08-1.053l-1.22-21.862V39.183m-52.01 0h52.01m-52.01 0c-1-9.773.76-28.683 26.79-28.683 23.54 0 25.22 16.785 25.22 28.683" stroke="#0A0A0B" stroke-width="3"/><path d="m1226.45 24.086-7.34-11.503a.992.992 0 0 1 .18-1.287l10.48-9.279c.34-.299.84-.334 1.21-.086L1244 10.5" stroke="#0A0A0B" stroke-width="3"/><path d="M1155.5 64v13.104c0 .508.39.933.89.982l51.03 4.907c.05.005.11.005.16.002l15-.937a.982.982 0 0 0 .92-.985V62.487a.986.986 0 0 0-.99-.986h-28.57a.972.972 0 0 1-.73-.323l-9.42-10.355a.972.972 0 0 0-.73-.323h-26.57c-.55 0-.99.442-.99.986v12.515Z" fill="#fff" stroke="#0A0A0B" stroke-width="3"/><path d="m1436 143.5-28.56-14.28a.994.994 0 0 0-.88-.006l-14.92 7.216a.906.906 0 0 1-.3.091L1369 139.5l-25 4-22.4 5.356c-.37.088-.75-.039-1-.329l-10.01-11.924a1.05 1.05 0 0 1-.15-.225L1301.5 117l-15.75-30.51a.986.986 0 0 0-.8-.537L1262 84l-19-2h-18.43a.917.917 0 0 1-.14-.01l-13.36-1.98a.917.917 0 0 0-.14-.01H1192l-19.5-2h-24.2c-.19 0-.39.058-.55.168l-11.6 7.73c-.1.067-.19.153-.26.253l-33.59 47.427c-.19.265-.49.422-.82.422h-10.77c-.14 0-.27.028-.4.081l-10.22 4.382a1.04 1.04 0 0 1-.18.057l-22.19 4.932c-.15.032-.28.094-.4.183L1042.5 155l-8.86 7.386c-.09.075-.2.134-.31.174l-15.06 5.345c-.18.062-.33.172-.45.317l-7.58 9.479a.98.98 0 0 1-.62.362l-23.287 3.881a.99.99 0 0 1-.632-.102l-26.084-13.78a.978.978 0 0 1-.214-.152l-13.371-12.416a1 1 0 0 0-1.166-.142l-12.764 7.091a.998.998 0 0 1-.214.089l-19.255 5.43a.996.996 0 0 1-.271.038h-22.253c-.073 0-.145-.008-.215-.023L865 162.5l-13.26-4.42a1.005 1.005 0 0 0-.49-.036l-25.168 4.442a.876.876 0 0 0-.16.042l-23.76 8.415a.998.998 0 0 1-.334.057H779.28a.996.996 0 0 0-.52.146l-11.02 6.708a.996.996 0 0 1-.52.146H731l-38.38 3.987c-.08.009-.158.027-.234.054l-18.949 6.802a.997.997 0 0 1-.839-.076l-24.325-14.109a.999.999 0 0 0-.588-.131l-40.09 3.465a1.005 1.005 0 0 1-.19-.002l-33.274-3.476a.991.991 0 0 0-.261.007l-21.5 3.42a.997.997 0 0 1-.687-.139l-15.025-9.391a1 1 0 0 0-1.22.124l-9.767 9.303a1.01 1.01 0 0 1-.396.231l-12.134 3.734a1.002 1.002 0 0 1-1.067-.321l-10.671-12.991a1 1 0 0 0-1.019-.335l-64.072 16.265a1.005 1.005 0 0 1-.611-.038l-24.884-9.759a.997.997 0 0 1-.492-.416l-5.418-9.03a1 1 0 0 0-1.161-.438l-9.859 3.137a.997.997 0 0 1-.75-.059l-14.426-7.212a.993.993 0 0 0-.447-.106h-41.532c-.153 0-.303.035-.441.102l-27.556 13.537a1 1 0 0 1-1.234-.288l-3.78-4.914a1.001 1.001 0 0 0-1.526-.071l-11.898 12.814a1 1 0 0 1-.733.32h-13.287a.997.997 0 0 1-.515-.143l-11.688-7.013a1.002 1.002 0 0 0-1.111.055l-18.899 14.054a1.25 1.25 0 0 1-.134.084L232.5 195l-14 5-22.316 5.951a.999.999 0 0 1-.373.027l-51.215-5.967a.999.999 0 0 1-.188-.04l-34.291-10.934a1.029 1.029 0 0 0-.239-.045L2 182M1250.59 11s-18 7-16.5 27.5M1252 12s18 7 16.5 27.5M1251 12c-.67 8.988-.67 18.012 0 27" stroke="#0A0A0B" stroke-width="3"/><path d="M1164 79V67.986c0-.544.44-.986.99-.986h5.02c.55 0 .99.442.99.986V79M1228 57.514v-3.528c0-.544.44-.986.99-.986h5.52c.55 0 .99.442.99.986v3.528c0 .544-.44.986-.99.986h-5.52a.986.986 0 0 1-.99-.986ZM1228 71.514v-3.528c0-.544.44-.986.99-.986h5.52c.55 0 .99.442.99.986v3.528c0 .544-.44.986-.99.986h-5.52a.986.986 0 0 1-.99-.986ZM1202 73.014v-3.028c0-.544.44-.986.99-.986h10.02c.55 0 .99.442.99.986v3.028c0 .544-.44.986-.99.986h-10.02a.986.986 0 0 1-.99-.986ZM1164 60.014v-3.028c0-.544.44-.986.99-.986h10.02c.55 0 .99.442.99.986v3.028c0 .544-.44.986-.99.986h-10.02a.986.986 0 0 1-.99-.986Z" stroke="#0A0A0B" stroke-width="3"/><path d="M1160 45.986v3.528c0 .544.44.986.99.986h5.02c.55 0 .99-.442.99-.986v-3.528a.986.986 0 0 0-.99-.986h-5.02c-.55 0-.99.442-.99.986Z" fill="#fff" stroke="#0A0A0B" stroke-width="3"/><path d="M1117.49 115.5V72.683c1-9.773-.76-28.683-26.79-28.683-23.54 0-25.22 16.785-25.22 28.683V96l-1.72 28.44c-.03.575.43 1.06 1 1.06h51.73c.55 0 1-.448 1-1v-9Z" fill="#fff"/><path d="M1117.49 72.683V124.5c0 .552-.45 1-1 1h-51.73c-.57 0-1.03-.485-1-1.06l1.72-28.44V72.683m52.01 0h-52.01m52.01 0c1-9.773-.76-28.683-26.79-28.683-23.54 0-25.22 16.785-25.22 28.683" stroke="#0A0A0B" stroke-width="3"/><path d="M993 126.5c.405 0 13.94-.285 31.7-.662M1124 124s-64.44 1.097-99.3 1.838m-18 .662c1.2 1.6 15.17 28.333 22 41.5m-4-42.162L1041.2 159m1.5-33.162 12 24.162m7-24.951 9 19.951m17.5-19.951 9 15.451M1091.7 44s18 7 16.5 27.5M1090.7 44s-18 7-16.5 27.5M1091.7 45c.67 8.988.67 18.012 0 27M1094.7 85.014v-3.528a.986.986 0 0 0-.99-.986h-5.52c-.55 0-.99.442-.99.986v3.528c0 .544.44.986.99.986h5.52c.55 0 .99-.442.99-.986ZM1094.7 99.014v-3.528a.986.986 0 0 0-.99-.986h-5.52c-.55 0-.99.442-.99.986v3.528c0 .544.44.986.99.986h5.52c.55 0 .99-.442.99-.986Z" stroke="#0A0A0B" stroke-width="3"/><path d="m1023.32 97.993 41.11-.48a.981.981 0 0 1 .99 1.056l-1.86 26.023a.98.98 0 0 1-.97.916l-51.52.477a.984.984 0 0 1-.9-1.406l12.27-26.02c.16-.342.5-.562.88-.566Z" fill="#fff" stroke="#0A0A0B" stroke-width="3"/><path d="m1391.64 136.43 14.96-7.235a.979.979 0 0 1 .81-.023l33.97 14.072c.38.155.62.52.62.924V236.5c0 .552-.45 1-1 1H3a1 1 0 0 1-1-1v-53.433a1 1 0 0 1 1.065-.998l106.813 6.923c.081.005.161.021.239.045l34.291 10.934a.999.999 0 0 0 .188.04l51.215 5.967a.999.999 0 0 0 .373-.027L218.5 200l14-5 11.43-5.963a1.25 1.25 0 0 0 .134-.084l18.899-14.054a1.002 1.002 0 0 1 1.111-.055l11.688 7.013a.997.997 0 0 0 .515.143h13.287a1 1 0 0 0 .733-.32l11.898-12.814a1.001 1.001 0 0 1 1.526.071l3.78 4.914a.998.998 0 0 0 1.233.288l27.558-13.537a1 1 0 0 1 .44-.102h41.532c.155 0 .308.036.447.106l14.426 7.212a.997.997 0 0 0 .75.059l9.859-3.137a1 1 0 0 1 1.161.438l5.418 9.03a.997.997 0 0 0 .492.416l24.884 9.759c.194.076.408.089.611.038l64.072-16.265a1 1 0 0 1 1.019.335l10.671 12.991c.258.313.679.44 1.067.321l12.134-3.734a1.01 1.01 0 0 0 .396-.231l9.767-9.303a1 1 0 0 1 1.22-.124l15.025 9.391a.997.997 0 0 0 .687.139l21.5-3.42a.991.991 0 0 1 .261-.007l33.274 3.476c.063.007.127.007.19.002l40.09-3.465a.999.999 0 0 1 .588.131l24.325 14.109a.999.999 0 0 0 .84.076l18.948-6.802c.076-.027.154-.045.234-.054L731 178h36.22c.183 0 .363-.05.52-.146l11.02-6.708a.996.996 0 0 1 .52-.146h22.548a.998.998 0 0 0 .334-.057l23.76-8.415a.876.876 0 0 1 .16-.042l25.168-4.442c.164-.029.333-.016.49.036L865 162.5l24.894 5.477c.07.015.142.023.215.023h22.253a.996.996 0 0 0 .271-.038l19.255-5.43a.998.998 0 0 0 .214-.089l12.764-7.091a1 1 0 0 1 1.166.142l13.371 12.416c.064.06.136.111.214.152l26.084 13.78a.997.997 0 0 0 .632.102l23.287-3.881a.98.98 0 0 0 .62-.362l7.58-9.479c.12-.145.27-.255.45-.317l15.06-5.345c.11-.04.22-.099.31-.174l8.86-7.386 14.82-11.365c.12-.089.25-.151.4-.183l22.19-4.932c.06-.013.12-.032.18-.057l10.22-4.382c.13-.053.26-.081.4-.081h10.77c.33 0 .63-.157.82-.422l33.59-47.427c.07-.1.16-.186.26-.254l11.6-7.73c.16-.109.36-.167.55-.167h24.2l19.5 2h18.93c.05 0 .09.004.14.01l13.36 1.98c.05.006.09.01.14.01H1243l19 2 22.95 1.953c.34.03.65.232.8.538L1301.5 117l8.94 19.378c.04.081.09.156.15.225l10.01 11.924c.25.29.63.417 1 .329l22.4-5.356 25-4 22.34-2.979a.906.906 0 0 0 .3-.091Z" fill="#0A0A0B" stroke="#0A0A0B" stroke-width="3"/></svg>
