<svg width="538" height="256" fill="none" xmlns="http://www.w3.org/2000/svg"><circle cx="108.5" cy="229.5" transform="rotate(180 108.5 229.5)" fill="#303036" r="3.5"/><circle cx="360.5" cy="157.5" r="3.5" transform="rotate(180 360.5 157.5)" fill="#303036"/><circle cx="433" cy="74" r="5" transform="rotate(180 433 74)" fill="#303036"/><circle cx="300" cy="115" r="5" transform="rotate(180 300 115)" fill="#303036"/><circle cx="118" cy="151" r="3" fill="#303036"/><circle cx="9" cy="19" r="5" fill="#303036"/><circle cx="474.5" cy="223.5" r="2.5" transform="rotate(180 474.5 223.5)" fill="#303036"/><circle cx="535.5" cy="127.5" r="2.5" transform="rotate(180 535.5 127.5)" fill="#303036"/><circle cx="267.5" cy="50.5" r="2.5" transform="rotate(180 267.5 50.5)" fill="#303036"/><circle cx="354.5" cy="2.5" r="2.5" transform="rotate(180 354.5 2.5)" fill="#303036"/><circle cx="50.5" cy="103.5" r="2.5" transform="rotate(180 50.5 103.5)" fill="#303036"/><circle cx="3.5" cy="192.5" r="3.5" transform="rotate(180 3.5 192.5)" fill="#303036"/><circle cx="154" cy="78" transform="rotate(180 154 78)" fill="#303036" r="4"/><circle cx="223" cy="93" transform="rotate(180 223 93)" fill="#303036" r="4"/><circle cx="177" cy="5" transform="rotate(180 177 5)" fill="#303036" r="5"/><circle cx="214.5" cy="169.5" transform="rotate(180 214.5 169.5)" fill="#303036" r="4.5"/><circle cx="380.5" cy="250.5" transform="rotate(180 380.5 250.5)" fill="#303036" r="5.5"/></svg>
