<svg width="555" height="521" fill="none" xmlns="http://www.w3.org/2000/svg"><rect y="1.5" width="75.191" height="75.191" rx="3.168" transform="matrix(.86603 .5 -.86603 .5 91.016 170.047)" stroke="#000" stroke-width="3"/><rect y="1.5" width="75.191" height="75.191" rx="3.168" transform="matrix(.86603 .5 -.86603 .5 178.946 119.283)" stroke="#000" stroke-width="3"/><rect y="1.5" width="75.191" height="75.191" rx="3.168" transform="matrix(.86603 .5 -.86603 .5 266.874 68.516)" stroke="#000" stroke-width="3"/><rect y="1.5" width="75.191" height="75.191" rx="3.168" transform="matrix(.86603 .5 -.86603 .5 354.804 17.75)" stroke="#000" stroke-width="3"/><rect y="1.5" width="75.191" height="75.191" rx="3.168" transform="matrix(.86603 .5 -.86603 .5 178.945 220.814)" stroke="#000" stroke-width="3"/><rect y="1.5" width="75.191" height="75.191" rx="3.168" transform="matrix(.86603 .5 -.86603 .5 266.875 271.581)" stroke="#000" stroke-width="3"/><rect y="1.5" width="75.191" height="75.191" rx="3.168" transform="matrix(.86603 .5 -.86603 .5 354.804 322.346)" stroke="#000" stroke-width="3"/><rect y="1.5" width="75.191" height="75.191" rx="3.168" transform="matrix(.86603 .5 -.86603 .5 442.734 373.113)" stroke="#000" stroke-width="3"/><rect y="1.5" width="75.191" height="75.191" rx="3.168" transform="matrix(.86603 .5 -.86603 .5 530.663 423.879)" stroke="#000" stroke-width="3"/><mask id="a" fill="#fff"><rect width="78.191" height="78.191" rx="4.668" transform="matrix(.86603 .5 -.86603 .5 265.576 169.298)"/></mask><rect width="78.191" height="78.191" rx="4.668" transform="matrix(.86603 .5 -.86603 .5 265.576 169.298)" stroke="#000" stroke-width="20" mask="url(#a)"/><mask id="b" fill="#fff"><rect width="78.191" height="78.191" rx="4.668" transform="matrix(.86603 .5 -.86603 .5 353.505 220.064)"/></mask><rect width="78.191" height="78.191" rx="4.668" transform="matrix(.86603 .5 -.86603 .5 353.505 220.064)" stroke="#000" stroke-width="20" mask="url(#b)"/><mask id="c" fill="#fff"><rect width="78.191" height="78.191" rx="4.668" transform="matrix(.86603 .5 -.86603 .5 441.434 270.83)"/></mask><rect width="78.191" height="78.191" rx="4.668" transform="matrix(.86603 .5 -.86603 .5 441.434 270.83)" stroke="#000" stroke-width="20" mask="url(#c)"/><rect width="78.191" height="78.191" rx="4.668" transform="matrix(.86603 .5 -.86603 .5 529.364 321.596)" fill="#0A0A0B"/><rect y="1.5" width="75.191" height="75.191" rx="3.168" transform="matrix(.86603 .5 -.86603 .5 618.593 373.113)" stroke="#000" stroke-width="3"/><rect width="78.191" height="78.191" rx="4.668" transform="matrix(.86603 .5 -.86603 .5 353.506 118.532)" fill="#0A0A0B"/><rect y="1.5" width="75.191" height="75.191" rx="3.168" transform="matrix(.86603 .5 -.86603 .5 442.734 170.048)" stroke="#000" stroke-width="3"/><rect y="1.5" width="75.191" height="75.191" rx="3.168" transform="matrix(.86603 .5 -.86603 .5 530.663 220.814)" stroke="#000" stroke-width="3"/><rect y="1.5" width="75.191" height="75.191" rx="3.168" transform="matrix(.86603 .5 -.86603 .5 618.593 271.58)" stroke="#000" stroke-width="3"/><rect y="1.5" width="75.191" height="75.191" rx="3.168" transform="matrix(.86603 .5 -.86603 .5 442.733 68.516)" stroke="#000" stroke-width="3"/><rect y="1.5" width="75.191" height="75.191" rx="3.168" transform="matrix(.86603 .5 -.86603 .5 530.663 119.282)" stroke="#000" stroke-width="3"/><rect y="1.5" width="75.191" height="75.191" rx="3.168" transform="matrix(.86603 .5 -.86603 .5 618.592 170.048)" stroke="#000" stroke-width="3"/><path d="M533.75 362.616 266.429 211.378c-1.498-.847-1.508-3.002-.018-3.863l87.114-50.34" stroke="#0A0A0B" stroke-width="8.9"/></svg>
