<svg width="1440" height="354" viewBox="0 0 1440 354" fill="none" xmlns="http://www.w3.org/2000/svg">
<g clip-path="url(#clip0_1315_13718)">
<path d="M1474.26 173.856L1465.95 171.311L1461.67 171.669L1458.76 182.168L1451.21 188.737L1444.78 189.274L1422.04 181.997L1411.27 175.878L1402.21 183.653L1391.12 160.827L1389.82 145.281L1362.61 116.784L1344.52 100.481L1324.1 82.2129L1304.75 57.3777L1289.69 38.662L1261.99 36.6569L1244.84 38.0898L1234.43 49.2157L1223.67 69.0085L1211.03 85.7191L1185.56 97.5627L1164.93 115.481L1144.2 125.849L1128.52 151.451L1118.88 152.257L1107 171.603L1087.7 186.171L1069.29 179.071L1029.04 194.849L1016.94 192.081L1009.96 179.708L965.556 165.063L956.666 168.505L923.246 149.703L907.254 158.596L893.316 159.761L874.112 188.356L846.462 206.32L816.754 212.58L797.143 216.917L778.692 215.759L762.566 223.044L710.615 247.357L655.758 262.736L573.737 269.586L542.821 261.372L516.912 274.333L435.963 281.094L386.108 285.258L357.557 266.59L335.892 278.656L307.701 270.754L294.299 271.874L270.173 260.933L243.681 260.447L220.32 278.053L181.988 271.538L149.909 255.863L130.028 250.506L90.4035 260.833L63.7834 291.128L37.6532 314.363L0.174632 330.989" stroke="#0A0A0B" stroke-width="7"/>
<path d="M1465.95 171.311L1474.26 173.856L1474.26 355L0.174534 355L0.174632 330.989L37.6532 314.363L63.7834 291.128L90.4035 260.833L130.028 250.506L149.909 255.863L181.988 271.538L220.32 278.053L243.681 260.447L270.173 260.933L294.299 271.874L307.701 270.754L335.892 278.656L357.557 266.59L386.108 285.258L435.963 281.094L516.912 274.333L542.821 261.372L573.737 269.586L655.758 262.736L710.615 247.357L762.566 223.044L778.692 215.759L797.143 216.917L816.754 212.58L846.462 206.32L874.112 188.356L893.316 159.761L907.254 158.596L923.246 149.703L956.666 168.505L965.556 165.063L1009.96 179.708L1016.94 192.081L1029.04 194.849L1069.29 179.071L1087.7 186.171L1107 171.603L1118.88 152.257L1128.52 151.451L1144.2 125.849L1164.93 115.481L1185.56 97.5627L1211.03 85.7191L1223.67 69.0085L1234.43 49.2157L1244.84 38.0898L1261.99 36.6569L1289.69 38.662L1304.75 57.3777L1324.1 82.2129L1344.52 100.481L1362.61 116.784L1389.82 145.281L1391.12 160.827L1402.21 183.653L1411.27 175.878L1422.04 181.997L1444.78 189.274L1451.21 188.737L1458.76 182.168L1461.67 171.669L1465.95 171.311Z" fill="#0A0A0B"/>
<path d="M1282.07 18.5L1280 13C1277.38 13.6545 1274.64 13.5907 1272.05 12.8152L1271 12.5L1267 11V18L1270.54 17.3563C1271.79 17.1291 1273.08 17.4331 1274.09 18.1952C1275.61 19.3344 1277.57 19.7114 1279.4 19.2175L1282.07 18.5Z" fill="#0A0A0B"/>
<path d="M1267 35.5V18M1267 18V11L1271 12.5L1272.05 12.8152C1274.64 13.5907 1277.38 13.6545 1280 13V13L1282.07 18.5L1279.4 19.2175C1277.57 19.7114 1275.61 19.3344 1274.09 18.1952V18.1952C1273.08 17.4331 1271.79 17.1291 1270.54 17.3563L1267 18Z" stroke="#0A0A0B" stroke-width="1.77281"/>
</g>
<defs>
<clipPath id="clip0_1315_13718">
<rect width="1440" height="354" fill="white"/>
</clipPath>
</defs>
</svg>
