<svg width="40" height="42" viewBox="0 0 40 42" fill="none" xmlns="http://www.w3.org/2000/svg">
<path d="M11.6029 27.4902C11.2614 27.8337 11.0698 28.2983 11.0698 28.7827C11.0698 29.267 11.2614 29.7317 11.6029 30.0752C11.7733 30.247 11.9761 30.3834 12.1995 30.4765C12.4229 30.5696 12.6625 30.6175 12.9046 30.6175C13.1466 30.6175 13.3862 30.5696 13.6096 30.4765C13.833 30.3834 14.0358 30.247 14.2062 30.0752C14.5477 29.7317 14.7393 29.267 14.7393 28.7827C14.7393 28.2983 14.5477 27.8337 14.2062 27.4902C14.0358 27.3183 13.833 27.1819 13.6096 27.0889C13.3862 26.9958 13.1466 26.9479 12.9046 26.9479C12.6625 26.9479 12.4229 26.9958 12.1995 27.0889C11.9761 27.1819 11.7733 27.3183 11.6029 27.4902ZM11.6029 11.9252C11.2614 12.2687 11.0698 12.7333 11.0698 13.2177C11.0698 13.702 11.2614 14.1667 11.6029 14.5102C11.7733 14.682 11.9761 14.8184 12.1995 14.9115C12.4229 15.0046 12.6625 15.0525 12.9046 15.0525C13.1466 15.0525 13.3862 15.0046 13.6096 14.9115C13.833 14.8184 14.0358 14.682 14.2062 14.5102C14.5477 14.1667 14.7393 13.702 14.7393 13.2177C14.7393 12.7333 14.5477 12.2687 14.2062 11.9252C14.0358 11.7533 13.833 11.6169 13.6096 11.5239C13.3862 11.4308 13.1466 11.3829 12.9046 11.3829C12.6625 11.3829 12.4229 11.4308 12.1995 11.5239C11.9761 11.6169 11.7733 11.7533 11.6029 11.9252ZM20.6779 30.2585C20.3153 30.2585 19.9608 30.366 19.6593 30.5675C19.3578 30.7689 19.1229 31.0553 18.9841 31.3903C18.8453 31.7253 18.809 32.0939 18.8798 32.4495C18.9505 32.8051 19.1251 33.1318 19.3815 33.3882C19.6379 33.6446 19.9646 33.8192 20.3202 33.8899C20.6758 33.9607 21.0445 33.9244 21.3795 33.7856C21.7145 33.6469 22.0008 33.4119 22.2022 33.1104C22.4037 32.8089 22.5112 32.4544 22.5112 32.0918C22.5237 31.8435 22.4854 31.5952 22.3989 31.3621C22.3123 31.129 22.1793 30.9159 22.0078 30.7358C21.8363 30.5557 21.6299 30.4124 21.4013 30.3146C21.1727 30.2168 20.9266 30.1665 20.6779 30.1668V30.2585ZM9.67788 19.2585C9.31528 19.2585 8.96083 19.366 8.65934 19.5675C8.35785 19.7689 8.12286 20.0553 7.9841 20.3903C7.84534 20.7253 7.80904 21.0939 7.87978 21.4495C7.95052 21.8051 8.12512 22.1318 8.38152 22.3882C8.63792 22.6446 8.96459 22.8192 9.32022 22.8899C9.67585 22.9607 10.0445 22.9244 10.3795 22.7856C10.7145 22.6469 11.0008 22.4119 11.2022 22.1104C11.4037 21.8089 11.5112 21.4544 11.5112 21.0918C11.5237 20.8435 11.4854 20.5952 11.3989 20.3621C11.3123 20.129 11.1793 19.9159 11.0078 19.7358C10.8363 19.5557 10.6299 19.4124 10.4013 19.3146C10.1727 19.2168 9.92655 19.1665 9.67788 19.1668V19.2585ZM20.6779 8.25851C20.3153 8.25851 19.9608 8.36603 19.6593 8.56748C19.3578 8.76893 19.1229 9.05526 18.9841 9.39025C18.8453 9.72525 18.809 10.0939 18.8798 10.4495C18.9505 10.8051 19.1251 11.1318 19.3815 11.3882C19.6379 11.6446 19.9646 11.8192 20.3202 11.8899C20.6758 11.9607 21.0445 11.9244 21.3795 11.7856C21.7145 11.6469 22.0008 11.4119 22.2022 11.1104C22.4037 10.8089 22.5112 10.4544 22.5112 10.0918C22.5237 9.84348 22.4854 9.59519 22.3989 9.36207C22.3123 9.12895 22.1793 8.91588 22.0078 8.7358C21.8363 8.55573 21.6299 8.41243 21.4013 8.31462C21.1727 8.21681 20.9266 8.16653 20.6779 8.16684V8.25851ZM27.1679 12.0168C26.9104 12.2728 26.7347 12.5994 26.6631 12.9554C26.5915 13.3113 26.6271 13.6805 26.7656 14.0161C26.904 14.3518 27.139 14.6387 27.4407 14.8407C27.7424 15.0426 28.0973 15.1504 28.4604 15.1504C28.8234 15.1504 29.1783 15.0426 29.4801 14.8407C29.7818 14.6387 30.0168 14.3518 30.1552 14.0161C30.2936 13.6805 30.3293 13.3113 30.2577 12.9554C30.1861 12.5994 30.0104 12.2728 29.7529 12.0168C29.4217 11.6629 28.9637 11.4546 28.4793 11.4374C27.9949 11.4202 27.5234 11.5956 27.1679 11.9252V12.0168ZM38.7179 12.0168C37.0417 8.66605 34.4653 5.84844 31.2775 3.87996C28.0896 1.91147 24.4165 0.869957 20.6698 0.872196C16.9232 0.874435 13.2513 1.92034 10.0658 3.89263C6.8803 5.86492 4.30723 8.68561 2.6351 12.0384C0.962962 15.3912 0.257886 19.1435 0.598931 22.8746C0.939977 26.6057 2.31366 30.168 4.56594 33.162C6.81822 36.1561 9.86004 38.4635 13.3503 39.8256C16.8406 41.1877 20.6413 41.5506 24.3262 40.8735C25.2529 40.6991 26.1355 40.3418 26.9224 39.8224C27.7094 39.303 28.3849 38.632 28.9096 37.8485C29.4749 36.9967 29.8649 36.0409 30.0569 35.0368C30.2489 34.0327 30.239 33.0004 30.0279 32.0002C29.9124 31.3957 29.8511 30.7822 29.8446 30.1668C29.8526 28.3903 30.3767 26.6543 31.3531 25.1701C32.3296 23.6859 33.7163 22.5175 35.3446 21.8068C36.2225 21.4138 37.0105 20.8449 37.6601 20.1355C38.3096 19.426 38.8069 18.5909 39.1212 17.6818C39.4391 16.7529 39.5672 15.7695 39.4979 14.7901C39.4286 13.8107 39.1634 12.8551 38.7179 11.9802V12.0168ZM35.6012 16.4902C35.4448 16.9289 35.2019 17.3318 34.887 17.6751C34.5721 18.0183 34.1916 18.2949 33.7679 18.4885C31.5128 19.4979 29.5971 21.1368 28.2508 23.2084C26.9044 25.28 26.1846 27.6962 26.1779 30.1668C26.1806 31.0287 26.2666 31.8882 26.4346 32.7335C26.5465 33.2501 26.5539 33.784 26.4563 34.3035C26.3587 34.823 26.1581 35.3177 25.8662 35.7585C25.6193 36.1442 25.2943 36.474 24.9123 36.7266C24.5302 36.9792 24.0995 37.149 23.6479 37.2252C22.6686 37.4092 21.6743 37.5013 20.6779 37.5002C18.4672 37.5012 16.2788 37.0581 14.2427 36.1969C12.2067 35.3358 10.3644 34.0743 8.82531 32.4874C7.28624 30.9004 6.08177 29.0204 5.28341 26.9589C4.48506 24.8974 4.10911 22.6965 4.17788 20.4868C4.32017 16.367 5.99106 12.4476 8.86504 9.49227C11.739 6.53695 15.6102 4.75736 19.7246 4.50017H20.6595C23.7318 4.50094 26.7428 5.35943 29.3534 6.97896C31.9641 8.59849 34.0708 10.9147 35.4362 13.6668C35.8565 14.5376 35.9158 15.5392 35.6012 16.4535V16.4902ZM20.6779 19.1668C20.3153 19.1668 19.9608 19.2744 19.6593 19.4758C19.3578 19.6773 19.1229 19.9636 18.9841 20.2986C18.8453 20.6336 18.809 21.0022 18.8798 21.3578C18.9505 21.7135 19.1251 22.0401 19.3815 22.2965C19.6379 22.5529 19.9646 22.7275 20.3202 22.7983C20.6758 22.869 21.0445 22.8327 21.3795 22.694C21.7145 22.5552 22.0008 22.3202 22.2022 22.0187C22.4037 21.7172 22.5112 21.3628 22.5112 21.0002C22.5112 20.5139 22.3181 20.0476 21.9742 19.7038C21.6304 19.36 21.1641 19.1668 20.6779 19.1668Z" fill="#0A0A0B"/>
</svg>
