<svg width="40" height="40" fill="none" xmlns="http://www.w3.org/2000/svg"><path d="M32.646 24.311c6.612-7.167 7.665-18.34 7.286-21.713-.168-1.308-1.221-2.404-2.527-2.53-3.37-.38-14.53.674-21.69 7.294l-1.096-.506C11.124 5.254 6.954 6.013 4.216 8.71l-3.37 3.373c-.673.675-.968 1.644-.8 2.614.127.59.38 1.138.8 1.56.253.253.548.422.843.59l5.138 2.361c-2.274 4.428-1.474 5.229-1.052 5.65l.336.338c-2.653 3.71-3.327 8.137-3.495 10.034-.042.59.168 1.18.547 1.602a1.89 1.89 0 001.6.549c1.938-.17 6.318-.844 10.067-3.5l.337.337c.421.422 1.221 1.223 5.644-1.054l2.358 5.144c.127.337.337.59.59.843.421.422.969.717 1.558.801a2.908 2.908 0 002.57-.8l3.369-3.374c2.738-2.656 3.496-6.872 1.895-10.372l-.505-1.096zM2.868 14.277s-.084-.043-.084-.085c0-.084 0-.084.042-.126l3.37-3.373c1.895-1.898 4.801-2.404 7.244-1.307l.168.084c-2.485 2.783-4.296 5.397-5.39 7.252l-5.35-2.446zm2.654 20.238c.253-1.73.926-4.68 2.611-7.295l4.675 4.68c-2.611 1.687-5.56 2.361-7.286 2.614zm23.754-.675l-3.369 3.373s-.042.042-.126.042c-.085 0-.085-.042-.085-.084l-2.443-5.355a48.442 48.442 0 007.245-5.439l.084.169a6.504 6.504 0 01-1.306 7.294zm.843-10.92c-5.602 5.607-11.625 8.517-13.352 8.98l-8.634-8.643c.421-1.77 3.37-7.758 8.971-13.365C23.422 3.567 34.12 2.513 37.068 2.85l.085.085c.337 2.951-.716 13.66-7.034 19.985z" fill="#0A0A0B"/><path d="M22.869 3.914a4.16 4.16 0 000 5.872 4.15 4.15 0 005.866 0 4.16 4.16 0 000-5.872 4.15 4.15 0 00-5.866 0zm4.375 4.38a2.046 2.046 0 01-2.885 0 2.051 2.051 0 010-2.888 2.046 2.046 0 012.885 0 2.051 2.051 0 010 2.888z" fill="#0A0A0B"/></svg>