<svg width="44" height="44" fill="none" xmlns="http://www.w3.org/2000/svg"><path d="M22 4.12a18.334 18.334 0 0 0-5.798 35.726c.917.16 1.26-.39 1.26-.87 0-.436-.022-1.88-.022-3.415-4.607.848-5.798-1.123-6.165-2.154a6.665 6.665 0 0 0-1.879-2.59c-.642-.344-1.558-1.192-.023-1.215a3.669 3.669 0 0 1 2.819 1.88 3.917 3.917 0 0 0 5.34 1.512 3.857 3.857 0 0 1 1.168-2.452c-4.079-.458-8.341-2.04-8.341-9.052a7.135 7.135 0 0 1 1.879-4.927 6.588 6.588 0 0 1 .183-4.858s1.535-.482 5.042 1.879c3-.825 6.166-.825 9.166 0 3.506-2.384 5.042-1.88 5.042-1.88a6.588 6.588 0 0 1 .183 4.859 7.094 7.094 0 0 1 1.88 4.927c0 7.035-4.286 8.594-8.365 9.052a4.342 4.342 0 0 1 1.237 3.392c0 2.452-.023 4.423-.023 5.041 0 .482.344 1.055 1.26.871A18.343 18.343 0 0 0 22 4.12Z" fill="#BFBFC5"/></svg>
