<svg width="44" height="44" fill="none" xmlns="http://www.w3.org/2000/svg"><path d="M37.528 3.667H6.472a2.658 2.658 0 0 0-2.695 2.621v31.424a2.658 2.658 0 0 0 2.695 2.621h31.056a2.658 2.658 0 0 0 2.695-2.621V6.288a2.66 2.66 0 0 0-2.695-2.621Zm-22.696 30.69h-5.5v-16.5h5.5v16.5Zm-2.75-18.81a2.86 2.86 0 0 1 0-5.72 2.878 2.878 0 1 1 0 5.72Zm22.586 18.81h-5.5v-8.855c0-2.219-.788-3.667-2.786-3.667a3.025 3.025 0 0 0-2.824 1.998c-.143.431-.205.885-.183 1.339v9.166h-5.5v-16.5h5.5v2.329a5.5 5.5 0 0 1 4.968-2.75c3.667 0 6.325 2.365 6.325 7.443v9.497Z" fill="#BFBFC5"/></svg>
