<svg width="44" height="44" fill="none" xmlns="http://www.w3.org/2000/svg"><path d="M40.333 10.633a15.567 15.567 0 0 1-4.326 1.173 7.571 7.571 0 0 0 3.318-4.161c-1.478.88-3.097 1.5-4.785 1.833a7.517 7.517 0 0 0-12.833 6.857A21.342 21.342 0 0 1 6.215 8.47a7.627 7.627 0 0 0-1.008 3.795 7.498 7.498 0 0 0 3.336 6.251 7.425 7.425 0 0 1-3.41-.935v.092a7.517 7.517 0 0 0 6.05 7.333c-.654.2-1.333.304-2.016.312a8.991 8.991 0 0 1-1.412-.128 7.535 7.535 0 0 0 7.022 5.206A15.07 15.07 0 0 1 5.5 33.623a14.534 14.534 0 0 1-1.833-.11 21.212 21.212 0 0 0 11.531 3.392A21.248 21.248 0 0 0 36.667 15.49v-.971a15.455 15.455 0 0 0 3.666-3.887Z" fill="#BFBFC5"/></svg>
