<svg width="44" height="44" fill="none" xmlns="http://www.w3.org/2000/svg"><path d="M42.167 17.802a15.583 15.583 0 0 0-1.669-7.572 5.353 5.353 0 0 0-3.153-1.833A143.661 143.661 0 0 0 22 7.828a143.829 143.829 0 0 0-15.29.55 5.262 5.262 0 0 0-2.677 1.357C2.383 11.257 2.2 13.86 2.017 16.06a88.533 88.533 0 0 0 0 11.88c.053 1.238.237 2.467.55 3.667A5.757 5.757 0 0 0 3.868 34.1 5.244 5.244 0 0 0 6.6 35.53c3.953.488 7.935.69 11.917.605 6.416.092 12.045 0 18.7-.513a5.28 5.28 0 0 0 2.805-1.43 4.564 4.564 0 0 0 1.118-1.834c.656-2.012.978-4.117.953-6.233.074-1.027.074-7.223.074-8.323Zm-24.31 9.423V15.877l10.853 5.701c-3.043 1.687-7.058 3.594-10.853 5.647Z" fill="#BFBFC5"/></svg>
